<svg width="192" height="204" viewBox="0 0 192 204" fill="none" xmlns="http://www.w3.org/2000/svg">
<path d="M66.0283 158.731C74.6788 163.259 84.4902 165.872 94.8994 166.004L95.7285 166.01C106.445 166.01 116.547 163.38 125.426 158.733L138.366 181.146C129.663 185.837 120.099 189.139 109.972 190.749L110.737 203.743H80.7188L81.3574 190.729C71.2764 189.111 61.7555 185.818 53.0879 181.146L66.0283 158.731ZM31.6562 104.792C32.6287 126.491 44.3831 145.384 61.6914 156.242L48.7539 178.652C40.0426 173.312 32.3097 166.531 25.8877 158.64L15.0088 165.806L0 139.81L11.5781 133.861C8.12528 124.784 6.10081 115.002 5.77539 104.792H31.6562ZM185.68 104.792C185.354 115.002 183.329 124.783 179.876 133.86L191.456 139.81L176.946 164.94L166.116 157.958C159.588 166.14 151.662 173.157 142.701 178.651L129.763 156.242C147.071 145.384 158.826 126.492 159.799 104.792H185.68ZM95.7285 42.7344C128.389 42.7346 154.866 69.2115 154.866 101.872C154.866 134.532 128.389 161.01 95.7285 161.01C63.0679 161.01 36.5911 134.533 36.5908 101.872C36.5908 69.2113 63.0677 42.7344 95.7285 42.7344ZM95.7285 49.3096C66.699 49.3096 43.166 72.8426 43.166 101.872C43.1663 130.901 66.6992 154.435 95.7285 154.435C124.758 154.434 148.291 130.901 148.291 101.872C148.291 72.8428 124.758 49.3098 95.7285 49.3096ZM61.3359 47.7246C44.0001 58.7587 32.3227 77.8896 31.625 99.792H5.75098C5.99043 89.233 8.04845 79.1227 11.624 69.7627L0 63.9346L15.0088 37.9375L25.9688 45.0029C32.2863 37.2627 39.8669 30.5943 48.3955 25.3105L61.3359 47.7246ZM143.06 25.3105C151.588 30.5943 159.168 37.2629 165.485 45.0029L176.446 37.9375L190.956 63.0684L179.514 68.9453C183.285 78.5332 185.458 88.9248 185.704 99.792H159.832C159.134 77.8885 147.454 58.7576 130.117 47.7236L143.06 25.3105ZM109.105 12.8604C119.699 14.4389 129.689 17.864 138.738 22.7969L125.798 45.2061C117.058 40.5583 107.115 37.8731 96.5576 37.7393L95.7285 37.7344C84.8611 37.7344 74.6246 40.4369 65.6553 45.207L52.7168 22.7959C61.4834 18.0175 71.1326 14.6544 81.3574 13.0137L80.7188 0H109.737L109.105 12.8604Z" fill="#9747FF"/>
</svg>
