<svg width="240" height="240" viewBox="0 0 240 240" fill="none" xmlns="http://www.w3.org/2000/svg">
<path d="M133.127 14.79C142.982 16.0072 152.419 18.5758 161.245 22.3066L169.888 10.2393L190.111 21.915L183.971 35.4541C191.734 41.3372 198.661 48.2652 204.544 56.0283L218.084 49.8887L229.761 70.1123L217.692 78.7539C221.423 87.5799 223.992 97.0165 225.209 106.872L240 108.324V131.676L225.208 133.127C223.991 142.982 221.423 152.419 217.692 161.245L229.761 169.888L218.084 190.112L204.543 183.972C198.66 191.734 191.734 198.662 183.971 204.545L190.111 218.085L169.888 229.761L161.245 217.692C152.419 221.423 142.982 223.991 133.127 225.208L131.676 240H108.323L106.871 225.209C97.0156 223.992 87.579 221.423 78.7529 217.692L70.1113 229.761L49.8877 218.085L56.0273 204.545C48.2645 198.662 41.3371 191.735 35.4541 183.972L21.9141 190.112L10.2383 169.889L22.3066 161.246C18.5756 152.42 16.0072 142.983 14.79 133.127L0 131.676V108.324L14.79 106.872C16.0073 97.0163 18.5755 87.5792 22.3066 78.7529L10.2383 70.1113L21.9141 49.8877L35.4541 56.0273C41.3371 48.2645 48.2645 41.3371 56.0273 35.4541L49.8877 21.915L70.1113 10.2393L78.7529 22.3066C87.5789 18.5757 97.0156 16.0073 106.871 14.79L108.323 0H131.676L133.127 14.79ZM68.4707 185.971C82.6775 197.083 100.564 203.707 119.999 203.707C139.434 203.707 157.321 197.083 171.527 185.971L156.382 170.825C146.134 178.174 133.573 182.502 120 182.502C106.426 182.502 93.8636 178.174 83.6152 170.824L68.4707 185.971ZM54.0273 68.4717C42.9152 82.6784 36.292 100.566 36.292 120C36.292 139.434 42.9155 157.321 54.0273 171.527L69.1729 156.381C61.8246 146.133 57.4981 133.572 57.498 120C57.4981 106.427 61.8241 93.8652 69.1729 83.6172L54.0273 68.4717ZM170.824 83.6162C178.174 93.8645 182.502 106.427 182.502 120C182.502 133.573 178.173 146.134 170.824 156.382L185.97 171.527C197.082 157.321 203.706 139.434 203.706 120C203.706 100.565 197.082 82.6784 185.97 68.4717L170.824 83.6162ZM120 73.0439C94.0669 73.0439 73.044 94.0669 73.0439 120C73.0439 145.933 94.0669 166.956 120 166.956C145.933 166.956 166.956 145.933 166.956 120C166.956 94.067 145.933 73.0442 120 73.0439ZM119.999 36.293C100.565 36.293 82.6774 42.9162 68.4707 54.0283L83.6162 69.1738C93.8643 61.8248 106.427 57.4981 120 57.498C133.572 57.4982 146.133 61.8247 156.381 69.1729L171.526 54.0283C157.32 42.9165 139.433 36.293 119.999 36.293Z" fill="#9747FF"/>
</svg>
