<svg width="240" height="240" viewBox="0 0 240 240" fill="none" xmlns="http://www.w3.org/2000/svg">
<path d="M118.111 1.3416C118.599 -0.0559729 120.25 -0.361634 121.246 0.424611C121.405 0.550204 121.548 0.704293 121.666 0.885549C121.696 0.930865 121.725 0.978357 121.751 1.02715C121.804 1.12469 121.85 1.23019 121.889 1.3416L126.185 13.6697C126.614 13.6943 127.044 13.7221 127.472 13.7518L133.311 2.07598C134.158 0.381457 136.667 0.704549 137.057 2.5584L139.736 15.3191C140.345 15.4331 140.952 15.5513 141.557 15.6756L148.887 4.89629C149.952 3.32952 152.396 3.9843 152.535 5.87383L153.492 18.866C153.907 19.0033 154.321 19.1437 154.733 19.2859L163.378 9.53887C164.635 8.12143 166.974 9.08293 166.871 10.9744L166.157 23.9861C166.716 24.2552 167.272 24.5309 167.825 24.8094L177.694 16.2947C179.129 15.0573 181.319 16.3223 180.965 18.1834L178.523 30.9969C178.884 31.2348 179.244 31.4754 179.602 31.7176L190.49 24.5291C192.071 23.4857 194.082 25.0199 193.492 26.8201L189.427 39.2283C189.891 39.6281 190.353 40.0326 190.811 40.4402L202.569 34.7596C204.275 33.9356 206.064 35.7246 205.24 37.4305L199.559 49.1883C199.844 49.5087 200.129 49.8312 200.41 50.1551L212.797 46.0262C214.594 45.4273 216.14 47.431 215.105 49.0174L207.971 59.9422C208.318 60.4505 208.664 60.9617 209.003 61.4764L221.817 59.035C223.678 58.6809 224.943 60.8721 223.706 62.3064L215.19 72.1746C215.386 72.563 215.58 72.9534 215.771 73.3445L228.781 72.5643C230.672 72.4512 231.646 74.7864 230.235 76.0506L220.533 84.743C220.738 85.3281 220.938 85.9169 221.133 86.5066L234.127 87.4647C236.016 87.6044 236.671 90.0479 235.105 91.1131L224.324 98.4422C224.412 98.8671 224.497 99.2938 224.579 99.7205L237.352 102.335C239.207 102.715 239.544 105.223 237.855 106.079L226.21 111.976C226.256 112.587 226.294 113.201 226.329 113.814L238.658 118.111C240.447 118.735 240.447 121.265 238.658 121.888L226.328 126.184C226.304 126.613 226.278 127.043 226.248 127.471L237.925 133.309C239.619 134.157 239.295 136.666 237.441 137.055L224.681 139.735C224.567 140.344 224.449 140.952 224.324 141.556L235.105 148.887C236.67 149.952 236.016 152.395 234.127 152.535L221.133 153.492C220.996 153.907 220.856 154.321 220.714 154.733L230.462 163.378C231.878 164.635 230.917 166.974 229.025 166.871L216.014 166.157C215.745 166.716 215.469 167.271 215.19 167.824L223.706 177.693C224.943 179.127 223.678 181.318 221.817 180.965L209.003 178.522C208.765 178.883 208.524 179.243 208.282 179.601L215.471 190.489C216.513 192.07 214.98 194.08 213.18 193.491L200.771 189.426C200.371 189.89 199.967 190.353 199.56 190.81L205.24 202.568C206.063 204.274 204.275 206.062 202.569 205.239L190.812 199.558C190.491 199.844 190.168 200.128 189.844 200.41L193.974 212.797C194.572 214.593 192.57 216.138 190.983 215.103L180.057 207.97C179.548 208.317 179.037 208.663 178.523 209.002L180.965 221.816C181.319 223.677 179.129 224.941 177.694 223.705L167.825 215.189C167.436 215.385 167.046 215.579 166.654 215.77L167.436 228.78C167.548 230.67 165.215 231.644 163.95 230.234L155.257 220.532C154.671 220.738 154.082 220.937 153.491 221.133L152.535 234.126C152.395 236.014 149.952 236.669 148.887 235.103L141.557 224.323C141.132 224.41 140.705 224.496 140.278 224.578L137.665 237.35C137.285 239.206 134.777 239.542 133.921 237.853L128.023 226.209C127.412 226.254 126.798 226.293 126.185 226.328L121.889 238.658C121.265 240.446 118.735 240.446 118.111 238.658L113.815 226.329C113.385 226.304 112.956 226.277 112.527 226.247L106.69 237.924C105.843 239.617 103.334 239.293 102.944 237.44L100.264 224.679C99.6551 224.565 99.0474 224.447 98.4424 224.323L91.1133 235.103C90.048 236.669 87.6048 236.014 87.4649 234.126L86.5069 221.133C86.0922 220.995 85.6781 220.855 85.2657 220.713L76.6231 230.461C75.3662 231.878 73.0259 230.915 73.129 229.024L73.8418 216.013C73.2835 215.744 72.7278 215.469 72.1749 215.19L62.3067 223.705C60.8724 224.942 58.6815 223.677 59.0352 221.816L61.4766 209.002C61.1143 208.763 60.7528 208.522 60.3936 208.279L49.5079 215.468C47.927 216.51 45.9168 214.976 46.5059 213.176L50.5704 200.767C50.1052 200.367 49.6418 199.964 49.1836 199.555L37.4288 205.235C35.7231 206.059 33.9343 204.27 34.7579 202.564L40.4376 190.807C40.1531 190.488 39.8696 190.166 39.5889 189.844L27.2032 193.973C25.4061 194.572 23.8614 192.569 24.8965 190.982L32.0284 180.056C31.6808 179.548 31.3361 179.037 30.9971 178.522L18.1836 180.965C16.3227 181.319 15.0578 179.128 16.295 177.693L24.8086 167.824C24.6131 167.436 24.4194 167.045 24.2286 166.654L11.2198 167.435C9.32872 167.549 8.35407 165.213 9.7647 163.949L19.4668 155.255C19.2616 154.669 19.0615 154.081 18.8663 153.491L5.87408 152.535C3.9847 152.396 3.33009 149.952 4.89654 148.887L15.6758 141.556C15.5883 141.131 15.5024 140.704 15.42 140.276L2.64947 137.664C0.793405 137.284 0.456593 134.777 2.14654 133.921L13.7901 128.022C13.7446 127.411 13.7051 126.798 13.67 126.184L1.34185 121.888C0.951001 121.752 0.644936 121.524 0.424857 121.246C0.362054 121.166 0.305768 121.082 0.256888 120.995C-0.305836 119.993 0.0559975 118.559 1.34185 118.111L13.67 113.814C13.6946 113.385 13.7223 112.955 13.752 112.527L2.07525 106.689C0.381314 105.842 0.705007 103.333 2.55865 102.943L15.3184 100.263C15.4324 99.6541 15.5515 99.0469 15.6758 98.4422L4.89654 91.1131C3.32977 90.0478 3.98462 87.6039 5.87408 87.4647L18.8663 86.5076C19.0037 86.0923 19.1438 85.6775 19.2862 85.2645L9.53911 76.6219C8.12165 75.365 9.08322 73.0255 10.9747 73.1287L23.9864 73.8416C24.2553 73.2832 24.5303 72.7275 24.8086 72.1746L16.295 62.3064C15.0573 60.8719 16.3225 58.6804 18.1836 59.035L30.9971 61.4764C31.235 61.1154 31.4747 60.7552 31.7168 60.3973L24.5293 49.5105C23.4858 47.9295 25.021 45.9188 26.8213 46.5086L39.2286 50.573C39.6287 50.1079 40.0325 49.6454 40.4405 49.1873L34.7608 37.4314C33.9366 35.7255 35.7257 33.9364 37.4317 34.7605L49.1876 40.4402C49.5081 40.1547 49.8313 39.8714 50.1553 39.5897L46.0264 27.2029C45.4276 25.4057 47.4312 23.8606 49.0176 24.8963L59.9424 32.0291C60.4509 31.6813 60.9619 31.336 61.4766 30.9969L59.0352 18.1834C58.6807 16.3223 60.8722 15.0572 62.3067 16.2947L72.1749 24.8084C72.5634 24.6128 72.9536 24.4193 73.3448 24.2283L72.5645 11.2195C72.451 9.32835 74.7864 8.3536 76.0508 9.76446L84.7442 19.4666C85.3293 19.2614 85.9172 19.0612 86.5069 18.866L87.4649 5.87383C87.6041 3.98436 90.048 3.32961 91.1133 4.89629L98.4424 15.6756C98.8678 15.5882 99.2945 15.5031 99.7217 15.4207L102.336 2.64922C102.716 0.793028 105.223 0.456063 106.079 2.14629L111.977 13.7898C112.588 13.7443 113.201 13.7049 113.815 13.6697L118.111 1.3416ZM49.0333 172.747C63.2352 191.823 84.9464 204.977 109.791 207.834V191.539C90.9174 188.87 74.3885 178.909 63.1465 164.597L49.0333 172.747ZM176.831 164.626C165.589 178.922 149.07 188.872 130.208 191.539V207.834C155.041 204.979 176.743 191.836 190.945 172.775L176.831 164.626ZM120 61.575C87.7331 61.575 61.5753 87.7329 61.5752 120C61.5752 152.267 87.7331 178.425 120 178.425C152.267 178.424 178.424 152.267 178.424 120C178.424 87.733 152.267 61.5751 120 61.575ZM38.8067 84.9383C34.1584 95.6879 31.5821 107.543 31.5821 120C31.5822 132.468 34.1637 144.334 38.8204 155.092L52.9346 146.941C49.587 138.616 47.7442 129.523 47.7442 120C47.7442 110.488 49.5827 101.405 52.9229 93.0877L38.8067 84.9383ZM187.063 93.0555C190.411 101.382 192.256 110.475 192.256 120C192.256 129.511 190.415 138.593 187.075 146.91L201.191 155.06C205.84 144.311 208.418 132.456 208.418 120C208.418 107.531 205.835 95.6651 201.178 84.907L187.063 93.0555ZM130.208 48.4598C149.081 51.1286 165.61 61.0891 176.852 75.3992L190.965 67.2518C176.763 48.1764 155.053 35.021 130.208 32.1648V48.4598ZM109.791 32.1648C84.9587 35.0197 63.2561 48.163 49.0538 67.2234L63.169 75.3729C74.4106 61.077 90.9301 51.1271 109.791 48.4598V32.1648Z" fill="#9747FF"/>
</svg>
