<svg width="240" height="240" viewBox="0 0 240 240" fill="none" xmlns="http://www.w3.org/2000/svg">
<path d="M120.148 0.00526142C120.246 0.0122546 120.344 0.0263695 120.44 0.0472536C120.73 0.110147 121.007 0.235579 121.246 0.424207C121.405 0.550075 121.548 0.704303 121.667 0.886121C121.755 1.02217 121.83 1.17481 121.889 1.34218L126.184 13.6703C126.614 13.6949 127.043 13.7217 127.472 13.7514L133.31 2.07557C134.158 0.380941 136.667 0.704798 137.057 2.55897L139.736 15.3187C140.345 15.4328 140.953 15.5498 141.558 15.6742L148.887 4.89589C149.952 3.32914 152.396 3.98402 152.535 5.87343L153.492 18.8666C153.907 19.0039 154.321 19.1433 154.733 19.2855L163.378 9.53846C164.635 8.12087 166.975 9.08319 166.871 10.975L166.157 23.9857C166.716 24.2547 167.271 24.5305 167.824 24.809L177.694 16.2943C179.129 15.0569 181.319 16.3219 180.965 18.183L178.522 30.9965C178.884 31.2344 179.243 31.475 179.601 31.7172L190.49 24.5287C192.071 23.4851 194.082 25.0203 193.492 26.8207L189.427 39.2289C189.891 39.6286 190.353 40.0323 190.81 40.4398L202.569 34.7592C204.275 33.9351 206.064 35.7242 205.24 37.4301L199.559 49.1879C199.844 49.5084 200.128 49.8307 200.41 50.1547L212.798 46.0258C214.595 45.4273 216.14 47.4307 215.104 49.017L207.971 59.9428C208.318 60.451 208.664 60.9615 209.003 61.476L221.817 59.0355C223.678 58.6811 224.943 60.8716 223.706 62.306L215.19 72.1752C215.386 72.5637 215.58 72.9539 215.77 73.3451L228.781 72.5648C230.672 72.4515 231.646 74.7859 230.235 76.0502L220.533 84.7426C220.738 85.3278 220.937 85.9163 221.133 86.5062L234.127 87.4642C236.016 87.6037 236.671 90.0474 235.104 91.1127L224.324 98.4418C224.412 98.8668 224.497 99.2932 224.579 99.7201L237.351 102.334C239.207 102.714 239.544 105.222 237.854 106.079L226.21 111.976C226.255 112.587 226.294 113.2 226.329 113.814L238.659 118.111C240.447 118.735 240.447 121.264 238.659 121.888L226.328 126.184C226.303 126.614 226.278 127.043 226.248 127.471L237.925 133.31C239.619 134.157 239.295 136.667 237.441 137.056L224.681 139.736C224.567 140.344 224.448 140.951 224.324 141.556L235.104 148.886C236.671 149.951 236.016 152.395 234.127 152.535L221.133 153.492C220.995 153.906 220.856 154.32 220.714 154.733L230.462 163.377C231.879 164.634 230.917 166.974 229.025 166.87L216.014 166.157C215.745 166.715 215.469 167.27 215.19 167.824L223.706 177.693C224.943 179.127 223.678 181.318 221.817 180.964L209.003 178.522C208.765 178.883 208.524 179.243 208.282 179.601L215.471 190.489C216.514 192.069 214.98 194.081 213.18 193.492L200.77 189.426C200.371 189.891 199.967 190.352 199.559 190.81L205.24 202.568C206.064 204.273 204.275 206.062 202.569 205.239L190.811 199.558C190.491 199.844 190.169 200.128 189.845 200.41L193.974 212.796C194.572 214.593 192.57 216.139 190.983 215.104L180.057 207.97C179.548 208.318 179.037 208.662 178.522 209.001L180.965 221.816C181.319 223.677 179.129 224.942 177.694 223.704L167.825 215.19C167.436 215.386 167.046 215.579 166.654 215.77L167.435 228.78C167.549 230.67 165.215 231.645 163.95 230.235L155.256 220.532C154.67 220.737 154.082 220.937 153.492 221.132L152.536 234.125C152.397 236.014 149.952 236.669 148.887 235.103L141.558 224.324C141.132 224.411 140.705 224.496 140.277 224.579L137.665 237.35C137.285 239.206 134.777 239.543 133.921 237.853L128.022 226.208C127.411 226.254 126.798 226.292 126.184 226.328L121.889 238.658C121.83 238.825 121.756 238.978 121.667 239.114C121.549 239.295 121.405 239.449 121.246 239.575C120.25 240.361 118.599 240.055 118.111 238.658L113.814 226.329C113.385 226.304 112.956 226.276 112.528 226.246L106.69 237.924C105.843 239.618 103.334 239.294 102.944 237.441L100.264 224.68C99.6548 224.566 99.0474 224.447 98.4423 224.323L91.1132 235.103C90.0479 236.669 87.6043 236.015 87.4648 234.125L86.5068 221.132C86.092 220.995 85.6781 220.855 85.2656 220.712L76.623 230.46C75.366 231.878 73.0254 230.915 73.1288 229.024L73.8417 216.012C73.2833 215.743 72.7277 215.468 72.1747 215.19L62.3066 223.704C60.8721 224.942 58.6808 223.677 59.0351 221.816L61.4765 209.001C61.1145 208.763 60.7533 208.522 60.3945 208.28L49.5087 215.467C47.9277 216.511 45.9163 214.975 46.5058 213.175L50.5702 200.768C50.105 200.368 49.6427 199.963 49.1845 199.555L37.4286 205.235C35.7228 206.059 33.9338 204.27 34.7577 202.564L40.4374 190.808C40.1528 190.488 39.8706 190.166 39.5898 189.843L27.2031 193.973C25.4059 194.572 23.8613 192.569 24.8964 190.983L32.0292 180.056C31.6814 179.548 31.3361 179.037 30.997 178.522L18.1835 180.964C16.3224 181.319 15.0574 179.127 16.2948 177.693L24.8085 167.824C24.613 167.435 24.4194 167.045 24.2284 166.654L11.2197 167.435C9.32869 167.548 8.3543 165.214 9.76457 163.95L19.4667 155.255C19.2613 154.67 19.0615 154.081 18.8661 153.491L5.87395 152.535C3.98449 152.395 3.32974 149.951 4.89641 148.886L15.6757 141.556C15.5882 141.13 15.5023 140.703 15.4198 140.276L2.64934 137.663C0.793222 137.284 0.456298 134.776 2.14641 133.92L13.79 128.022C13.7445 127.411 13.705 126.798 13.6698 126.184L1.34172 121.888C-0.447216 121.265 -0.447266 118.734 1.34172 118.111L13.6698 113.814C13.6945 113.384 13.7222 112.955 13.7519 112.527L2.0761 106.69C0.381678 105.843 0.70483 103.334 2.55852 102.944L15.3183 100.263C15.4324 99.6543 15.5513 99.0469 15.6757 98.4418L4.89641 91.1127C3.32969 90.0474 3.98448 87.6035 5.87395 87.4642L18.8661 86.5062C19.0034 86.0914 19.1438 85.6776 19.2861 85.265L9.53899 76.6224C8.12145 75.3654 9.08375 73.0246 10.9755 73.1283L23.9863 73.8412C24.2552 73.2827 24.5301 72.7272 24.8085 72.1742L16.2948 62.306C15.0573 60.8715 16.3224 58.681 18.1835 59.0355L30.997 61.476C31.2347 61.1151 31.4747 60.7556 31.7167 60.3978L24.5292 49.5111C23.4853 47.93 25.0207 45.9184 26.8212 46.5082L39.2284 50.5726C39.6287 50.1075 40.0323 49.645 40.4404 49.1869L34.7607 37.431C33.9368 35.7252 35.7257 33.9362 37.4316 34.7601L49.1884 40.4398C49.5089 40.1544 49.8313 39.8709 50.1552 39.5892L46.0263 27.2035C45.4272 25.4061 47.431 23.8602 49.0175 24.8959L59.9423 32.0287C60.4509 31.6808 60.9617 31.3357 61.4765 30.9965L59.0361 18.183C58.6816 16.322 60.8721 15.0571 62.3066 16.2943L72.1747 24.809C72.5633 24.6134 72.9534 24.4199 73.3447 24.2289L72.5644 11.2191C72.4509 9.32804 74.7863 8.35346 76.0507 9.76405L84.7441 19.4662C85.3291 19.261 85.9171 19.0618 86.5068 18.8666L87.4648 5.87343C87.6041 3.98419 90.0478 3.32952 91.1132 4.89589L98.4423 15.6752C98.8677 15.5877 99.2943 15.5027 99.7216 15.4203L102.336 2.64882C102.716 0.792666 105.223 0.455771 106.079 2.14589L111.976 13.7894C112.588 13.7439 113.2 13.7055 113.814 13.6703L118.111 1.34218C118.443 0.391579 119.313 -0.0542822 120.148 0.00526142ZM65.4267 183.705C78.9149 195.271 96.1175 202.626 115 203.736V188.041C100.436 186.986 87.1405 181.362 76.54 172.592L65.4267 183.705ZM165.033 171.249C154.189 180.786 140.294 186.934 125 188.041V203.736C144.614 202.583 162.416 194.691 176.125 182.341L165.033 171.249ZM120.001 61.0072C87.4212 61.0073 61.0098 87.4187 61.0097 119.998C61.0097 152.578 87.4211 178.99 120.001 178.99C152.581 178.99 178.992 152.578 178.992 119.998C178.992 87.4187 152.581 61.0072 120.001 61.0072ZM36.2636 124.999C37.4345 144.917 45.553 162.966 58.2323 176.757L69.3183 165.671C59.458 154.736 53.0866 140.595 51.957 124.999H36.2636ZM188.044 124.999C186.967 139.865 181.126 153.41 172.042 164.116L183.145 175.219C195.033 161.636 202.609 144.185 203.737 124.999H188.044ZM57.6572 63.8734C45.3075 77.5821 37.4167 95.3849 36.2636 114.999H51.957C53.0647 99.7058 59.2125 85.8097 68.7489 74.9652L57.6572 63.8734ZM172.594 76.5394C181.363 87.14 186.989 100.436 188.044 114.999H203.737C202.627 96.1172 195.272 78.9143 183.707 65.4262L172.594 76.5394ZM125 51.9555C140.596 53.085 154.738 59.4571 165.673 69.3178L176.758 58.2328C162.966 45.5531 144.917 37.433 125 36.2621V51.9555ZM115 36.2621C95.8141 37.39 78.3623 44.9658 64.7792 56.8539L75.8818 67.9564C86.5877 58.8717 100.134 53.0324 115 51.9555V36.2621Z" fill="#9747FF"/>
</svg>
