<svg width="220" height="220" viewBox="0 0 220 220" fill="none" xmlns="http://www.w3.org/2000/svg">
<path d="M116.316 13.25C120.534 13.5256 124.677 14.0728 128.729 14.8711L133.029 2.32031L143.67 5.1709L141.118 18.1807C145.097 19.5343 148.959 21.1406 152.687 22.9785L160.087 11.9707L169.626 17.4785L163.786 29.4004C167.26 31.7302 170.575 34.2785 173.711 37.0264L183.724 28.2959L191.513 36.085L182.78 46.0957C185.528 49.2319 188.078 52.5462 190.408 56.0205L202.33 50.1826L207.838 59.7227L196.83 67.1211C198.668 70.8483 200.273 74.7106 201.627 78.6895L214.638 76.1396L217.489 86.7793L204.938 91.0781C205.736 95.1306 206.282 99.2734 206.558 103.49L219.809 104.396V115.412L206.558 116.316C206.282 120.534 205.736 124.677 204.938 128.73L217.489 133.03L214.638 143.67L201.627 141.119C200.273 145.098 198.668 148.96 196.83 152.688L207.838 160.087L202.33 169.627L190.407 163.788C188.078 167.262 185.529 170.576 182.781 173.712L191.513 183.724L183.724 191.513L173.712 182.781C170.576 185.529 167.261 188.078 163.787 190.408L169.626 202.33L160.086 207.838L152.687 196.83C148.959 198.668 145.097 200.273 141.118 201.627L143.67 214.638L133.029 217.489L128.729 204.938C124.677 205.736 120.534 206.282 116.316 206.558L115.412 219.809H104.396L103.49 206.558C99.2734 206.282 95.1306 205.736 91.0781 204.938L86.7793 217.489L76.1387 214.639L78.6885 201.627C74.7095 200.273 70.8474 198.667 67.1201 196.829L59.7217 207.838L50.1826 202.33L56.0205 190.407C52.5464 188.077 49.2317 185.528 46.0957 182.78L36.085 191.513L28.2959 183.724L37.0264 173.711C34.2787 170.575 31.73 167.261 29.4004 163.787L17.4785 169.627L11.9707 160.087L22.9785 152.687C21.1406 148.959 19.5343 145.097 18.1807 141.118L5.1709 143.67L2.31934 133.03L14.8711 128.73C14.0727 124.677 13.5256 120.534 13.25 116.316L0 115.412V104.396L13.25 103.49C13.5257 99.2734 14.0728 95.1306 14.8711 91.0781L2.31934 86.7793L5.1709 76.1396L18.1807 78.6895C19.5344 74.7105 21.1405 70.8484 22.9785 67.1211L11.9707 59.7227L17.4785 50.1826L29.4004 56.0205C31.7302 52.5466 34.2795 49.2325 37.0273 46.0967L28.2959 36.085L36.085 28.2959L46.0967 37.0273C49.2325 34.2795 52.5466 31.7302 56.0205 29.4004L50.1826 17.4785L59.7217 11.9707L67.1211 22.9785C70.8481 21.1407 74.7098 19.5343 78.6885 18.1807L76.1387 5.1709L86.7793 2.31934L91.0781 14.8711C95.1306 14.0728 99.2734 13.5257 103.49 13.25L104.396 0.000976562L115.412 0L116.316 13.25ZM109.904 28.918C65.1769 28.918 28.918 65.1769 28.918 109.904C28.918 154.632 65.1769 190.891 109.904 190.891C154.632 190.891 190.891 154.632 190.891 109.904C190.891 65.1769 154.632 28.918 109.904 28.918Z" fill="#9747FF"/>
</svg>
