<svg width="50" height="50" viewBox="0 0 50 50" fill="none" xmlns="http://www.w3.org/2000/svg">
<mask id="path-1-inside-1_18_265" fill="white">
<path d="M50 25C50 38.8071 38.8071 50 25 50C11.1929 50 0 38.8071 0 25C0 11.1929 11.1929 0 25 0C38.8071 0 50 11.1929 50 25ZM6.54143 25C6.54143 35.1944 14.8056 43.4586 25 43.4586C35.1944 43.4586 43.4586 35.1944 43.4586 25C43.4586 14.8056 35.1944 6.54143 25 6.54143C14.8056 6.54143 6.54143 14.8056 6.54143 25Z"/>
</mask>
<path d="M50 25C50 38.8071 38.8071 50 25 50C11.1929 50 0 38.8071 0 25C0 11.1929 11.1929 0 25 0C38.8071 0 50 11.1929 50 25ZM6.54143 25C6.54143 35.1944 14.8056 43.4586 25 43.4586C35.1944 43.4586 43.4586 35.1944 43.4586 25C43.4586 14.8056 35.1944 6.54143 25 6.54143C14.8056 6.54143 6.54143 14.8056 6.54143 25Z" stroke="black" stroke-width="2" mask="url(#path-1-inside-1_18_265)"/>
</svg>
