<svg width="50" height="50" viewBox="0 0 50 50" fill="none" xmlns="http://www.w3.org/2000/svg">
<mask id="path-1-inside-1_18_269" fill="white">
<path d="M50 25C50 20.3899 48.7253 15.8697 46.3168 11.9388C43.9083 8.00792 40.4597 4.81957 36.3524 2.72617C32.245 0.632767 27.6388 -0.28416 23.0429 0.0767406C18.447 0.437642 14.0403 2.06232 10.3101 4.77118C6.57983 7.48004 3.67124 11.1676 1.90581 15.4262C0.140373 19.6849 -0.413141 24.3487 0.306446 28.9023C1.02603 33.4558 2.99069 37.7217 5.98327 41.2285C8.97584 44.7352 12.8798 47.3462 17.2635 48.7728L19.2878 42.5525C16.0511 41.4992 13.1687 39.5714 10.9591 36.9822C8.74959 34.393 7.29899 31.2433 6.76769 27.8812C6.23639 24.5191 6.64507 21.0756 7.94857 17.9313C9.25206 14.7869 11.3996 12.0643 14.1538 10.0642C16.908 8.06413 20.1616 6.86456 23.555 6.59809C26.9483 6.33162 30.3493 7.00863 33.3819 8.55428C36.4146 10.0999 38.9608 12.454 40.7391 15.3564C42.5174 18.2587 43.4586 21.5962 43.4586 25H50Z"/>
</mask>
<path d="M50 25C50 20.3899 48.7253 15.8697 46.3168 11.9388C43.9083 8.00792 40.4597 4.81957 36.3524 2.72617C32.245 0.632767 27.6388 -0.28416 23.0429 0.0767406C18.447 0.437642 14.0403 2.06232 10.3101 4.77118C6.57983 7.48004 3.67124 11.1676 1.90581 15.4262C0.140373 19.6849 -0.413141 24.3487 0.306446 28.9023C1.02603 33.4558 2.99069 37.7217 5.98327 41.2285C8.97584 44.7352 12.8798 47.3462 17.2635 48.7728L19.2878 42.5525C16.0511 41.4992 13.1687 39.5714 10.9591 36.9822C8.74959 34.393 7.29899 31.2433 6.76769 27.8812C6.23639 24.5191 6.64507 21.0756 7.94857 17.9313C9.25206 14.7869 11.3996 12.0643 14.1538 10.0642C16.908 8.06413 20.1616 6.86456 23.555 6.59809C26.9483 6.33162 30.3493 7.00863 33.3819 8.55428C36.4146 10.0999 38.9608 12.454 40.7391 15.3564C42.5174 18.2587 43.4586 21.5962 43.4586 25H50Z" stroke="black" stroke-width="2" mask="url(#path-1-inside-1_18_269)"/>
<g opacity="0.1">
<mask id="path-2-inside-2_18_269" fill="white">
<path d="M50 25C50 38.8071 38.8071 50 25 50C11.1929 50 1.52588e-05 38.8071 1.52588e-05 25C1.52588e-05 11.1929 11.1929 1.52588e-05 25 1.52588e-05C38.8071 1.52588e-05 50 11.1929 50 25ZM6.54144 25C6.54144 35.1944 14.8056 43.4586 25 43.4586C35.1944 43.4586 43.4586 35.1944 43.4586 25C43.4586 14.8056 35.1944 6.54144 25 6.54144C14.8056 6.54144 6.54144 14.8056 6.54144 25Z"/>
</mask>
<path d="M50 25C50 38.8071 38.8071 50 25 50C11.1929 50 1.52588e-05 38.8071 1.52588e-05 25C1.52588e-05 11.1929 11.1929 1.52588e-05 25 1.52588e-05C38.8071 1.52588e-05 50 11.1929 50 25ZM6.54144 25C6.54144 35.1944 14.8056 43.4586 25 43.4586C35.1944 43.4586 43.4586 35.1944 43.4586 25C43.4586 14.8056 35.1944 6.54144 25 6.54144C14.8056 6.54144 6.54144 14.8056 6.54144 25Z" stroke="black" stroke-width="2" mask="url(#path-2-inside-2_18_269)"/>
</g>
</svg>
