<svg width="137" height="49" viewBox="0 0 137 49" fill="none" xmlns="http://www.w3.org/2000/svg">
<circle cx="0.868036" cy="0.868036" r="0.868036" fill="black"/>
<circle cx="52.9502" cy="0.868036" r="0.868036" fill="black"/>
<circle cx="6.07626" cy="0.868036" r="0.868036" fill="black"/>
<circle cx="58.1584" cy="0.868036" r="0.868036" fill="black"/>
<circle cx="11.2845" cy="0.868036" r="0.868036" fill="black"/>
<circle cx="63.3666" cy="0.868036" r="0.868036" fill="black"/>
<circle cx="16.4927" cy="0.868036" r="0.868036" fill="black"/>
<circle cx="68.5749" cy="0.868036" r="0.868036" fill="black"/>
<circle cx="21.7009" cy="0.868036" r="0.868036" fill="black"/>
<circle cx="73.7831" cy="0.868036" r="0.868036" fill="black"/>
<circle cx="26.9091" cy="0.868036" r="0.868036" fill="black"/>
<circle cx="78.9913" cy="0.868036" r="0.868036" fill="black"/>
<circle cx="105.032" cy="0.868036" r="0.868036" fill="black"/>
<circle cx="32.1173" cy="0.868036" r="0.868036" fill="black"/>
<circle cx="84.1995" cy="0.868036" r="0.868036" fill="black"/>
<circle cx="110.241" cy="0.868036" r="0.868036" fill="black"/>
<circle cx="37.3256" cy="0.868036" r="0.868036" fill="black"/>
<circle cx="89.4077" cy="0.868036" r="0.868036" fill="black"/>
<circle cx="115.449" cy="0.868036" r="0.868036" fill="black"/>
<circle cx="42.5337" cy="0.868036" r="0.868036" fill="black"/>
<circle cx="94.616" cy="0.868036" r="0.868036" fill="black"/>
<circle cx="120.657" cy="0.868036" r="0.868036" fill="black"/>
<circle cx="47.742" cy="0.868036" r="0.868036" fill="black"/>
<circle cx="99.8242" cy="0.868036" r="0.868036" fill="black"/>
<circle cx="125.865" cy="0.868036" r="0.868036" fill="black"/>
<circle cx="0.868036" cy="6.07624" r="0.868036" fill="black"/>
<circle cx="52.9502" cy="6.07624" r="0.868036" fill="black"/>
<circle cx="6.07626" cy="6.07624" r="0.868036" fill="black"/>
<circle cx="58.1584" cy="6.07624" r="0.868036" fill="black"/>
<circle cx="11.2845" cy="6.07624" r="0.868036" fill="black"/>
<circle cx="63.3666" cy="6.07624" r="0.868036" fill="black"/>
<circle cx="16.4927" cy="6.07624" r="0.868036" fill="black"/>
<circle cx="68.5749" cy="6.07624" r="0.868036" fill="black"/>
<circle cx="21.7009" cy="6.07624" r="0.868036" fill="black"/>
<circle cx="73.7831" cy="6.07624" r="0.868036" fill="black"/>
<circle cx="26.9091" cy="6.07624" r="0.868036" fill="black"/>
<circle cx="78.9913" cy="6.07624" r="0.868036" fill="black"/>
<circle cx="105.032" cy="6.07624" r="0.868036" fill="black"/>
<circle cx="32.1173" cy="6.07624" r="0.868036" fill="black"/>
<circle cx="84.1995" cy="6.07624" r="0.868036" fill="black"/>
<circle cx="110.241" cy="6.07624" r="0.868036" fill="black"/>
<circle cx="37.3256" cy="6.07624" r="0.868036" fill="black"/>
<circle cx="89.4077" cy="6.07624" r="0.868036" fill="black"/>
<circle cx="115.449" cy="6.07624" r="0.868036" fill="black"/>
<circle cx="42.5337" cy="6.07624" r="0.868036" fill="black"/>
<circle cx="94.616" cy="6.07624" r="0.868036" fill="black"/>
<circle cx="120.657" cy="6.07624" r="0.868036" fill="black"/>
<circle cx="47.742" cy="6.07624" r="0.868036" fill="black"/>
<circle cx="99.8242" cy="6.07624" r="0.868036" fill="black"/>
<circle cx="125.865" cy="6.07624" r="0.868036" fill="black"/>
<circle cx="0.868036" cy="11.2845" r="0.868036" fill="black"/>
<circle cx="52.9502" cy="11.2845" r="0.868036" fill="black"/>
<circle cx="6.07626" cy="11.2845" r="0.868036" fill="black"/>
<circle cx="58.1584" cy="11.2845" r="0.868036" fill="black"/>
<circle cx="11.2845" cy="11.2845" r="0.868036" fill="black"/>
<circle cx="63.3666" cy="11.2845" r="0.868036" fill="black"/>
<circle cx="16.4927" cy="11.2845" r="0.868036" fill="black"/>
<circle cx="68.5749" cy="11.2845" r="0.868036" fill="black"/>
<circle cx="21.7009" cy="11.2845" r="0.868036" fill="black"/>
<circle cx="73.7831" cy="11.2845" r="0.868036" fill="black"/>
<circle cx="26.9091" cy="11.2845" r="0.868036" fill="black"/>
<circle cx="78.9913" cy="11.2845" r="0.868036" fill="black"/>
<circle cx="105.032" cy="11.2845" r="0.868036" fill="black"/>
<circle cx="32.1173" cy="11.2845" r="0.868036" fill="black"/>
<circle cx="84.1995" cy="11.2845" r="0.868036" fill="black"/>
<circle cx="110.241" cy="11.2845" r="0.868036" fill="black"/>
<circle cx="37.3256" cy="11.2845" r="0.868036" fill="black"/>
<circle cx="89.4077" cy="11.2845" r="0.868036" fill="black"/>
<circle cx="115.449" cy="11.2845" r="0.868036" fill="black"/>
<circle cx="42.5337" cy="11.2845" r="0.868036" fill="black"/>
<circle cx="94.616" cy="11.2845" r="0.868036" fill="black"/>
<circle cx="120.657" cy="11.2845" r="0.868036" fill="black"/>
<circle cx="47.742" cy="11.2845" r="0.868036" fill="black"/>
<circle cx="99.8242" cy="11.2845" r="0.868036" fill="black"/>
<circle cx="125.865" cy="11.2845" r="0.868036" fill="black"/>
<circle cx="131.073" cy="11.2845" r="0.868036" fill="black"/>
<circle cx="0.868036" cy="16.4927" r="0.868036" fill="black"/>
<circle cx="52.9502" cy="16.4927" r="0.868036" fill="black"/>
<circle cx="6.07626" cy="16.4927" r="0.868036" fill="black"/>
<circle cx="58.1584" cy="16.4927" r="0.868036" fill="black"/>
<circle cx="11.2845" cy="16.4927" r="0.868036" fill="black"/>
<circle cx="63.3666" cy="16.4927" r="0.868036" fill="black"/>
<circle cx="16.4927" cy="16.4927" r="0.868036" fill="black"/>
<circle cx="68.5749" cy="16.4927" r="0.868036" fill="black"/>
<circle cx="21.7009" cy="16.4927" r="0.868036" fill="black"/>
<circle cx="73.7831" cy="16.4927" r="0.868036" fill="black"/>
<circle cx="26.9091" cy="16.4927" r="0.868036" fill="black"/>
<circle cx="78.9913" cy="16.4927" r="0.868036" fill="black"/>
<circle cx="105.032" cy="16.4927" r="0.868036" fill="black"/>
<circle cx="32.1173" cy="16.4927" r="0.868036" fill="black"/>
<circle cx="84.1995" cy="16.4927" r="0.868036" fill="black"/>
<circle cx="110.241" cy="16.4927" r="0.868036" fill="black"/>
<circle cx="37.3256" cy="16.4927" r="0.868036" fill="black"/>
<circle cx="89.4077" cy="16.4927" r="0.868036" fill="black"/>
<circle cx="115.449" cy="16.4927" r="0.868036" fill="black"/>
<circle cx="42.5337" cy="16.4927" r="0.868036" fill="black"/>
<circle cx="94.616" cy="16.4927" r="0.868036" fill="black"/>
<circle cx="120.657" cy="16.4927" r="0.868036" fill="black"/>
<circle cx="47.742" cy="16.4927" r="0.868036" fill="black"/>
<circle cx="99.8242" cy="16.4927" r="0.868036" fill="black"/>
<circle cx="125.865" cy="16.4927" r="0.868036" fill="black"/>
<circle cx="131.073" cy="16.4927" r="0.868036" fill="black"/>
<circle cx="0.868036" cy="21.7009" r="0.868036" fill="black"/>
<circle cx="52.9502" cy="21.7009" r="0.868036" fill="black"/>
<circle cx="6.07626" cy="21.7009" r="0.868036" fill="black"/>
<circle cx="58.1584" cy="21.7009" r="0.868036" fill="black"/>
<circle cx="11.2845" cy="21.7009" r="0.868036" fill="black"/>
<circle cx="63.3666" cy="21.7009" r="0.868036" fill="black"/>
<circle cx="16.4927" cy="21.7009" r="0.868036" fill="black"/>
<circle cx="68.5749" cy="21.7009" r="0.868036" fill="black"/>
<circle cx="21.7009" cy="21.7009" r="0.868036" fill="black"/>
<circle cx="73.7831" cy="21.7009" r="0.868036" fill="black"/>
<circle cx="26.9091" cy="21.7009" r="0.868036" fill="black"/>
<circle cx="78.9913" cy="21.7009" r="0.868036" fill="black"/>
<circle cx="105.032" cy="21.7009" r="0.868036" fill="black"/>
<circle cx="32.1173" cy="21.7009" r="0.868036" fill="black"/>
<circle cx="84.1995" cy="21.7009" r="0.868036" fill="black"/>
<circle cx="110.241" cy="21.7009" r="0.868036" fill="black"/>
<circle cx="37.3256" cy="21.7009" r="0.868036" fill="black"/>
<circle cx="89.4077" cy="21.7009" r="0.868036" fill="black"/>
<circle cx="115.449" cy="21.7009" r="0.868036" fill="black"/>
<circle cx="42.5337" cy="21.7009" r="0.868036" fill="black"/>
<circle cx="94.616" cy="21.7009" r="0.868036" fill="black"/>
<circle cx="120.657" cy="21.7009" r="0.868036" fill="black"/>
<circle cx="47.742" cy="21.7009" r="0.868036" fill="black"/>
<circle cx="99.8242" cy="21.7009" r="0.868036" fill="black"/>
<circle cx="125.865" cy="21.7009" r="0.868036" fill="black"/>
<circle cx="131.073" cy="21.7009" r="0.868036" fill="black"/>
<circle cx="52.9502" cy="26.9091" r="0.868036" fill="black"/>
<circle cx="6.07626" cy="26.9091" r="0.868036" fill="black"/>
<circle cx="58.1584" cy="26.9091" r="0.868036" fill="black"/>
<circle cx="11.2845" cy="26.9091" r="0.868036" fill="black"/>
<circle cx="63.3666" cy="26.9091" r="0.868036" fill="black"/>
<circle cx="16.4927" cy="26.9091" r="0.868036" fill="black"/>
<circle cx="68.5749" cy="26.9091" r="0.868036" fill="black"/>
<circle cx="21.7009" cy="26.9091" r="0.868036" fill="black"/>
<circle cx="73.7831" cy="26.9091" r="0.868036" fill="black"/>
<circle cx="26.9091" cy="26.9091" r="0.868036" fill="black"/>
<circle cx="78.9913" cy="26.9091" r="0.868036" fill="black"/>
<circle cx="105.032" cy="26.9091" r="0.868036" fill="black"/>
<circle cx="32.1173" cy="26.9091" r="0.868036" fill="black"/>
<circle cx="84.1995" cy="26.9091" r="0.868036" fill="black"/>
<circle cx="110.241" cy="26.9091" r="0.868036" fill="black"/>
<circle cx="37.3256" cy="26.9091" r="0.868036" fill="black"/>
<circle cx="89.4077" cy="26.9091" r="0.868036" fill="black"/>
<circle cx="115.449" cy="26.9091" r="0.868036" fill="black"/>
<circle cx="42.5337" cy="26.9091" r="0.868036" fill="black"/>
<circle cx="94.616" cy="26.9091" r="0.868036" fill="black"/>
<circle cx="120.657" cy="26.9091" r="0.868036" fill="black"/>
<circle cx="47.742" cy="26.9091" r="0.868036" fill="black"/>
<circle cx="99.8242" cy="26.9091" r="0.868036" fill="black"/>
<circle cx="125.865" cy="26.9091" r="0.868036" fill="black"/>
<circle cx="131.073" cy="26.9091" r="0.868036" fill="black"/>
<circle cx="52.9502" cy="32.1173" r="0.868036" fill="black"/>
<circle cx="6.07626" cy="32.1173" r="0.868036" fill="black"/>
<circle cx="58.1584" cy="32.1173" r="0.868036" fill="black"/>
<circle cx="11.2845" cy="32.1173" r="0.868036" fill="black"/>
<circle cx="63.3666" cy="32.1173" r="0.868036" fill="black"/>
<circle cx="16.4927" cy="32.1173" r="0.868036" fill="black"/>
<circle cx="68.5749" cy="32.1173" r="0.868036" fill="black"/>
<circle cx="21.7009" cy="32.1173" r="0.868036" fill="black"/>
<circle cx="73.7831" cy="32.1173" r="0.868036" fill="black"/>
<circle cx="26.9091" cy="32.1173" r="0.868036" fill="black"/>
<circle cx="78.9913" cy="32.1173" r="0.868036" fill="black"/>
<circle cx="105.032" cy="32.1173" r="0.868036" fill="black"/>
<circle cx="32.1173" cy="32.1173" r="0.868036" fill="black"/>
<circle cx="84.1995" cy="32.1173" r="0.868036" fill="black"/>
<circle cx="110.241" cy="32.1173" r="0.868036" fill="black"/>
<circle cx="37.3256" cy="32.1173" r="0.868036" fill="black"/>
<circle cx="89.4077" cy="32.1173" r="0.868036" fill="black"/>
<circle cx="115.449" cy="32.1173" r="0.868036" fill="black"/>
<circle cx="42.5337" cy="32.1173" r="0.868036" fill="black"/>
<circle cx="94.616" cy="32.1173" r="0.868036" fill="black"/>
<circle cx="120.657" cy="32.1173" r="0.868036" fill="black"/>
<circle cx="47.742" cy="32.1173" r="0.868036" fill="black"/>
<circle cx="99.8242" cy="32.1173" r="0.868036" fill="black"/>
<circle cx="125.865" cy="32.1173" r="0.868036" fill="black"/>
<circle cx="131.073" cy="32.1173" r="0.868036" fill="black"/>
<circle cx="52.9502" cy="37.3255" r="0.868036" fill="black"/>
<circle cx="58.1584" cy="37.3255" r="0.868036" fill="black"/>
<circle cx="11.2845" cy="37.3255" r="0.868036" fill="black"/>
<circle cx="63.3666" cy="37.3255" r="0.868036" fill="black"/>
<circle cx="16.4927" cy="37.3255" r="0.868036" fill="black"/>
<circle cx="68.5749" cy="37.3255" r="0.868036" fill="black"/>
<circle cx="21.7009" cy="37.3255" r="0.868036" fill="black"/>
<circle cx="73.7831" cy="37.3255" r="0.868036" fill="black"/>
<circle cx="26.9091" cy="37.3255" r="0.868036" fill="black"/>
<circle cx="78.9913" cy="37.3255" r="0.868036" fill="black"/>
<circle cx="105.032" cy="37.3255" r="0.868036" fill="black"/>
<circle cx="32.1173" cy="37.3255" r="0.868036" fill="black"/>
<circle cx="84.1995" cy="37.3255" r="0.868036" fill="black"/>
<circle cx="110.241" cy="37.3255" r="0.868036" fill="black"/>
<circle cx="37.3256" cy="37.3255" r="0.868036" fill="black"/>
<circle cx="89.4077" cy="37.3255" r="0.868036" fill="black"/>
<circle cx="115.449" cy="37.3255" r="0.868036" fill="black"/>
<circle cx="42.5337" cy="37.3255" r="0.868036" fill="black"/>
<circle cx="94.616" cy="37.3255" r="0.868036" fill="black"/>
<circle cx="120.657" cy="37.3255" r="0.868036" fill="black"/>
<circle cx="47.742" cy="37.3255" r="0.868036" fill="black"/>
<circle cx="99.8242" cy="37.3255" r="0.868036" fill="black"/>
<circle cx="125.865" cy="37.3255" r="0.868036" fill="black"/>
<circle cx="131.073" cy="37.3255" r="0.868036" fill="black"/>
<circle cx="52.9502" cy="42.5338" r="0.868036" fill="black"/>
<circle cx="58.1584" cy="42.5338" r="0.868036" fill="black"/>
<circle cx="11.2845" cy="42.5338" r="0.868036" fill="black"/>
<circle cx="63.3666" cy="42.5338" r="0.868036" fill="black"/>
<circle cx="16.4927" cy="42.5338" r="0.868036" fill="black"/>
<circle cx="68.5749" cy="42.5338" r="0.868036" fill="black"/>
<circle cx="21.7009" cy="42.5338" r="0.868036" fill="black"/>
<circle cx="73.7831" cy="42.5338" r="0.868036" fill="black"/>
<circle cx="26.9091" cy="42.5338" r="0.868036" fill="black"/>
<circle cx="78.9913" cy="42.5338" r="0.868036" fill="black"/>
<circle cx="105.032" cy="42.5338" r="0.868036" fill="black"/>
<circle cx="32.1173" cy="42.5338" r="0.868036" fill="black"/>
<circle cx="84.1995" cy="42.5338" r="0.868036" fill="black"/>
<circle cx="110.241" cy="42.5338" r="0.868036" fill="black"/>
<circle cx="37.3256" cy="42.5338" r="0.868036" fill="black"/>
<circle cx="89.4077" cy="42.5338" r="0.868036" fill="black"/>
<circle cx="115.449" cy="42.5338" r="0.868036" fill="black"/>
<circle cx="42.5337" cy="42.5338" r="0.868036" fill="black"/>
<circle cx="94.616" cy="42.5338" r="0.868036" fill="black"/>
<circle cx="120.657" cy="42.5338" r="0.868036" fill="black"/>
<circle cx="47.742" cy="42.5338" r="0.868036" fill="black"/>
<circle cx="99.8242" cy="42.5338" r="0.868036" fill="black"/>
<circle cx="125.865" cy="42.5338" r="0.868036" fill="black"/>
<circle cx="131.073" cy="42.5338" r="0.868036" fill="black"/>
<circle cx="52.9502" cy="47.742" r="0.868036" fill="black"/>
<circle cx="58.1584" cy="47.742" r="0.868036" fill="black"/>
<circle cx="63.3666" cy="47.742" r="0.868036" fill="black"/>
<circle cx="16.4927" cy="47.742" r="0.868036" fill="black"/>
<circle cx="68.5749" cy="47.742" r="0.868036" fill="black"/>
<circle cx="21.7009" cy="47.742" r="0.868036" fill="black"/>
<circle cx="73.7831" cy="47.742" r="0.868036" fill="black"/>
<circle cx="26.9091" cy="47.742" r="0.868036" fill="black"/>
<circle cx="78.9913" cy="47.742" r="0.868036" fill="black"/>
<circle cx="105.032" cy="47.742" r="0.868036" fill="black"/>
<circle cx="32.1173" cy="47.742" r="0.868036" fill="black"/>
<circle cx="84.1995" cy="47.742" r="0.868036" fill="black"/>
<circle cx="110.241" cy="47.742" r="0.868036" fill="black"/>
<circle cx="37.3256" cy="47.742" r="0.868036" fill="black"/>
<circle cx="89.4077" cy="47.742" r="0.868036" fill="black"/>
<circle cx="115.449" cy="47.742" r="0.868036" fill="black"/>
<circle cx="42.5337" cy="47.742" r="0.868036" fill="black"/>
<circle cx="94.616" cy="47.742" r="0.868036" fill="black"/>
<circle cx="120.657" cy="47.742" r="0.868036" fill="black"/>
<circle cx="47.742" cy="47.742" r="0.868036" fill="black"/>
<circle cx="99.8242" cy="47.742" r="0.868036" fill="black"/>
<circle cx="125.865" cy="47.742" r="0.868036" fill="black"/>
<circle cx="131.073" cy="47.742" r="0.868036" fill="black"/>
<circle cx="136.073" cy="42.5338" r="0.868036" fill="black"/>
<circle cx="136.073" cy="47.742" r="0.868036" fill="black"/>
</svg>
