<?xml version="1.0" encoding="UTF-8"?> <svg xmlns="http://www.w3.org/2000/svg" width="198" height="16" viewBox="0 0 198 16" fill="none"><path d="M10 0H18L8 16H0L10 0Z" fill="#111111"></path><path d="M105.802 0H113.802L103.802 16H95.8018L105.802 0Z" fill="#111111"></path><path d="M58.0419 0H66.0419L56.0419 16H48.0419L58.0419 0Z" fill="#111111"></path><path d="M153.844 0H161.844L151.844 16H143.844L153.844 0Z" fill="#111111"></path><path d="M34.1563 0H42.1563L32.1563 16H24.1563L34.1563 0Z" fill="#111111"></path><path d="M129.958 0H137.958L127.958 16H119.958L129.958 0Z" fill="#111111"></path><path d="M82.1982 0H90.1982L80.1982 16H72.1982L82.1982 0Z" fill="#111111"></path><path d="M178 0H186L176 16H168L178 0Z" fill="#111111"></path><path d="M22 0H30L20 16H12L22 0Z" fill="#111111"></path><path d="M117.802 0H125.802L115.802 16H107.802L117.802 0Z" fill="#111111"></path><path d="M70.0419 0H78.0419L68.0419 16H60.0419L70.0419 0Z" fill="#111111"></path><path d="M165.844 0H173.844L163.844 16H155.844L165.844 0Z" fill="#111111"></path><path d="M46.1563 0H54.1563L44.1563 16H36.1563L46.1563 0Z" fill="#111111"></path><path d="M141.958 0H149.958L139.958 16H131.958L141.958 0Z" fill="#111111"></path><path d="M94.1982 0H102.198L92.1982 16H84.1982L94.1982 0Z" fill="#111111"></path><path d="M190 0H198L188 16H180L190 0Z" fill="#111111"></path></svg> 