<?xml version="1.0" encoding="UTF-8"?> <svg xmlns="http://www.w3.org/2000/svg" width="62" height="62" viewBox="0 0 62 62" fill="none"><path d="M30.6904 12.5713V12.0713H30.6904L30.6904 12.5713ZM12.5713 30.6904L12.0713 30.6904V30.6904H12.5713ZM30.6904 48.8105L30.6904 49.3105H30.6904V48.8105ZM48.8105 30.6904H49.3105V30.6904L48.8105 30.6904ZM34.5353 1.3471L35.0336 1.30563L34.5353 1.3471ZM26.8462 1.34677L27.3445 1.38842L26.8462 1.34677ZM25.7618 6.01531L25.6644 5.52488L25.7618 6.01531ZM26.5265 5.17139L27.0248 5.21304L26.5265 5.17139ZM21.5349 6.50629L21.9457 6.22119L21.5349 6.50629ZM18.1272 3.08222L17.8772 2.64921L18.1272 3.08222ZM19.3479 3.35546L18.9372 3.64056L19.3479 3.35546ZM12.6885 7.20044L13.1408 6.98726L12.6885 7.20044ZM14.3267 10.6758L13.8744 10.889L14.3267 10.6758ZM10.6759 14.3268L10.4628 14.7791L10.6759 14.3268ZM11.788 14.0877L12.1636 14.4178L11.788 14.0877ZM7.20033 12.6893L7.41343 12.237L7.20033 12.6893ZM3.08229 18.1272L3.51528 18.3772L3.08229 18.1272ZM6.85536 22.6184L6.38175 22.4581L6.85536 22.6184ZM6.50629 21.5349L6.22119 21.9457L6.50629 21.5349ZM5.17122 26.5274L5.12966 26.0291L5.17122 26.5274ZM6.0153 25.7626L5.52487 25.6652L6.0153 25.7626ZM1.34694 26.8463L1.3885 27.3446L1.34694 26.8463ZM1.3471 34.5353L1.30563 35.0336L1.3471 34.5353ZM6.01534 35.6184L5.52491 35.7158L6.01534 35.6184ZM5.17105 34.8536L5.12958 35.3519L5.17105 34.8536ZM6.50659 39.845L6.7918 40.2556L6.50659 39.845ZM6.85545 38.7617L6.38185 38.922L6.85545 38.7617ZM3.08303 43.2534L2.65001 43.5034L3.08303 43.2534ZM3.3561 42.0329L3.64131 42.4436L3.3561 42.0329ZM7.20051 48.6912L7.41373 49.1435L7.20051 48.6912ZM6.00664 48.3176L5.57362 48.5675L6.00664 48.3176ZM11.7872 47.2924L11.4116 47.6225L11.7872 47.2924ZM10.6748 47.0533L10.888 47.5056L10.6748 47.0533ZM14.3268 50.705L13.8745 50.4919L14.3268 50.705ZM14.0878 49.5928L13.7576 49.9684L14.0878 49.5928ZM13.0631 55.3741L13.3131 54.9411L13.0631 55.3741ZM12.6893 54.1805L12.237 53.9674L12.6893 54.1805ZM19.3489 58.0252L19.7597 58.3103L19.3489 58.0252ZM18.1281 58.2986L18.3781 57.8656L18.1281 58.2986ZM22.6186 54.5255L22.4583 54.9992L22.6186 54.5255ZM21.5349 54.8747L21.1242 54.5897L21.5349 54.8747ZM26.5274 56.2096L27.0256 56.1681L26.5274 56.2096ZM25.7626 55.3656L25.8599 54.8751L25.7626 55.3656ZM26.8464 60.0349L27.3446 59.9933L26.8464 60.0349ZM34.5353 60.0347L34.0371 59.9933L34.5353 60.0347ZM35.6184 55.3655L35.7158 55.856L35.6184 55.3655ZM34.8536 56.2098L35.3519 56.2513L34.8536 56.2098ZM39.8459 54.8746L40.2567 54.5895L39.8459 54.8746ZM38.7624 54.5255L38.6021 54.0519L38.7624 54.5255ZM43.2536 58.2987L43.5036 58.7317L43.2536 58.2987ZM42.033 58.0254L42.4437 57.7403L42.033 58.0254ZM48.6913 54.1814L48.239 54.3945L48.6913 54.1814ZM48.3176 55.3752L48.5676 55.8082L48.3176 55.3752ZM47.2923 49.5937L46.9622 49.2182L47.2923 49.5937ZM50.7061 47.0532L50.4929 47.5055L50.7061 47.0532ZM49.5937 47.2923L49.2182 46.9622L49.5937 47.2923ZM54.1814 48.6913L54.3945 48.239L54.1814 48.6913ZM58.0254 42.033L58.3105 41.6222L58.0254 42.033ZM58.2987 43.2536L58.7317 43.5036L58.2987 43.2536ZM54.5255 38.7624L54.9991 38.9227L54.5255 38.7624ZM54.8746 39.8459L54.5895 40.2567L54.8746 39.8459ZM56.2098 34.8536L56.2513 35.3519L56.2098 34.8536ZM55.3655 35.6184L55.856 35.7158L55.3655 35.6184ZM60.0347 34.5353L59.9933 34.0371L60.0347 34.5353ZM60.0349 26.8464L59.9933 27.3446L60.0349 26.8464ZM55.3656 25.7626L55.856 25.6652L55.3656 25.7626ZM56.2096 26.5274L56.2512 26.0291L56.2096 26.5274ZM54.8747 21.534L55.1598 21.9447L54.8747 21.534ZM54.5256 22.6176L54.0519 22.7779L54.5256 22.6176ZM58.2986 18.1271L58.7317 17.8771L58.2986 18.1271ZM58.0253 19.3479L58.3103 19.7587L58.0253 19.3479ZM54.1815 12.6893L53.9684 12.2369L54.1815 12.6893ZM55.3751 13.0631L55.8081 12.8131L55.3751 13.0631ZM49.5929 14.0878L49.9684 13.7577L49.5929 14.0878ZM50.7049 14.3269L50.4919 13.8746L50.7049 14.3269ZM47.0534 10.6747L47.5056 10.888L47.0534 10.6747ZM47.2924 11.7872L47.6225 11.4117L47.2924 11.7872ZM48.3185 6.00563L48.5685 5.57261L48.3185 6.00563ZM42.0339 3.35525L41.6232 3.07009L42.0339 3.35525ZM43.2545 3.0821L43.0045 3.51512L43.2545 3.0821ZM38.7625 6.85542L38.6022 7.32902L38.7625 6.85542ZM39.8459 6.50647L39.4352 6.2213L39.8459 6.50647ZM34.8536 5.17105L35.3519 5.12958L34.8536 5.17105ZM35.6184 6.01532L35.5211 6.50575C36.5739 6.71475 37.6025 6.99063 38.6022 7.32902L38.7625 6.85542L38.9228 6.38181C37.8821 6.02955 36.8115 5.7424 35.7158 5.52489L35.6184 6.01532ZM39.8459 6.50647L40.2566 6.79163L42.4446 3.64041L42.0339 3.35525L41.6232 3.07009L39.4352 6.2213L39.8459 6.50647ZM43.2545 3.0821L43.0045 3.51512L48.0685 6.43865L48.3185 6.00563L48.5685 5.57261L43.5045 2.64908L43.2545 3.0821ZM48.6921 7.19957L48.2399 6.98632L46.6012 10.4615L47.0534 10.6747L47.5056 10.888L49.1443 7.41283L48.6921 7.19957ZM47.2924 11.7872L46.9623 12.1628C47.7615 12.8653 48.5148 13.6187 49.2173 14.4179L49.5929 14.0878L49.9684 13.7577C49.2376 12.9263 48.4539 12.1425 47.6225 11.4117L47.2924 11.7872ZM50.7049 14.3269L50.918 14.7792L54.3945 13.1416L54.1815 12.6893L53.9684 12.2369L50.4919 13.8746L50.7049 14.3269ZM55.3751 13.0631L54.942 13.3131L57.8656 18.3771L58.2986 18.1271L58.7317 17.8771L55.8081 12.8131L55.3751 13.0631ZM58.0253 19.3479L57.7402 18.9371L54.5897 21.1232L54.8747 21.534L55.1598 21.9447L58.3103 19.7587L58.0253 19.3479ZM54.5256 22.6176L54.0519 22.7779C54.3904 23.7779 54.6661 24.8067 54.8751 25.8599L55.3656 25.7626L55.856 25.6652C55.6385 24.5693 55.3515 23.4984 54.9992 22.4573L54.5256 22.6176ZM56.2096 26.5274L56.1681 27.0256L59.9933 27.3446L60.0349 26.8464L60.0764 26.3481L56.2512 26.0291L56.2096 26.5274ZM60.8818 27.7669H60.3818V33.6148H60.8818H61.3818V27.7669H60.8818ZM60.0347 34.5353L59.9933 34.0371L56.1684 34.3553L56.2098 34.8536L56.2513 35.3519L60.0762 35.0336L60.0347 34.5353ZM55.3655 35.6184L54.8751 35.5211C54.6661 36.5739 54.3903 37.6024 54.0519 38.6021L54.5255 38.7624L54.9991 38.9227C55.3513 37.882 55.6385 36.8115 55.856 35.7158L55.3655 35.6184ZM54.8746 39.8459L54.5895 40.2567L57.7403 42.4437L58.0254 42.033L58.3105 41.6222L55.1597 39.4352L54.8746 39.8459ZM58.2987 43.2536L57.8657 43.0036L54.9421 48.0676L55.3752 48.3176L55.8082 48.5676L58.7317 43.5036L58.2987 43.2536ZM54.1814 48.6913L54.3945 48.239L50.9192 46.601L50.7061 47.0532L50.4929 47.5055L53.9682 49.1436L54.1814 48.6913ZM49.5937 47.2923L49.2182 46.9622C48.5154 47.7618 47.7618 48.5154 46.9622 49.2182L47.2923 49.5937L47.6224 49.9693C48.4542 49.2382 49.2382 48.4542 49.9693 47.6224L49.5937 47.2923ZM47.0532 50.7061L46.601 50.9192L48.239 54.3945L48.6913 54.1814L49.1436 53.9682L47.5055 50.4929L47.0532 50.7061ZM48.3176 55.3752L48.0676 54.9421L43.0036 57.8657L43.2536 58.2987L43.5036 58.7317L48.5676 55.8082L48.3176 55.3752ZM42.033 58.0254L42.4437 57.7403L40.2567 54.5895L39.8459 54.8746L39.4352 55.1597L41.6222 58.3105L42.033 58.0254ZM38.7624 54.5255L38.6021 54.0519C37.6024 54.3903 36.5739 54.6661 35.5211 54.8751L35.6184 55.3655L35.7158 55.856C36.8115 55.6385 37.882 55.3513 38.9227 54.9991L38.7624 54.5255ZM34.8536 56.2098L34.3553 56.1684L34.0371 59.9933L34.5353 60.0347L35.0336 60.0762L35.3519 56.2513L34.8536 56.2098ZM33.6148 60.8818V60.3818H27.7669V60.8818V61.3818H33.6148V60.8818ZM26.8464 60.0349L27.3446 59.9933L27.0256 56.1681L26.5274 56.2096L26.0291 56.2512L26.3481 60.0764L26.8464 60.0349ZM25.7626 55.3656L25.8599 54.8751C24.8071 54.6661 23.7786 54.3903 22.7789 54.0519L22.6186 54.5255L22.4583 54.9992C23.499 55.3514 24.5696 55.6385 25.6652 55.856L25.7626 55.3656ZM21.5349 54.8747L21.1242 54.5897L18.9381 57.7402L19.3489 58.0252L19.7597 58.3103L21.9457 55.1598L21.5349 54.8747ZM18.1281 58.2986L18.3781 57.8656L13.3131 54.9411L13.0631 55.3741L12.8131 55.8071L17.8781 58.7316L18.1281 58.2986ZM12.6893 54.1805L13.1417 54.3936L14.7791 50.9181L14.3268 50.705L13.8745 50.4919L12.237 53.9674L12.6893 54.1805ZM14.0878 49.5928L14.4179 49.2173C13.6186 48.5148 12.8652 47.7615 12.1627 46.9623L11.7872 47.2924L11.4116 47.6225C12.1425 48.4539 12.9262 49.2376 13.7576 49.9684L14.0878 49.5928ZM10.6748 47.0533L10.4615 46.6011L6.9873 48.239L7.20051 48.6912L7.41373 49.1435L10.888 47.5056L10.6748 47.0533ZM6.00664 48.3176L6.43966 48.0676L3.51605 43.0035L3.08303 43.2534L2.65001 43.5034L5.57362 48.5675L6.00664 48.3176ZM3.3561 42.0329L3.64131 42.4436L6.7918 40.2556L6.50659 39.845L6.22139 39.4343L3.0709 41.6222L3.3561 42.0329ZM6.85545 38.7617L7.32906 38.6014C6.99072 37.6018 6.71476 36.5735 6.50576 35.521L6.01534 35.6184L5.52491 35.7158C5.74243 36.8112 6.02967 37.8815 6.38185 38.922L6.85545 38.7617ZM5.17105 34.8536L5.21252 34.3553L1.38857 34.0371L1.3471 34.5353L1.30563 35.0336L5.12958 35.3519L5.17105 34.8536ZM0.5 33.6148H1V27.7669H0.5H0V33.6148H0.5ZM1.34694 26.8463L1.3885 27.3446L5.21278 27.0256L5.17122 26.5274L5.12966 26.0291L1.30537 26.3481L1.34694 26.8463ZM6.0153 25.7626L6.50573 25.8599C6.71474 24.8071 6.99058 23.7785 7.32897 22.7787L6.85536 22.6184L6.38175 22.4581C6.02949 23.4989 5.74238 24.5696 5.52487 25.6652L6.0153 25.7626ZM6.50629 21.5349L6.7914 21.1242L3.64061 18.9372L3.35551 19.348L3.0704 19.7587L6.22119 21.9457L6.50629 21.5349ZM3.08229 18.1272L3.51528 18.3772L6.4397 13.313L6.00671 13.063L5.57372 12.813L2.6493 17.8772L3.08229 18.1272ZM7.20033 12.6893L6.98722 13.1416L10.4628 14.7791L10.6759 14.3268L10.889 13.8745L7.41343 12.237L7.20033 12.6893ZM11.788 14.0877L12.1636 14.4178C12.8658 13.619 13.6189 12.8659 14.4178 12.1637L14.0876 11.7881L13.7575 11.4126C12.9265 12.1431 12.1431 12.9266 11.4125 13.7576L11.788 14.0877ZM14.3267 10.6758L14.7789 10.4626L13.1408 6.98726L12.6885 7.20044L12.2363 7.41363L13.8744 10.889L14.3267 10.6758ZM13.0622 6.00666L13.3122 6.43967L18.3772 3.51522L18.1272 3.08222L17.8772 2.64921L12.8122 5.57365L13.0622 6.00666ZM19.3479 3.35546L18.9372 3.64056L21.1242 6.7914L21.5349 6.50629L21.9457 6.22119L19.7587 3.07036L19.3479 3.35546ZM22.6184 6.85535L22.7787 7.32895C23.7783 6.99062 24.8066 6.71475 25.8592 6.50573L25.7618 6.01531L25.6644 5.52488C24.569 5.74241 23.4986 6.02955 22.4581 6.38175L22.6184 6.85535ZM26.5265 5.17139L27.0248 5.21304L27.3445 1.38842L26.8462 1.34677L26.3479 1.30512L26.0282 5.12974L26.5265 5.17139ZM27.7667 0.5V1H33.6148V0.5V0H27.7667V0.5ZM34.5353 1.3471L34.0371 1.38857L34.3553 5.21252L34.8536 5.17105L35.3519 5.12958L35.0336 1.30563L34.5353 1.3471ZM30.6904 12.5713L30.6904 12.0713C20.4076 12.0715 12.0715 20.4076 12.0713 30.6904L12.5713 30.6904L13.0713 30.6904C13.0715 20.9598 20.9598 13.0715 30.6904 13.0713L30.6904 12.5713ZM12.5713 30.6904H12.0713C12.0713 40.9735 20.4074 49.3103 30.6904 49.3105L30.6904 48.8105L30.6904 48.3105C20.9597 48.3103 13.0713 40.4212 13.0713 30.6904H12.5713ZM30.6904 48.8105V49.3105C40.9737 49.3105 49.3105 40.9737 49.3105 30.6904H48.8105H48.3105C48.3105 40.4214 40.4214 48.3105 30.6904 48.3105V48.8105ZM48.8105 30.6904L49.3105 30.6904C49.3103 20.4074 40.9735 12.0713 30.6904 12.0713V12.5713V13.0713C40.4212 13.0713 48.3103 20.9597 48.3105 30.6904L48.8105 30.6904ZM33.6148 0.5V1C33.8352 1 34.0188 1.16894 34.0371 1.38857L34.5353 1.3471L35.0336 1.30563C34.9722 0.567667 34.3553 0 33.6148 0V0.5ZM26.8462 1.34677L27.3445 1.38842C27.3628 1.16886 27.5464 1 27.7667 1V0.5V0C27.0264 0 26.4096 0.567374 26.3479 1.30512L26.8462 1.34677ZM25.7618 6.01531L25.8592 6.50573C26.4833 6.38178 26.9704 5.86403 27.0248 5.21304L26.5265 5.17139L26.0282 5.12974C26.0124 5.31948 25.8677 5.4845 25.6644 5.52488L25.7618 6.01531ZM21.5349 6.50629L21.1242 6.7914C21.4964 7.32773 22.1764 7.53283 22.7787 7.32895L22.6184 6.85535L22.4581 6.38175C22.2618 6.4482 22.0542 6.3775 21.9457 6.22119L21.5349 6.50629ZM18.1272 3.08222L18.3772 3.51522C18.5681 3.40503 18.8115 3.45953 18.9372 3.64056L19.3479 3.35546L19.7587 3.07036C19.3365 2.46207 18.5185 2.27896 17.8772 2.64921L18.1272 3.08222ZM12.6885 7.20044L13.1408 6.98726C13.0469 6.78793 13.1214 6.54985 13.3122 6.43967L13.0622 6.00666L12.8122 5.57365C12.171 5.94389 11.9206 6.74385 12.2363 7.41363L12.6885 7.20044ZM14.0876 11.7881L14.4178 12.1637C14.8952 11.744 15.0571 11.0528 14.7789 10.4626L14.3267 10.6758L13.8744 10.889C13.9555 11.061 13.913 11.276 13.7575 11.4126L14.0876 11.7881ZM10.6759 14.3268L10.4628 14.7791C11.0529 15.0572 11.7439 14.8952 12.1636 14.4178L11.788 14.0877L11.4125 13.7576C11.2759 13.913 11.061 13.9556 10.889 13.8745L10.6759 14.3268ZM6.00671 13.063L6.4397 13.313C6.54988 13.1222 6.78791 13.0477 6.98722 13.1416L7.20033 12.6893L7.41343 12.237C6.74372 11.9215 5.94394 12.1719 5.57372 12.813L6.00671 13.063ZM3.35551 19.348L3.64061 18.9372C3.45956 18.8115 3.40508 18.5681 3.51528 18.3772L3.08229 18.1272L2.6493 17.8772C2.279 18.5184 2.46208 19.3365 3.0704 19.7587L3.35551 19.348ZM6.85536 22.6184L7.32897 22.7787C7.53282 22.1764 7.32774 21.4965 6.7914 21.1242L6.50629 21.5349L6.22119 21.9457C6.3775 22.0542 6.44821 22.2618 6.38175 22.4581L6.85536 22.6184ZM5.17122 26.5274L5.21278 27.0256C5.8639 26.9713 6.3818 26.4842 6.50573 25.8599L6.0153 25.7626L5.52487 25.6652C5.4845 25.8686 5.31944 26.0133 5.12966 26.0291L5.17122 26.5274ZM0.5 27.7669H1C1 27.5465 1.1689 27.3629 1.3885 27.3446L1.34694 26.8463L1.30537 26.3481C0.56752 26.4096 0 27.0265 0 27.7669H0.5ZM1.3471 34.5353L1.38857 34.0371C1.16894 34.0188 1 33.8352 1 33.6148H0.5H0C0 34.3553 0.567668 34.9722 1.30563 35.0336L1.3471 34.5353ZM6.01534 35.6184L6.50576 35.521C6.38178 34.8967 5.86377 34.4095 5.21252 34.3553L5.17105 34.8536L5.12958 35.3519C5.31939 35.3677 5.48451 35.5124 5.52491 35.7158L6.01534 35.6184ZM6.50659 39.845L6.7918 40.2556C7.3279 39.8833 7.53289 39.2035 7.32906 38.6014L6.85545 38.7617L6.38185 38.922C6.44828 39.1182 6.37764 39.3258 6.22139 39.4343L6.50659 39.845ZM3.08303 43.2534L3.51605 43.0035C3.40589 42.8126 3.46035 42.5693 3.64131 42.4436L3.3561 42.0329L3.0709 41.6222C2.46285 42.0445 2.27988 42.8623 2.65001 43.5034L3.08303 43.2534ZM7.20051 48.6912L6.9873 48.239C6.78795 48.333 6.54985 48.2584 6.43966 48.0676L6.00664 48.3176L5.57362 48.5675C5.94387 49.2089 6.74392 49.4593 7.41373 49.1435L7.20051 48.6912ZM11.7872 47.2924L12.1627 46.9623C11.743 46.4847 11.0518 46.3228 10.4615 46.6011L10.6748 47.0533L10.888 47.5056C11.06 47.4245 11.275 47.467 11.4116 47.6225L11.7872 47.2924ZM14.3268 50.705L14.7791 50.9181C15.0572 50.328 14.8953 49.6369 14.4179 49.2173L14.0878 49.5928L13.7576 49.9684C13.913 50.105 13.9556 50.3198 13.8745 50.4919L14.3268 50.705ZM13.0631 55.3741L13.3131 54.9411C13.1223 54.8309 13.0477 54.5929 13.1417 54.3936L12.6893 54.1805L12.237 53.9674C11.9215 54.6371 12.1719 55.4369 12.8131 55.8071L13.0631 55.3741ZM19.3489 58.0252L18.9381 57.7402C18.8124 57.9213 18.569 57.9758 18.3781 57.8656L18.1281 58.2986L17.8781 58.7316C18.5194 59.1019 19.3375 58.9187 19.7597 58.3103L19.3489 58.0252ZM22.6186 54.5255L22.7789 54.0519C22.1765 53.8481 21.4964 54.0532 21.1242 54.5897L21.5349 54.8747L21.9457 55.1598C22.0542 55.0034 22.2619 54.9327 22.4583 54.9992L22.6186 54.5255ZM26.5274 56.2096L27.0256 56.1681C26.9713 55.517 26.4842 54.9991 25.8599 54.8751L25.7626 55.3656L25.6652 55.856C25.8686 55.8964 26.0133 56.0614 26.0291 56.2512L26.5274 56.2096ZM27.7669 60.8818V60.3818C27.5465 60.3818 27.3629 60.2129 27.3446 59.9933L26.8464 60.0349L26.3481 60.0764C26.4096 60.8143 27.0265 61.3818 27.7669 61.3818V60.8818ZM34.5353 60.0347L34.0371 59.9933C34.0188 60.2129 33.8352 60.3818 33.6148 60.3818V60.8818V61.3818C34.3553 61.3818 34.9722 60.8142 35.0336 60.0762L34.5353 60.0347ZM35.6184 55.3655L35.5211 54.8751C34.8967 54.9991 34.4095 55.5171 34.3553 56.1684L34.8536 56.2098L35.3519 56.2513C35.3677 56.0615 35.5124 55.8964 35.7158 55.856L35.6184 55.3655ZM39.8459 54.8746L40.2567 54.5895C39.8844 54.0531 39.2044 53.848 38.6021 54.0519L38.7624 54.5255L38.9227 54.9991C39.1191 54.9326 39.3267 55.0033 39.4352 55.1597L39.8459 54.8746ZM43.2536 58.2987L43.0036 57.8657C42.8128 57.9759 42.5694 57.9214 42.4437 57.7403L42.033 58.0254L41.6222 58.3105C42.0444 58.9188 42.8624 59.1019 43.5036 58.7317L43.2536 58.2987ZM48.6913 54.1814L48.239 54.3945C48.333 54.5939 48.2585 54.832 48.0676 54.9421L48.3176 55.3752L48.5676 55.8082C49.2089 55.438 49.4593 54.638 49.1436 53.9682L48.6913 54.1814ZM47.2923 49.5937L46.9622 49.2182C46.4847 49.6379 46.3228 50.3291 46.601 50.9192L47.0532 50.7061L47.5055 50.4929C47.4244 50.3208 47.4669 50.1059 47.6224 49.9693L47.2923 49.5937ZM50.7061 47.0532L50.9192 46.601C50.329 46.3228 49.6379 46.4847 49.2182 46.9622L49.5937 47.2923L49.9693 47.6224C50.1059 47.4669 50.3208 47.4244 50.4929 47.5055L50.7061 47.0532ZM55.3752 48.3176L54.9421 48.0676C54.832 48.2585 54.5939 48.333 54.3945 48.239L54.1814 48.6913L53.9682 49.1436C54.638 49.4593 55.438 49.2089 55.8082 48.5676L55.3752 48.3176ZM58.0254 42.033L57.7403 42.4437C57.9214 42.5694 57.9759 42.8128 57.8657 43.0036L58.2987 43.2536L58.7317 43.5036C59.1019 42.8624 58.9188 42.0444 58.3105 41.6222L58.0254 42.033ZM54.5255 38.7624L54.0519 38.6021C53.848 39.2044 54.0531 39.8844 54.5895 40.2567L54.8746 39.8459L55.1597 39.4352C55.0033 39.3267 54.9326 39.1191 54.9991 38.9227L54.5255 38.7624ZM56.2098 34.8536L56.1684 34.3553C55.5171 34.4095 54.9991 34.8967 54.8751 35.5211L55.3655 35.6184L55.856 35.7158C55.8964 35.5124 56.0615 35.3677 56.2513 35.3519L56.2098 34.8536ZM60.8818 33.6148H60.3818C60.3818 33.8352 60.2129 34.0188 59.9933 34.0371L60.0347 34.5353L60.0762 35.0336C60.8142 34.9722 61.3818 34.3553 61.3818 33.6148H60.8818ZM60.0349 26.8464L59.9933 27.3446C60.2129 27.3629 60.3818 27.5465 60.3818 27.7669H60.8818H61.3818C61.3818 27.0265 60.8143 26.4096 60.0764 26.3481L60.0349 26.8464ZM55.3656 25.7626L54.8751 25.8599C54.999 26.4842 55.517 26.9713 56.1681 27.0256L56.2096 26.5274L56.2512 26.0291C56.0614 26.0133 55.8964 25.8686 55.856 25.6652L55.3656 25.7626ZM54.8747 21.534L54.5897 21.1232C54.0532 21.4954 53.8481 22.1755 54.0519 22.7779L54.5256 22.6176L54.9992 22.4573C54.9327 22.2609 55.0034 22.0532 55.1598 21.9447L54.8747 21.534ZM58.2986 18.1271L57.8656 18.3771C57.9758 18.568 57.9213 18.8114 57.7402 18.9371L58.0253 19.3479L58.3103 19.7587C58.9187 19.3365 59.1019 18.5184 58.7317 17.8771L58.2986 18.1271ZM54.1815 12.6893L54.3945 13.1416C54.5939 13.0477 54.8319 13.1222 54.942 13.3131L55.3751 13.0631L55.8081 12.8131C55.4379 12.1719 54.6381 11.9214 53.9684 12.2369L54.1815 12.6893ZM49.5929 14.0878L49.2173 14.4179C49.6369 14.8953 50.3279 15.0572 50.918 14.7792L50.7049 14.3269L50.4919 13.8746C50.3198 13.9556 50.105 13.9131 49.9684 13.7577L49.5929 14.0878ZM47.0534 10.6747L46.6012 10.4615C46.3228 11.0517 46.4847 11.743 46.9623 12.1628L47.2924 11.7872L47.6225 11.4117C47.467 11.275 47.4245 11.06 47.5056 10.888L47.0534 10.6747ZM48.3185 6.00563L48.0685 6.43865C48.2593 6.54884 48.3339 6.78697 48.2399 6.98632L48.6921 7.19957L49.1443 7.41283C49.4602 6.743 49.2098 5.94288 48.5685 5.57261L48.3185 6.00563ZM42.0339 3.35525L42.4446 3.64041C42.5703 3.45942 42.8137 3.40495 43.0045 3.51512L43.2545 3.0821L43.5045 2.64908C42.8633 2.27892 42.0454 2.46195 41.6232 3.07009L42.0339 3.35525ZM38.7625 6.85542L38.6022 7.32902C39.2045 7.53285 39.8844 7.32783 40.2566 6.79163L39.8459 6.50647L39.4352 6.2213C39.3267 6.37758 39.1191 6.44825 38.9228 6.38181L38.7625 6.85542ZM35.6184 6.01532L35.7158 5.52489C35.5124 5.4845 35.3677 5.31939 35.3519 5.12958L34.8536 5.17105L34.3553 5.21252C34.4095 5.86376 34.8967 6.3818 35.5211 6.50575L35.6184 6.01532Z" fill="black"></path></svg> 