<?xml version="1.0" encoding="UTF-8"?> <svg xmlns="http://www.w3.org/2000/svg" width="1440" height="670" viewBox="0 0 1440 670" fill="none"><g opacity="0.3"><path d="M30 18.995V19.995H10V18.995H30Z" fill="black"></path><path d="M21.005 30H20.005L20.005 10L21.005 10L21.005 30Z" fill="black"></path><line x1="40" y1="19.5" x2="350" y2="19.5" stroke="#CCCCCC"></line><path d="M380 18.995V19.995H360V18.995H380Z" fill="black"></path><path d="M371.005 30H370.005L370.005 10L371.005 10L371.005 30Z" fill="black"></path><line x1="390" y1="19.5" x2="700" y2="19.5" stroke="#CCCCCC"></line><path d="M730 18.995V19.995H710V18.995H730Z" fill="black"></path><path d="M721.005 30H720.005L720.005 10L721.005 10L721.005 30Z" fill="black"></path><line x1="740" y1="19.5" x2="1050" y2="19.5" stroke="#CCCCCC"></line><path d="M1080 18.995V19.995H1060V18.995H1080Z" fill="black"></path><path d="M1071.01 30H1070.01L1070.01 10L1071.01 10L1071.01 30Z" fill="black"></path><line x1="1090" y1="19.5" x2="1400" y2="19.5" stroke="#CCCCCC"></line><path d="M1430 18.995V19.995H1410V18.995H1430Z" fill="black"></path><path d="M1421.01 30H1420.01L1420.01 10L1421.01 10L1421.01 30Z" fill="black"></path></g><g opacity="0.11"><rect x="20" y="50" width="1" height="150" fill="black"></rect><rect x="369.75" y="50" width="1" height="150" fill="black"></rect><rect x="719.5" y="50" width="1" height="150" fill="black"></rect><rect x="1069.25" y="50" width="1" height="150" fill="black"></rect><rect x="1419" y="50" width="1" height="150" fill="black"></rect></g><g opacity="0.3"><path d="M30 228.995V229.995H10V228.995H30Z" fill="black"></path><path d="M21.005 240H20.005L20.005 220L21.005 220L21.005 240Z" fill="black"></path><line x1="40" y1="229.5" x2="350" y2="229.5" stroke="#CCCCCC"></line><path d="M380 228.995V229.995H360V228.995H380Z" fill="black"></path><path d="M371.005 240H370.005L370.005 220L371.005 220L371.005 240Z" fill="black"></path><line x1="390" y1="229.5" x2="700" y2="229.5" stroke="#CCCCCC"></line><path d="M730 228.995V229.995H710V228.995H730Z" fill="black"></path><path d="M721.005 240H720.005L720.005 220L721.005 220L721.005 240Z" fill="black"></path><line x1="740" y1="229.5" x2="1050" y2="229.5" stroke="#CCCCCC"></line><path d="M1080 228.995V229.995H1060V228.995H1080Z" fill="black"></path><path d="M1071.01 240H1070.01L1070.01 220L1071.01 220L1071.01 240Z" fill="black"></path><line x1="1090" y1="229.5" x2="1400" y2="229.5" stroke="#CCCCCC"></line><path d="M1430 228.995V229.995H1410V228.995H1430Z" fill="black"></path><path d="M1421.01 240H1420.01L1420.01 220L1421.01 220L1421.01 240Z" fill="black"></path></g><g opacity="0.11"><rect x="20" y="260" width="1" height="150" fill="black"></rect><rect x="369.75" y="260" width="1" height="150" fill="black"></rect><rect x="719.5" y="260" width="1" height="150" fill="black"></rect><rect x="1069.25" y="260" width="1" height="150" fill="black"></rect><rect x="1419" y="260" width="1" height="150" fill="black"></rect></g><g opacity="0.3"><path d="M30 438.995V439.995H10V438.995H30Z" fill="black"></path><path d="M21.005 450H20.005L20.005 430L21.005 430L21.005 450Z" fill="black"></path><line x1="40" y1="439.5" x2="350" y2="439.5" stroke="#CCCCCC"></line><path d="M380 438.995V439.995H360V438.995H380Z" fill="black"></path><path d="M371.005 450H370.005L370.005 430L371.005 430L371.005 450Z" fill="black"></path><line x1="390" y1="439.5" x2="700" y2="439.5" stroke="#CCCCCC"></line><path d="M730 438.995V439.995H710V438.995H730Z" fill="black"></path><path d="M721.005 450H720.005L720.005 430L721.005 430L721.005 450Z" fill="black"></path><line x1="740" y1="439.5" x2="1050" y2="439.5" stroke="#CCCCCC"></line><path d="M1080 438.995V439.995H1060V438.995H1080Z" fill="black"></path><path d="M1071.01 450H1070.01L1070.01 430L1071.01 430L1071.01 450Z" fill="black"></path><line x1="1090" y1="439.5" x2="1400" y2="439.5" stroke="#CCCCCC"></line><path d="M1430 438.995V439.995H1410V438.995H1430Z" fill="black"></path><path d="M1421.01 450H1420.01L1420.01 430L1421.01 430L1421.01 450Z" fill="black"></path></g><g opacity="0.11"><rect x="20" y="470" width="1" height="150" fill="black"></rect><rect x="369.75" y="470" width="1" height="150" fill="black"></rect><rect x="719.5" y="470" width="1" height="150" fill="black"></rect><rect x="1069.25" y="470" width="1" height="150" fill="black"></rect><rect x="1419" y="470" width="1" height="150" fill="black"></rect></g><g opacity="0.3"><path d="M30 648.995V649.995H10V648.995H30Z" fill="black"></path><path d="M21.005 660H20.005L20.005 640L21.005 640L21.005 660Z" fill="black"></path><line x1="40" y1="649.5" x2="350" y2="649.5" stroke="#CCCCCC"></line><path d="M380 648.995V649.995H360V648.995H380Z" fill="black"></path><path d="M371.005 660H370.005L370.005 640L371.005 640L371.005 660Z" fill="black"></path><line x1="390" y1="649.5" x2="700" y2="649.5" stroke="#CCCCCC"></line><path d="M730 648.995V649.995H710V648.995H730Z" fill="black"></path><path d="M721.005 660H720.005L720.005 640L721.005 640L721.005 660Z" fill="black"></path><line x1="740" y1="649.5" x2="1050" y2="649.5" stroke="#CCCCCC"></line><path d="M1080 648.995V649.995H1060V648.995H1080Z" fill="black"></path><path d="M1071.01 660H1070.01L1070.01 640L1071.01 640L1071.01 660Z" fill="black"></path><line x1="1090" y1="649.5" x2="1400" y2="649.5" stroke="#CCCCCC"></line><path d="M1430 648.995V649.995H1410V648.995H1430Z" fill="black"></path><path d="M1421.01 660H1420.01L1420.01 640L1421.01 640L1421.01 660Z" fill="black"></path></g></svg> 