<?xml version="1.0" encoding="UTF-8"?> <svg xmlns="http://www.w3.org/2000/svg" viewBox="0 0 226.00 226.00" data-guides="{&quot;vertical&quot;:[],&quot;horizontal&quot;:[]}"><defs></defs><path fill="black" stroke="none" fill-opacity="1" stroke-width="1" stroke-opacity="1" id="tSvg10241636b55" title="Path 1" d="M112.7648 45.305C112.7648 45.1843 112.7648 45.0635 112.7648 44.9428C112.7648 44.9428 112.7648 44.9428 112.7648 44.9428C112.7648 45.0635 112.7648 45.1843 112.7648 45.305ZM45.305 112.7648C45.1843 112.7648 45.0635 112.7648 44.9428 112.7648C44.9428 112.7648 44.9428 112.7648 44.9428 112.7648C45.0635 112.7648 45.1843 112.7648 45.305 112.7648ZM112.7648 180.2249C112.7648 180.3456 112.7648 180.4663 112.7648 180.587C112.7648 180.587 112.7648 180.587 112.7648 180.587C112.7648 180.4663 112.7648 180.3456 112.7648 180.2249ZM180.2249 112.7648C180.3456 112.7648 180.4663 112.7648 180.587 112.7648C180.587 112.7648 180.587 112.7648 180.587 112.7648C180.4663 112.7648 180.3456 112.7648 180.2249 112.7648ZM127.0777 3.5157C127.1981 3.5056 127.3185 3.4956 127.4389 3.4856ZM98.452 3.5155C98.3316 3.5055 98.2112 3.4954 98.0908 3.4854ZM94.4178 20.8919C94.4413 21.0103 94.4648 21.1287 94.4883 21.2471ZM97.265 17.749C97.3854 17.759 97.5058 17.769 97.6262 17.7791ZM82.7083 24.0235C82.7471 24.1378 82.7859 24.2521 82.8247 24.3665ZM65.9886 9.9774C65.9283 9.8728 65.8679 9.7683 65.8075 9.6637ZM70.5337 10.9948C70.6329 10.926 70.732 10.8571 70.8312 10.7883ZM45.7424 25.3076C45.8516 25.2561 45.9609 25.2046 46.0701 25.1532ZM47.1338 20.8631C47.0734 20.7585 47.0131 20.654 46.9527 20.5494ZM50.9509 42.3877C51.0306 42.4784 51.1103 42.5691 51.19 42.6598C51.19 42.6598 51.19 42.6598 51.19 42.6598C51.1103 42.5691 51.0306 42.4784 50.9509 42.3877ZM51.8409 38.2466C51.7316 38.2981 51.6223 38.3495 51.513 38.401ZM38.2461 51.8409C38.2976 51.7318 38.349 51.6226 38.4005 51.5135ZM42.3873 50.9514C42.478 51.0311 42.5686 51.1108 42.6593 51.1904ZM25.3076 45.743C25.3591 45.6338 25.4105 45.5245 25.462 45.4153ZM10.9948 70.5337C10.926 70.633 10.8571 70.7324 10.7883 70.8317ZM9.9774 65.9891C9.8728 65.9287 9.7683 65.8684 9.6637 65.808ZM24.0235 82.7088C23.9091 82.6701 23.7948 82.6315 23.6805 82.5929ZM22.724 78.6746C22.7929 78.5754 22.8617 78.4762 22.9305 78.3771ZM17.7495 97.265C17.7595 97.3854 17.7695 97.5058 17.7795 97.6262ZM20.8923 94.4178C20.7739 94.3943 20.6555 94.3708 20.5371 94.3473ZM3.5155 98.452C3.5055 98.3316 3.4955 98.2112 3.4854 98.0908ZM3.5158 127.0777C3.5057 127.1981 3.4957 127.3185 3.4857 127.4389ZM20.8923 131.1109C20.7739 131.1344 20.6555 131.1579 20.5371 131.1814ZM17.7492 128.2632C17.7392 128.3836 17.7292 128.504 17.7191 128.6244C17.7191 128.6244 17.7191 128.6244 17.7191 128.6244C17.7292 128.504 17.7392 128.3836 17.7492 128.2632ZM22.7232 146.8522C22.6544 146.753 22.5856 146.6539 22.5167 146.5547ZM24.0227 142.8185C24.137 142.7797 24.2514 142.7409 24.3657 142.7021ZM9.9788 159.5367C9.8742 159.597 9.7697 159.6574 9.6651 159.7178ZM25.3095 179.7835C25.2581 179.6742 25.2066 179.5649 25.1551 179.4556ZM20.8649 178.3922C20.7603 178.4526 20.6557 178.513 20.5512 178.5733ZM42.3855 174.5763C42.4762 174.4965 42.5669 174.4166 42.6575 174.3368ZM38.244 173.6863C38.2955 173.7954 38.347 173.9046 38.3985 174.0137ZM51.8414 187.2825C51.7321 187.2312 51.6228 187.1798 51.5135 187.1285ZM47.1361 204.6623C47.0757 204.7669 47.0153 204.8716 46.955 204.9762ZM45.7448 200.2181C45.854 200.2696 45.9632 200.3212 46.0724 200.3727ZM70.5357 214.531C70.4365 214.4622 70.3373 214.3935 70.2382 214.3248ZM65.991 215.5485C65.9307 215.6531 65.8703 215.7577 65.8099 215.8624ZM82.7083 201.5056C82.6696 201.6198 82.631 201.7341 82.5924 201.8484ZM97.2655 207.78C97.3859 207.77 97.5063 207.76 97.6267 207.75ZM94.4183 204.6372C94.4418 204.5187 94.4653 204.4003 94.4888 204.2818ZM98.452 222.0136C98.5722 222.0036 98.6925 221.9937 98.8127 221.9837ZM127.0777 222.0136C127.1981 222.0236 127.3185 222.0336 127.4389 222.0436ZM131.1109 204.6372C131.0874 204.5187 131.0639 204.4003 131.0404 204.2818C131.0404 204.2818 131.0404 204.2818 131.0404 204.2818C131.0639 204.4003 131.0874 204.5187 131.1109 204.6372ZM128.2632 207.78C128.143 207.77 128.0227 207.76 127.9025 207.75ZM146.8522 202.8055C146.9513 202.7368 147.0505 202.6681 147.1497 202.5993ZM142.8185 201.506C142.7797 201.3918 142.7409 201.2775 142.7021 201.1632ZM154.9916 214.5329C154.8924 214.6016 154.7933 214.6704 154.6941 214.7391ZM179.783 200.2196C179.6739 200.2711 179.5647 200.3226 179.4556 200.3741ZM178.3917 204.6642C178.4521 204.7689 178.5125 204.8735 178.5728 204.9781ZM174.5758 183.1435C174.6557 183.2342 174.7355 183.3248 174.8153 183.4154ZM173.6858 187.2849C173.5767 187.3363 173.4676 187.3876 173.3584 187.439ZM187.2845 173.6863C187.3358 173.5772 187.3872 173.468 187.4385 173.3589ZM183.1431 174.5763C183.2337 174.656 183.3243 174.7357 183.4149 174.8153ZM204.6642 178.3922C204.5598 178.3319 204.4553 178.2715 204.3508 178.2111ZM200.2201 179.7835C200.2714 179.6743 200.3228 179.5652 200.3741 179.4561ZM214.5329 154.9921C214.6016 154.8929 214.6704 154.7937 214.7391 154.6946ZM215.5499 159.5367C215.6545 159.597 215.7592 159.6574 215.8638 159.7178ZM202.8055 146.8527C202.7368 146.9518 202.6681 147.051 202.5993 147.1501ZM207.78 128.2637C207.7899 128.3841 207.7999 128.5045 207.8099 128.6249ZM204.6372 131.1114C204.5187 131.0879 204.4003 131.0644 204.2818 131.0409ZM222.0136 127.0777C222.0236 127.1981 222.0336 127.3185 222.0436 127.4389ZM222.0136 98.452C222.0238 98.3316 222.0339 98.2112 222.044 98.0908ZM204.6372 94.4178C204.5187 94.4413 204.4003 94.4648 204.2818 94.4883ZM207.78 97.265C207.77 97.3854 207.76 97.5058 207.75 97.6262ZM202.8051 78.6746C202.8738 78.7739 202.9425 78.8732 203.0113 78.9725ZM215.5518 65.9891C215.4474 66.0495 215.3429 66.1098 215.2384 66.1702ZM214.5344 70.5342C214.6033 70.6334 214.6722 70.7325 214.741 70.8317ZM200.2215 45.7429C200.2729 45.8521 200.3242 45.9613 200.3756 46.0705ZM204.6657 47.1342C204.7703 47.0739 204.875 47.0135 204.9796 46.9531ZM183.1416 50.9514C183.2322 50.8716 183.3229 50.7917 183.4135 50.7119ZM187.283 51.8409C187.2315 51.7318 187.18 51.6226 187.1285 51.5135ZM173.6858 38.2446C173.7951 38.296 173.9044 38.3475 174.0137 38.3989ZM179.7849 25.3062C179.6756 25.2547 179.5663 25.2032 179.457 25.1518ZM154.994 10.9929C154.8948 10.9241 154.7957 10.8552 154.6965 10.7864ZM142.8185 24.0226C142.7797 24.137 142.7409 24.2513 142.7021 24.3656ZM146.8522 22.7232C146.9513 22.792 147.0505 22.8608 147.1497 22.9297ZM131.1114 20.8919C131.0879 21.0103 131.0644 21.1288 131.0409 21.2472ZM131.1114 20.8919C131.0879 21.0103 131.0644 21.1288 131.0409 21.2472C135.0253 22.0386 138.918 23.0843 142.7021 24.3656C142.7409 24.2513 142.7797 24.137 142.8185 24.0226C142.8571 23.9083 142.8957 23.7939 142.9344 23.6796C139.1209 22.3882 135.1973 21.3344 131.1819 20.5367C131.1584 20.6551 131.1349 20.7735 131.1114 20.8919ZM146.8522 22.7232C146.9513 22.792 147.0505 22.8608 147.1497 22.9297C149.8636 19.0196 152.5775 15.1095 155.2915 11.1994C155.1923 11.1306 155.0931 11.0618 154.994 10.9929C154.8948 10.9241 154.7957 10.8552 154.6965 10.7864C151.9826 14.6965 149.2687 18.6066 146.5547 22.5167C146.6539 22.5855 146.753 22.6543 146.8522 22.7232ZM159.5386 9.9755C159.4783 10.0801 159.4179 10.1846 159.3575 10.2892C165.6425 13.9179 171.9276 17.5465 178.2126 21.1752C178.273 21.0707 178.3333 20.9661 178.3937 20.8616C178.454 20.757 178.5144 20.6525 178.5748 20.5479C172.2897 16.9192 166.0047 13.2906 159.7197 9.6619C159.6593 9.7664 159.599 9.871 159.5386 9.9755ZM179.7849 25.3062C179.6756 25.2547 179.5663 25.2032 179.457 25.1518C177.4242 29.4646 175.3913 33.7773 173.3584 38.0901C173.4676 38.1416 173.5767 38.1931 173.6858 38.2446C173.7951 38.296 173.9044 38.3475 174.0137 38.3989C176.0466 34.0862 178.0795 29.7734 180.1123 25.4606C180.0032 25.4092 179.8941 25.3577 179.7849 25.3062ZM174.5758 42.386C174.4961 42.4766 174.4165 42.5673 174.3368 42.658C177.3607 45.3159 180.2113 48.1664 182.8697 51.1904C182.9604 51.1108 183.051 51.0311 183.1416 50.9514C183.2322 50.8716 183.3229 50.7917 183.4135 50.7119C180.7348 47.6648 177.8625 44.7924 174.8153 42.1139C174.7355 42.2046 174.6557 42.2953 174.5758 42.386ZM187.283 51.8409C187.3344 51.9502 187.3857 52.0595 187.4371 52.1688C191.7499 50.1361 196.0627 48.1033 200.3756 46.0705C200.3242 45.9613 200.2729 45.8521 200.2215 45.7429C200.17 45.6337 200.1185 45.5245 200.067 45.4153C195.7541 47.4481 191.4413 49.4808 187.1285 51.5135C187.18 51.6226 187.2315 51.7318 187.283 51.8409ZM204.6657 47.1342C204.5612 47.1946 204.4568 47.255 204.3523 47.3153C207.981 53.6003 211.6097 59.8852 215.2384 66.1702C215.3429 66.1098 215.4474 66.0495 215.5518 65.9891C215.6565 65.9287 215.7611 65.8684 215.8657 65.808C212.237 59.5231 208.6083 53.2381 204.9796 46.9531C204.875 47.0135 204.7703 47.0739 204.6657 47.1342ZM214.5344 70.5342C214.4656 70.4349 214.3969 70.3356 214.3282 70.2363C210.4182 72.9499 206.5083 75.6635 202.5984 78.3771C202.6673 78.4762 202.7362 78.5754 202.8051 78.6746C202.8738 78.7739 202.9425 78.8732 203.0113 78.9725C206.9212 76.2589 210.8311 73.5453 214.741 70.8317C214.6722 70.7325 214.6033 70.6334 214.5344 70.5342ZM201.5056 82.7088C201.3911 82.7475 201.2767 82.7863 201.1622 82.8251C202.4443 86.6097 203.4903 90.5033 204.2818 94.4883C204.4003 94.4648 204.5187 94.4413 204.6372 94.4178C204.7555 94.3943 204.8738 94.3708 204.9921 94.3473C204.1944 90.3309 203.1402 86.4069 201.8484 82.5929C201.7341 82.6315 201.6198 82.6701 201.5056 82.7088ZM207.78 97.265C207.77 97.3854 207.76 97.5058 207.75 97.6262C212.4946 98.0217 217.2391 98.4172 221.9837 98.8127C221.9937 98.6925 222.0036 98.5722 222.0136 98.452C222.0238 98.3316 222.0339 98.2112 222.044 98.0908C217.2993 97.6953 212.5546 97.2998 207.8099 96.9043C207.7999 97.0245 207.7899 97.1447 207.78 97.265ZM225.167 101.8792C225.0463 101.8792 224.9255 101.8792 224.8048 101.8792C224.8048 109.1364 224.8048 116.3937 224.8048 123.651C224.9255 123.651 225.0463 123.651 225.167 123.651C225.2877 123.651 225.4084 123.651 225.5292 123.651C225.5292 116.3937 225.5292 109.1364 225.5292 101.8792C225.4084 101.8792 225.2877 101.8792 225.167 101.8792ZM222.0136 127.0777C222.0036 126.9574 221.9937 126.8372 221.9837 126.7169C217.2391 127.1123 212.4946 127.5076 207.75 127.903C207.76 128.0232 207.77 128.1434 207.78 128.2637C207.7899 128.3841 207.7999 128.5045 207.8099 128.6249C212.5544 128.2296 217.299 127.8342 222.0436 127.4389C222.0336 127.3185 222.0236 127.1981 222.0136 127.0777ZM204.6372 131.1114C204.5187 131.0879 204.4003 131.0644 204.2818 131.0409C203.4903 135.0253 202.4448 138.918 201.1632 142.7026C201.2775 142.7414 201.3918 142.7802 201.506 142.819C201.6205 142.8576 201.7349 142.8962 201.8494 142.9349C203.1407 139.1209 204.1944 135.1977 204.9921 131.1819C204.8738 131.1584 204.7555 131.1349 204.6372 131.1114ZM202.8055 146.8527C202.7368 146.9518 202.6681 147.051 202.5993 147.1501C206.5083 149.8633 210.4173 152.5764 214.3262 155.2895C214.3951 155.1904 214.464 155.0912 214.5329 154.9921C214.6016 154.8929 214.6704 154.7937 214.7391 154.6946C210.8302 151.9815 206.9212 149.2683 203.0122 146.5552C202.9433 146.6544 202.8744 146.7535 202.8055 146.8527ZM215.5499 159.5367C215.4454 159.4763 215.341 159.416 215.2365 159.3556C211.608 165.6408 207.9794 171.926 204.3508 178.2111C204.4553 178.2715 204.5598 178.3319 204.6642 178.3922C204.7689 178.4526 204.8735 178.513 204.9781 178.5733C208.6067 172.2881 212.2352 166.003 215.8638 159.7178C215.7592 159.6574 215.6545 159.597 215.5499 159.5367ZM200.2201 179.7835C200.2714 179.6743 200.3228 179.5652 200.3741 179.4561C196.0622 177.4237 191.7504 175.3913 187.4385 173.3589C187.3872 173.468 187.3358 173.5772 187.2845 173.6863C187.233 173.7956 187.1814 173.9049 187.1299 174.0142C191.4418 176.0464 195.7537 178.0787 200.0655 180.1109C200.117 180.0018 200.1686 179.8926 200.2201 179.7835ZM183.1431 174.5763C183.0524 174.4966 182.9618 174.4169 182.8712 174.3373C180.2123 177.3617 177.3612 180.2128 174.3368 182.8712C174.4165 182.962 174.4961 183.0528 174.5758 183.1435C174.6557 183.2342 174.7355 183.3248 174.8153 183.4154C177.863 180.7363 180.7363 177.8634 183.4149 174.8153C183.3243 174.7357 183.2337 174.656 183.1431 174.5763ZM173.6858 187.2849C173.5767 187.3363 173.4676 187.3876 173.3584 187.439C175.3908 191.7507 177.4232 196.0624 179.4556 200.3741C179.5647 200.3226 179.6739 200.2711 179.783 200.2196C179.8921 200.1682 180.0013 200.1169 180.1104 200.0655C178.0782 195.7538 176.046 191.4421 174.0137 187.1304C173.9044 187.1819 173.7951 187.2334 173.6858 187.2849ZM178.3917 204.6642C178.3314 204.5598 178.271 204.4553 178.2107 204.3508C171.9255 207.9794 165.6403 211.608 159.3551 215.2365C159.4155 215.341 159.4758 215.4454 159.5362 215.5499C159.5966 215.6545 159.6569 215.7592 159.7173 215.8638C166.0025 212.2352 172.2877 208.6067 178.5728 204.9781C178.5125 204.8735 178.4521 204.7689 178.3917 204.6642ZM154.9916 214.5329C155.0907 214.464 155.1899 214.3951 155.289 214.3262C152.5759 210.4173 149.8628 206.5083 147.1497 202.5993C147.0505 202.6681 146.9513 202.7368 146.8522 202.8055C146.753 202.8744 146.6539 202.9433 146.5547 203.0122C149.2678 206.9212 151.981 210.8302 154.6941 214.7391C154.7933 214.6704 154.8924 214.6016 154.9916 214.5329ZM142.8185 201.506C142.7797 201.3918 142.7409 201.2775 142.7021 201.1632C138.918 202.4448 135.0249 203.4903 131.0404 204.2818C131.0639 204.4003 131.0874 204.5187 131.1109 204.6372C131.1344 204.7555 131.1579 204.8738 131.1814 204.9921C135.1973 204.1944 139.1204 203.1407 142.9344 201.8494C142.8957 201.7349 142.8571 201.6205 142.8185 201.506ZM128.2632 207.78C128.143 207.77 128.0227 207.76 127.9025 207.75C127.5073 212.4946 127.1121 217.2391 126.7169 221.9837C126.8372 221.9937 126.9574 222.0036 127.0777 222.0136C127.1981 222.0236 127.3185 222.0336 127.4389 222.0436C127.8341 217.2992 128.2292 212.5548 128.6244 207.8104C128.504 207.8002 128.3836 207.7901 128.2632 207.78ZM123.6505 225.167C123.6505 225.0463 123.6505 224.9255 123.6505 224.8048C116.3934 224.8048 109.1363 224.8048 101.8792 224.8048C101.8792 224.9255 101.8792 225.0463 101.8792 225.167C101.8792 225.2877 101.8792 225.4084 101.8792 225.5292C109.1363 225.5292 116.3934 225.5292 123.6505 225.5292C123.6505 225.4084 123.6505 225.2877 123.6505 225.167ZM98.452 222.0136C98.5722 222.0036 98.6925 221.9937 98.8127 221.9837C98.4174 217.2391 98.022 212.4946 97.6267 207.75C97.5063 207.76 97.3859 207.77 97.2655 207.78C97.1452 207.7899 97.025 207.7999 96.9047 207.8099C97.3001 212.5546 97.6954 217.2993 98.0908 222.044C98.2112 222.0339 98.3316 222.0238 98.452 222.0136ZM94.4183 204.6372C94.4418 204.5187 94.4653 204.4003 94.4888 204.2818C90.5033 203.4903 86.6097 202.4443 82.8247 201.1622C82.7859 201.2767 82.7471 201.3911 82.7083 201.5056C82.6696 201.6198 82.631 201.7341 82.5924 201.8484C86.4069 203.1402 90.3309 204.1944 94.3478 204.9921C94.3713 204.8738 94.3948 204.7555 94.4183 204.6372ZM78.6741 202.8051C78.5749 202.7362 78.4758 202.6673 78.3766 202.5984C75.6638 206.5072 72.951 210.416 70.2382 214.3248C70.3373 214.3935 70.4365 214.4622 70.5357 214.531C70.635 214.5999 70.7343 214.6688 70.8336 214.7377C73.5464 210.8289 76.2592 206.9201 78.972 203.0113C78.8727 202.9425 78.7734 202.8738 78.6741 202.8051ZM65.991 215.5485C66.0514 215.444 66.1118 215.3395 66.1721 215.2351C59.8871 211.6063 53.6021 207.9776 47.3172 204.3489C47.2568 204.4534 47.1964 204.5578 47.1361 204.6623C47.0757 204.7669 47.0153 204.8716 46.955 204.9762C53.24 208.6049 59.525 212.2336 65.8099 215.8624C65.8703 215.7577 65.9307 215.6531 65.991 215.5485ZM45.7448 200.2181C45.854 200.2696 45.9632 200.3212 46.0724 200.3727C48.1045 196.0608 50.1367 191.7489 52.1688 187.4371C52.0597 187.3855 51.9505 187.334 51.8414 187.2825C51.7321 187.2312 51.6228 187.1798 51.5135 187.1285C49.4814 191.4402 47.4493 195.7519 45.4172 200.0636C45.5264 200.1151 45.6356 200.1666 45.7448 200.2181ZM50.9514 183.1416C51.0311 183.051 51.1108 182.9604 51.1904 182.8697C48.1663 180.2113 45.3156 177.3612 42.6575 174.3368C42.5669 174.4166 42.4762 174.4965 42.3855 174.5763C42.2949 174.656 42.2042 174.7357 42.1135 174.8153C44.7921 177.8625 47.6647 180.7353 50.7119 183.4135C50.7917 183.3229 50.8716 183.2322 50.9514 183.1416ZM38.244 173.6863C38.1926 173.577 38.1411 173.4677 38.0896 173.3584C33.7781 175.3908 29.4666 177.4232 25.1551 179.4556C25.2066 179.5649 25.2581 179.6742 25.3095 179.7835C25.361 179.8926 25.4125 180.0018 25.464 180.1109C29.7755 178.0785 34.087 176.0461 38.3985 174.0137C38.347 173.9046 38.2955 173.7954 38.244 173.6863ZM20.8649 178.3922C20.9694 178.3319 21.074 178.2715 21.1785 178.2111C17.5498 171.926 13.9211 165.6408 10.2924 159.3556C10.1879 159.416 10.0833 159.4763 9.9788 159.5367C9.8742 159.597 9.7697 159.6574 9.6651 159.7178C13.2938 166.003 16.9225 172.2881 20.5512 178.5733C20.6557 178.513 20.7603 178.4526 20.8649 178.3922ZM10.9961 154.9921C11.065 155.0912 11.1338 155.1904 11.2026 155.2895C15.1117 152.5762 19.0207 149.863 22.9298 147.1497C22.8609 147.0505 22.7921 146.9513 22.7232 146.8522C22.6544 146.753 22.5856 146.6539 22.5167 146.5547C18.6077 149.268 14.6987 151.9813 10.7896 154.6946C10.8584 154.7937 10.9273 154.8929 10.9961 154.9921ZM24.0227 142.8185C24.137 142.7797 24.2514 142.7409 24.3657 142.7021C23.0844 138.918 22.039 135.0249 21.2476 131.0404C21.1292 131.0639 21.0108 131.0874 20.8923 131.1109C20.7739 131.1344 20.6555 131.1579 20.5371 131.1814C21.3347 135.1973 22.3883 139.1204 23.6796 142.9344C23.794 142.8957 23.9083 142.8571 24.0227 142.8185ZM17.7492 128.2632C17.7592 128.143 17.7693 128.0227 17.7793 127.9025C13.0348 127.5073 8.2903 127.1121 3.5458 126.7169C3.5358 126.8372 3.5258 126.9574 3.5158 127.0777C3.5057 127.1981 3.4957 127.3185 3.4857 127.4389C8.2302 127.8341 12.9746 128.2292 17.7191 128.6244C17.7292 128.504 17.7392 128.3836 17.7492 128.2632ZM0.3622 123.6505C0.4829 123.6505 0.6036 123.6505 0.7244 123.6505C0.7244 116.3934 0.7244 109.1363 0.7244 101.8792C0.6036 101.8792 0.4829 101.8792 0.3622 101.8792C0.2415 101.8792 0.1207 101.8792 0 101.8792C0 109.1363 0 116.3934 0 123.6505C0.1207 123.6505 0.2415 123.6505 0.3622 123.6505ZM3.5155 98.452C3.5255 98.5722 3.5356 98.6925 3.5456 98.8127C8.2902 98.4172 13.0349 98.0217 17.7795 97.6262C17.7695 97.5058 17.7595 97.3854 17.7495 97.265C17.7394 97.1447 17.7294 97.0245 17.7194 96.9043C12.9747 97.2998 8.2301 97.6953 3.4854 98.0908C3.4955 98.2112 3.5055 98.3316 3.5155 98.452ZM20.8923 94.4178C21.0108 94.4413 21.1292 94.4648 21.2476 94.4883C22.0392 90.5033 23.0849 86.6097 24.3665 82.8251C24.2522 82.7863 24.1378 82.7475 24.0235 82.7088C23.9091 82.6701 23.7948 82.6315 23.6805 82.5929C22.3888 86.4069 21.3349 90.3309 20.5371 94.3473C20.6555 94.3708 20.7739 94.3943 20.8923 94.4178ZM22.724 78.6746C22.7929 78.5754 22.8617 78.4762 22.9305 78.3771C19.0208 75.6635 15.111 72.9499 11.2013 70.2363C11.1325 70.3354 11.0636 70.4346 10.9948 70.5337C10.926 70.633 10.8571 70.7324 10.7883 70.8317C14.698 73.5453 18.6078 76.2589 22.5175 78.9725C22.5863 78.8732 22.6552 78.7739 22.724 78.6746ZM9.9774 65.9891C10.0819 66.0495 10.1865 66.1098 10.291 66.1702C13.9196 59.8853 17.5482 53.6003 21.1767 47.3154C21.0722 47.255 20.9676 47.1946 20.8631 47.1343C20.7585 47.0739 20.654 47.0136 20.5494 46.9532C16.9208 53.2381 13.2923 59.5231 9.6637 65.808C9.7683 65.8684 9.8728 65.9287 9.9774 65.9891ZM25.3076 45.743C25.2561 45.8522 25.2046 45.9614 25.1532 46.0706C29.466 48.1033 33.7788 50.1361 38.0917 52.1688C38.1431 52.0595 38.1946 51.9502 38.2461 51.8409C38.2976 51.7318 38.349 51.6226 38.4005 51.5135C34.0877 49.4808 29.7748 47.4481 25.462 45.4153C25.4105 45.5245 25.3591 45.6338 25.3076 45.743ZM42.3873 50.9514C42.478 51.0311 42.5686 51.1108 42.6593 51.1904C45.3168 48.1671 48.1666 45.3172 51.19 42.6598C51.1103 42.5691 51.0306 42.4784 50.9509 42.3877C50.8711 42.2971 50.7912 42.2064 50.7114 42.1157C47.6651 44.7937 44.7932 47.6655 42.1152 50.7119C42.2059 50.7917 42.2966 50.8716 42.3873 50.9514ZM51.8409 38.2466C51.9501 38.1951 52.0592 38.1437 52.1683 38.0922C50.1356 33.7792 48.1028 29.4662 46.0701 25.1532C45.9609 25.2046 45.8516 25.2561 45.7424 25.3076C45.6332 25.359 45.524 25.4105 45.4148 25.462C47.4476 29.775 49.4803 34.088 51.513 38.401C51.6223 38.3495 51.7316 38.2981 51.8409 38.2466ZM47.1338 20.8631C47.1942 20.9676 47.2545 21.0722 47.3149 21.1767C53.5998 17.5482 59.8848 13.9196 66.1697 10.291C66.1093 10.1865 66.049 10.0819 65.9886 9.9774C65.9283 9.8728 65.8679 9.7683 65.8075 9.6637C59.5226 13.2923 53.2376 16.9209 46.9527 20.5494C47.0131 20.654 47.0734 20.7585 47.1338 20.8631ZM70.5337 10.9948C70.4344 11.0636 70.3351 11.1325 70.2358 11.2013C72.9494 15.111 75.663 19.0208 78.3766 22.9305C78.4758 22.8617 78.5749 22.7928 78.6741 22.724C78.7734 22.6552 78.8727 22.5863 78.972 22.5175C76.2584 18.6078 73.5448 14.698 70.8312 10.7883C70.732 10.8571 70.6329 10.926 70.5337 10.9948ZM82.7083 24.0235C82.7471 24.1378 82.7859 24.2521 82.8247 24.3665C86.6092 23.0847 90.5029 22.0388 94.4883 21.2471C94.4648 21.1287 94.4413 21.0103 94.4178 20.8919C94.3943 20.7735 94.3708 20.6551 94.3473 20.5367C90.3309 21.3345 86.4069 22.3886 82.5924 23.6804C82.631 23.7948 82.6696 23.9091 82.7083 24.0235ZM97.265 17.749C97.3854 17.759 97.5058 17.769 97.6262 17.7791C98.0217 13.0346 98.4172 8.2901 98.8127 3.5456C98.6925 3.5356 98.5722 3.5255 98.452 3.5155C98.3316 3.5055 98.2112 3.4954 98.0908 3.4854C97.6953 8.2299 97.2998 12.9744 96.9043 17.7189C97.0245 17.7289 97.1447 17.7389 97.265 17.749ZM101.8792 0.3622C101.8792 0.4829 101.8792 0.6036 101.8792 0.7244C109.1364 0.7244 116.3937 0.7244 123.651 0.7244C123.651 0.6036 123.651 0.4829 123.651 0.3622C123.651 0.2415 123.651 0.1207 123.651 0C116.3937 0 109.1364 0 101.8792 0C101.8792 0.1207 101.8792 0.2415 101.8792 0.3622ZM127.0777 3.5157C126.9574 3.5257 126.8372 3.5357 126.7169 3.5457C127.1123 8.2901 127.5076 13.0345 127.903 17.7789C128.0232 17.7689 128.1434 17.7589 128.2637 17.7488C128.3841 17.7388 128.5045 17.7288 128.6249 17.7187C128.2296 12.9744 127.8342 8.23 127.4389 3.4856C127.3185 3.4956 127.1981 3.5056 127.0777 3.5157ZM112.7648 45.305C112.7648 45.1843 112.7648 45.0635 112.7648 44.9428C75.3077 44.9429 44.9429 75.3077 44.9428 112.7648C45.0635 112.7648 45.1843 112.7648 45.305 112.7648C45.4257 112.7648 45.5464 112.7648 45.6672 112.7648C45.6672 75.7076 75.7076 45.6672 112.7648 45.6672C112.7648 45.5464 112.7648 45.4257 112.7648 45.305ZM45.305 112.7648C45.1843 112.7648 45.0635 112.7648 44.9428 112.7648C44.9428 150.2219 75.3077 180.587 112.7648 180.587C112.7648 180.4663 112.7648 180.3456 112.7648 180.2249C112.7648 180.1041 112.7648 179.9834 112.7648 179.8627C75.7076 179.8627 45.6672 149.8216 45.6672 112.7648C45.5464 112.7648 45.4257 112.7648 45.305 112.7648ZM112.7648 180.2249C112.7648 180.3456 112.7648 180.4663 112.7648 180.587C150.2219 180.587 180.587 150.2219 180.587 112.7648C180.4663 112.7648 180.3456 112.7648 180.2249 112.7648C180.1041 112.7648 179.9834 112.7648 179.8627 112.7648C179.8627 149.8216 149.8216 179.8627 112.7648 179.8627C112.7648 179.9834 112.7648 180.1041 112.7648 180.2249ZM180.2249 112.7648C180.3456 112.7648 180.4663 112.7648 180.587 112.7648C180.587 75.3077 150.2219 44.9428 112.7648 44.9428C112.7648 45.0635 112.7648 45.1843 112.7648 45.305C112.7648 45.4257 112.7648 45.5464 112.7648 45.6672C149.8216 45.6672 179.8627 75.7076 179.8627 112.7648C179.9834 112.7648 180.1041 112.7648 180.2249 112.7648ZM123.651 0.3622C123.651 0.4829 123.651 0.6036 123.651 0.7244C125.2508 0.7244 126.5841 1.951 126.7169 3.5457C126.8372 3.5357 126.9574 3.5257 127.0777 3.5157C127.1981 3.5056 127.3185 3.4956 127.4389 3.4856C127.2747 1.5154 125.6275 0 123.651 0C123.651 0.1207 123.651 0.2415 123.651 0.3622ZM98.452 3.5155C98.5722 3.5255 98.6925 3.5356 98.8127 3.5456C98.9455 1.9509 100.2788 0.7244 101.8792 0.7244C101.8792 0.6036 101.8792 0.4829 101.8792 0.3622C101.8792 0.2415 101.8792 0.1207 101.8792 0C99.9021 0 98.2549 1.5153 98.0908 3.4854C98.2112 3.4954 98.3316 3.5055 98.452 3.5155ZM94.4178 20.8919C94.4413 21.0103 94.4648 21.1287 94.4883 21.2471C96.1814 20.9108 97.4818 19.5116 97.6262 17.7791C97.5058 17.769 97.3854 17.759 97.265 17.749C97.1447 17.7389 97.0245 17.7289 96.9043 17.7189C96.7879 19.1172 95.7356 20.2609 94.3473 20.5367C94.3708 20.6551 94.3943 20.7735 94.4178 20.8919ZM78.6741 22.724C78.5749 22.7928 78.4758 22.8617 78.3766 22.9305C79.367 24.3576 81.191 24.9198 82.8247 24.3665C82.7859 24.2521 82.7471 24.1378 82.7083 24.0235C82.6696 23.9091 82.631 23.7948 82.5924 23.6804C81.2528 24.134 79.7712 23.6693 78.972 22.5175C78.8727 22.5863 78.7734 22.6552 78.6741 22.724ZM65.9886 9.9774C66.049 10.0819 66.1093 10.1865 66.1697 10.291C67.5556 9.4909 69.3236 9.8867 70.2358 11.2013C70.3351 11.1325 70.4344 11.0636 70.5337 10.9948C70.6329 10.926 70.732 10.8571 70.8312 10.7883C69.7036 9.1642 67.5199 8.6753 65.8075 9.6637C65.8679 9.7683 65.9283 9.8728 65.9886 9.9774ZM45.7424 25.3076C45.8516 25.2561 45.9609 25.2046 46.0701 25.1532C45.3879 23.7057 45.929 21.9769 47.3149 21.1767C47.2545 21.0722 47.1942 20.9676 47.1338 20.8631C47.0734 20.7585 47.0131 20.654 46.9527 20.5494C45.2406 21.5379 44.572 23.6737 45.4148 25.462C45.524 25.4105 45.6332 25.359 45.7424 25.3076ZM50.9509 42.3877C51.0306 42.4784 51.1103 42.5691 51.19 42.6598C52.4846 41.5217 52.9086 39.6625 52.1683 38.0922C52.0592 38.1437 51.9501 38.1951 51.8409 38.2466C51.7316 38.2981 51.6223 38.3495 51.513 38.401C52.1104 39.6685 51.7733 41.1827 50.7114 42.1157C50.7912 42.2064 50.8711 42.2971 50.9509 42.3877ZM38.2461 51.8409C38.1946 51.9502 38.1431 52.0595 38.0917 52.1688C39.662 52.9091 41.5212 52.4851 42.6593 51.1904C42.5686 51.1108 42.478 51.0311 42.3873 50.9514C42.2966 50.8716 42.2059 50.7917 42.1152 50.7119C41.1822 51.7738 39.668 52.1109 38.4005 51.5135C38.349 51.6226 38.2976 51.7318 38.2461 51.8409ZM20.8631 47.1343C20.9676 47.1946 21.0722 47.255 21.1767 47.3154C21.9768 45.9295 23.7057 45.3883 25.1532 46.0706C25.2046 45.9614 25.2561 45.8522 25.3076 45.743C25.3591 45.6338 25.4105 45.5245 25.462 45.4153C23.6737 44.5725 21.5379 45.2411 20.5494 46.9532C20.654 47.0136 20.7585 47.0739 20.8631 47.1343ZM10.9948 70.5337C11.0636 70.4346 11.1325 70.3354 11.2013 70.2363C9.8867 69.3241 9.4909 67.5561 10.291 66.1702C10.1865 66.1098 10.0819 66.0495 9.9774 65.9891C9.8728 65.9287 9.7683 65.8684 9.6637 65.808C8.6753 67.5204 9.1642 69.7041 10.7883 70.8317C10.8571 70.7324 10.926 70.633 10.9948 70.5337ZM24.0235 82.7088C24.1378 82.7475 24.2522 82.7863 24.3665 82.8251C24.9198 81.1915 24.3576 79.3675 22.9305 78.3771C22.8617 78.4762 22.7929 78.5754 22.724 78.6746C22.6552 78.7739 22.5863 78.8732 22.5175 78.9725C23.6693 79.7717 24.1341 81.2528 23.6805 82.5929C23.7948 82.6315 23.9091 82.6701 24.0235 82.7088ZM17.7495 97.265C17.7595 97.3854 17.7695 97.5058 17.7795 97.6262C19.5121 97.4818 20.9113 96.1814 21.2476 94.4883C21.1292 94.4648 21.0108 94.4413 20.8923 94.4178C20.7739 94.3943 20.6555 94.3708 20.5371 94.3473C20.2613 95.7356 19.1177 96.7879 17.7194 96.9043C17.7294 97.0245 17.7394 97.1447 17.7495 97.265ZM0.3622 101.8792C0.4829 101.8792 0.6036 101.8792 0.7244 101.8792C0.7244 100.2788 1.9509 98.9455 3.5456 98.8127C3.5356 98.6925 3.5255 98.5722 3.5155 98.452C3.5055 98.3316 3.4955 98.2112 3.4854 98.0908C1.5153 98.2549 0 99.9021 0 101.8792C0.1207 101.8792 0.2415 101.8792 0.3622 101.8792ZM3.5158 127.0777C3.5258 126.9574 3.5358 126.8372 3.5458 126.7169C1.9511 126.5841 0.7244 125.2508 0.7244 123.6505C0.6036 123.6505 0.4829 123.6505 0.3622 123.6505C0.2415 123.6505 0.1207 123.6505 0 123.6505C0 125.6275 1.5155 127.2747 3.4857 127.4389C3.4957 127.3185 3.5057 127.1981 3.5158 127.0777ZM20.8923 131.1109C21.0108 131.0874 21.1292 131.0639 21.2476 131.0404C20.9113 129.3469 19.512 128.0469 17.7793 127.9025C17.7693 128.0227 17.7592 128.143 17.7492 128.2632C17.7392 128.3836 17.7292 128.504 17.7191 128.6244C19.1176 128.7408 20.2613 129.7931 20.5371 131.1814C20.6555 131.1579 20.7739 131.1344 20.8923 131.1109ZM22.7232 146.8522C22.7921 146.9513 22.8609 147.0505 22.9298 147.1497C24.3568 146.1592 24.9189 144.3358 24.3657 142.7021C24.2514 142.7409 24.137 142.7797 24.0227 142.8185C23.9083 142.8571 23.794 142.8957 23.6796 142.9344C24.1332 144.274 23.6685 145.755 22.5167 146.5547C22.5856 146.6539 22.6544 146.753 22.7232 146.8522ZM9.9788 159.5367C10.0833 159.4763 10.1879 159.416 10.2924 159.3556C9.4923 157.9697 9.888 156.2022 11.2026 155.2895C11.1338 155.1904 11.065 155.0912 10.9961 154.9921C10.9273 154.8929 10.8584 154.7937 10.7896 154.6946C9.1655 155.8217 8.6767 158.0059 9.6651 159.7178C9.7697 159.6574 9.8742 159.597 9.9788 159.5367ZM25.3095 179.7835C25.2581 179.6742 25.2066 179.5649 25.1551 179.4556C23.7076 180.1379 21.9786 179.5971 21.1785 178.2111C21.074 178.2715 20.9694 178.3319 20.8649 178.3922C20.7603 178.4526 20.6557 178.513 20.5512 178.5733C21.5397 180.2852 23.6757 180.954 25.464 180.1109C25.4125 180.0018 25.361 179.8926 25.3095 179.7835ZM42.3855 174.5763C42.4762 174.4965 42.5669 174.4166 42.6575 174.3368C41.5193 173.0421 39.6601 172.6181 38.0896 173.3584C38.1411 173.4677 38.1926 173.577 38.244 173.6863C38.2955 173.7954 38.347 173.9046 38.3985 174.0137C39.666 173.4164 41.1803 173.7534 42.1135 174.8153C42.2042 174.7357 42.2949 174.656 42.3855 174.5763ZM51.8414 187.2825C51.9505 187.334 52.0597 187.3855 52.1688 187.4371C52.9091 185.8666 52.4851 184.0079 51.1904 182.8697C51.1108 182.9604 51.0311 183.051 50.9514 183.1416C50.8716 183.2322 50.7917 183.3229 50.7119 183.4135C51.7738 184.3469 52.1109 185.8609 51.5135 187.1285C51.6228 187.1798 51.7321 187.2312 51.8414 187.2825ZM47.1361 204.6623C47.1964 204.5578 47.2568 204.4534 47.3172 204.3489C45.9314 203.5487 45.3902 201.8199 46.0724 200.3727C45.9632 200.3212 45.854 200.2696 45.7448 200.2181C45.6356 200.1666 45.5264 200.1151 45.4172 200.0636C44.5743 201.8518 45.2429 203.9877 46.955 204.9762C47.0153 204.8716 47.0757 204.7669 47.1361 204.6623ZM70.5357 214.531C70.4365 214.4622 70.3373 214.3935 70.2382 214.3248C69.326 215.6393 67.5581 216.0352 66.1721 215.2351C66.1118 215.3395 66.0514 215.444 65.991 215.5485C65.9307 215.6531 65.8703 215.7577 65.8099 215.8624C67.5223 216.8509 69.706 216.3617 70.8336 214.7377C70.7343 214.6688 70.635 214.5999 70.5357 214.531ZM82.7083 201.5056C82.7471 201.3911 82.7859 201.2767 82.8247 201.1622C81.191 200.6093 79.367 201.1714 78.3766 202.5984C78.4758 202.6673 78.5749 202.7362 78.6741 202.8051C78.7734 202.8738 78.8727 202.9425 78.972 203.0113C79.7712 201.8595 81.2528 201.395 82.5924 201.8484C82.631 201.7341 82.6696 201.6198 82.7083 201.5056ZM97.2655 207.78C97.3859 207.77 97.5063 207.76 97.6267 207.75C97.4823 206.0174 96.1818 204.6179 94.4888 204.2818C94.4653 204.4003 94.4418 204.5187 94.4183 204.6372C94.3948 204.7555 94.3713 204.8738 94.3478 204.9921C95.7361 205.2679 96.7879 206.4119 96.9047 207.8099C97.025 207.7999 97.1452 207.7899 97.2655 207.78ZM101.8792 225.167C101.8792 225.0463 101.8792 224.9255 101.8792 224.8048C100.2788 224.8048 98.9455 223.5782 98.8127 221.9837C98.6925 221.9937 98.5722 222.0036 98.452 222.0136C98.3316 222.0238 98.2112 222.0339 98.0908 222.044C98.2549 224.0138 99.9021 225.5292 101.8792 225.5292C101.8792 225.4084 101.8792 225.2877 101.8792 225.167ZM127.0777 222.0136C126.9574 222.0036 126.8372 221.9937 126.7169 221.9837C126.5841 223.5782 125.2508 224.8048 123.6505 224.8048C123.6505 224.9255 123.6505 225.0463 123.6505 225.167C123.6505 225.2877 123.6505 225.4084 123.6505 225.5292C125.6275 225.5292 127.2747 224.0138 127.4389 222.0436C127.3185 222.0336 127.1981 222.0236 127.0777 222.0136ZM131.1109 204.6372C131.0874 204.5187 131.0639 204.4003 131.0404 204.2818C129.3469 204.6179 128.0469 206.0174 127.9025 207.75C128.0227 207.76 128.143 207.77 128.2632 207.78C128.3836 207.7901 128.504 207.8002 128.6244 207.8104C128.7408 206.4119 129.7931 205.2679 131.1814 204.9921C131.1579 204.8738 131.1344 204.7555 131.1109 204.6372ZM146.8522 202.8055C146.9513 202.7368 147.0505 202.6681 147.1497 202.5993C146.1592 201.1724 144.3358 200.6103 142.7021 201.1632C142.7409 201.2775 142.7797 201.3918 142.8185 201.506C142.8571 201.6205 142.8957 201.7349 142.9344 201.8494C144.274 201.3955 145.755 201.8605 146.5547 203.0122C146.6539 202.9433 146.753 202.8744 146.8522 202.8055ZM159.5362 215.5499C159.4758 215.4454 159.4155 215.341 159.3551 215.2365C157.9692 216.0367 156.2017 215.6407 155.289 214.3262C155.1899 214.3951 155.0907 214.464 154.9916 214.5329C154.8924 214.6016 154.7933 214.6704 154.6941 214.7391C155.8212 216.3631 158.0054 216.8523 159.7173 215.8638C159.6569 215.7592 159.5966 215.6545 159.5362 215.5499ZM179.783 200.2196C179.6739 200.2711 179.5647 200.3226 179.4556 200.3741C180.1375 201.8219 179.5966 203.5507 178.2107 204.3508C178.271 204.4553 178.3314 204.5598 178.3917 204.6642C178.4521 204.7689 178.5125 204.8735 178.5728 204.9781C180.2847 203.9896 180.9536 201.8537 180.1104 200.0655C180.0013 200.1169 179.8921 200.1682 179.783 200.2196ZM174.5758 183.1435C174.4961 183.0528 174.4165 182.962 174.3368 182.8712C173.0421 184.0094 172.6181 185.8686 173.3584 187.439C173.4676 187.3876 173.5767 187.3363 173.6858 187.2849C173.7951 187.2334 173.9044 187.1819 174.0137 187.1304C173.4164 185.8628 173.7534 184.3484 174.8153 183.4154C174.7355 183.3248 174.6557 183.2342 174.5758 183.1435ZM187.2845 173.6863C187.3358 173.5772 187.3872 173.468 187.4385 173.3589C185.8681 172.6186 184.0089 173.0426 182.8712 174.3373C182.9618 174.4169 183.0524 174.4966 183.1431 174.5763C183.2337 174.656 183.3243 174.7357 183.4149 174.8153C184.3479 173.7539 185.8623 173.4164 187.1299 174.0142C187.1814 173.9049 187.233 173.7956 187.2845 173.6863ZM204.6642 178.3922C204.5598 178.3319 204.4553 178.2715 204.3508 178.2111C203.5507 179.5971 201.8219 180.1379 200.3741 179.4561C200.3228 179.5652 200.2714 179.6743 200.2201 179.7835C200.1686 179.8926 200.117 180.0018 200.0655 180.1109C201.8537 180.954 203.9896 180.2852 204.9781 178.5733C204.8735 178.513 204.7689 178.4526 204.6642 178.3922ZM214.5329 154.9921C214.464 155.0912 214.3951 155.1904 214.3262 155.2895C215.6407 156.2022 216.0367 157.9697 215.2365 159.3556C215.341 159.416 215.4454 159.4763 215.5499 159.5367C215.6545 159.597 215.7592 159.6574 215.8638 159.7178C216.8523 158.0059 216.3631 155.8217 214.7391 154.6946C214.6704 154.7937 214.6016 154.8929 214.5329 154.9921ZM201.506 142.819C201.3918 142.7802 201.2775 142.7414 201.1632 142.7026C200.6103 144.3363 201.1724 146.1597 202.5993 147.1501C202.6681 147.051 202.7368 146.9518 202.8055 146.8527C202.8744 146.7535 202.9433 146.6544 203.0122 146.5552C201.8605 145.7555 201.3959 144.2744 201.8494 142.9349C201.7349 142.8962 201.6205 142.8576 201.506 142.819ZM207.78 128.2637C207.77 128.1434 207.76 128.0232 207.75 127.903C206.0174 128.0474 204.6179 129.3473 204.2818 131.0409C204.4003 131.0644 204.5187 131.0879 204.6372 131.1114C204.7555 131.1349 204.8738 131.1584 204.9921 131.1819C205.2679 129.7935 206.4119 128.7413 207.8099 128.6249C207.7999 128.5045 207.7899 128.3841 207.78 128.2637ZM225.167 123.651C225.0463 123.651 224.9255 123.651 224.8048 123.651C224.8048 125.2508 223.5782 126.5841 221.9837 126.7169C221.9937 126.8372 222.0036 126.9574 222.0136 127.0777C222.0236 127.1981 222.0336 127.3185 222.0436 127.4389C224.0138 127.2747 225.5292 125.6275 225.5292 123.651C225.4084 123.651 225.2877 123.651 225.167 123.651ZM222.0136 98.452C222.0036 98.5722 221.9937 98.6925 221.9837 98.8127C223.5782 98.9455 224.8048 100.2788 224.8048 101.8792C224.9255 101.8792 225.0463 101.8792 225.167 101.8792C225.2877 101.8792 225.4084 101.8792 225.5292 101.8792C225.5292 99.9021 224.0138 98.2549 222.044 98.0908C222.0339 98.2112 222.0238 98.3316 222.0136 98.452ZM204.6372 94.4178C204.5187 94.4413 204.4003 94.4648 204.2818 94.4883C204.6179 96.1814 206.0174 97.4818 207.75 97.6262C207.76 97.5058 207.77 97.3854 207.78 97.265C207.7899 97.1447 207.7999 97.0245 207.8099 96.9043C206.4119 96.7879 205.2679 95.7356 204.9921 94.3473C204.8738 94.3708 204.7555 94.3943 204.6372 94.4178ZM202.8051 78.6746C202.7362 78.5754 202.6673 78.4762 202.5984 78.3771C201.1714 79.3675 200.6093 81.1915 201.1622 82.8251C201.2767 82.7863 201.3911 82.7475 201.5056 82.7088C201.6198 82.6701 201.7341 82.6315 201.8484 82.5929C201.395 81.2533 201.8595 79.7717 203.0113 78.9725C202.9425 78.8732 202.8738 78.7739 202.8051 78.6746ZM215.5518 65.9891C215.4474 66.0495 215.3429 66.1098 215.2384 66.1702C216.0386 67.5561 215.6426 69.3241 214.3282 70.2363C214.3969 70.3356 214.4656 70.4349 214.5344 70.5342C214.6033 70.6334 214.6722 70.7325 214.741 70.8317C216.3651 69.7041 216.8542 67.5204 215.8657 65.808C215.7611 65.8684 215.6565 65.9287 215.5518 65.9891ZM200.2215 45.7429C200.2729 45.8521 200.3242 45.9613 200.3756 46.0705C201.8233 45.3883 203.5521 45.9295 204.3523 47.3153C204.4568 47.255 204.5612 47.1946 204.6657 47.1342C204.7703 47.0739 204.875 47.0135 204.9796 46.9531C203.9911 45.241 201.8552 44.5725 200.067 45.4153C200.1185 45.5245 200.17 45.6337 200.2215 45.7429ZM183.1416 50.9514C183.051 51.0311 182.9604 51.1108 182.8697 51.1904C184.0079 52.4851 185.8666 52.9091 187.4371 52.1688C187.3857 52.0595 187.3344 51.9502 187.283 51.8409C187.2315 51.7318 187.18 51.6226 187.1285 51.5135C185.8609 52.1109 184.3469 51.7738 183.4135 50.7119C183.3229 50.7917 183.2322 50.8716 183.1416 50.9514ZM173.6858 38.2446C173.5767 38.1931 173.4676 38.1416 173.3584 38.0901C172.6181 39.6605 173.0421 41.5198 174.3368 42.658C174.4165 42.5673 174.4961 42.4766 174.5758 42.386C174.6557 42.2953 174.7355 42.2046 174.8153 42.1139C173.7534 41.1808 173.4164 39.6665 174.0137 38.3989C173.9044 38.3475 173.7951 38.296 173.6858 38.2446ZM178.3937 20.8616C178.3333 20.9661 178.273 21.0707 178.2126 21.1752C179.5985 21.9754 180.1394 23.7043 179.457 25.1518C179.5663 25.2032 179.6756 25.2547 179.7849 25.3062C179.8941 25.3577 180.0032 25.4092 180.1123 25.4606C180.9555 23.6723 180.2867 21.5364 178.5748 20.5479C178.5144 20.6525 178.454 20.757 178.3937 20.8616ZM154.994 10.9929C155.0931 11.0618 155.1923 11.1306 155.2915 11.1994C156.2041 9.8848 157.9716 9.4891 159.3575 10.2892C159.4179 10.1846 159.4783 10.0801 159.5386 9.9755C159.599 9.871 159.6593 9.7664 159.7197 9.6619C158.0078 8.6734 155.8236 9.1623 154.6965 10.7864C154.7957 10.8552 154.8948 10.9241 154.994 10.9929ZM142.8185 24.0226C142.7797 24.137 142.7409 24.2513 142.7021 24.3656C144.3358 24.9189 146.1592 24.3568 147.1497 22.9297C147.0505 22.8608 146.9513 22.792 146.8522 22.7232C146.753 22.6543 146.6539 22.5855 146.5547 22.5167C145.755 23.6684 144.274 24.1332 142.9344 23.6796C142.8957 23.7939 142.8571 23.9083 142.8185 24.0226ZM131.1114 20.8919C131.1349 20.7735 131.1584 20.6551 131.1819 20.5367C129.7935 20.2609 128.7413 19.1171 128.6249 17.7187C128.5045 17.7288 128.3841 17.7388 128.2637 17.7488C128.1434 17.7589 128.0232 17.7689 127.903 17.7789C128.0474 19.5115 129.3473 20.9108 131.0409 21.2472C131.0644 21.1288 131.0879 21.0103 131.1114 20.8919Z"></path></svg> 