<?xml version="1.0" encoding="UTF-8"?> <svg xmlns="http://www.w3.org/2000/svg" width="154" height="72" viewBox="0 0 154 72" fill="none"><path d="M3.55973 3.88336C5.26064 3.88336 7.006 4.98926 7.11905 7.21097C7.12339 7.29661 7.09357 7.38048 7.03613 7.44415C6.97869 7.50782 6.89833 7.54609 6.81269 7.55055C5.91521 7.59629 1.75872 7.62433 0.307201 7.55055C0.221489 7.5462 0.141017 7.50798 0.0834839 7.44429C0.0259513 7.38061 -0.00392906 7.29668 0.000415285 7.21097C0.113464 4.98969 1.85882 3.88336 3.55973 3.88336ZM3.55973 0C3.13059 0 2.71903 0.170474 2.41559 0.473921C2.11214 0.777367 1.94166 1.18893 1.94166 1.61807C1.94166 2.04721 2.11214 2.45877 2.41559 2.76221C2.71903 3.06566 3.13059 3.23613 3.55973 3.23613C3.98887 3.23613 4.40043 3.06566 4.70388 2.76221C5.00732 2.45877 5.1778 2.04721 5.1778 1.61807C5.1778 1.18893 5.00732 0.777367 4.70388 0.473921C4.40043 0.170474 3.98887 0 3.55973 0Z" fill="black"></path><path d="M12.1673 3.88336C13.8682 3.88336 15.6136 4.98926 15.7267 7.21097C15.731 7.29661 15.7012 7.38048 15.6437 7.44415C15.5863 7.50782 15.5059 7.54609 15.4203 7.55055C14.5228 7.59629 10.3663 7.62433 8.91481 7.55055C8.82909 7.5462 8.74862 7.50798 8.69109 7.44429C8.63356 7.38061 8.60368 7.29668 8.60802 7.21097C8.72107 4.98969 10.4664 3.88336 12.1673 3.88336ZM12.1673 0C11.7382 0 11.3266 0.170474 11.0232 0.473921C10.7197 0.777367 10.5493 1.18893 10.5493 1.61807C10.5493 2.04721 10.7197 2.45877 11.0232 2.76221C11.3266 3.06566 11.7382 3.23613 12.1673 3.23613C12.5965 3.23613 13.008 3.06566 13.3115 2.76221C13.6149 2.45877 13.7854 2.04721 13.7854 1.61807C13.7854 1.18893 13.6149 0.777367 13.3115 0.473921C13.008 0.170474 12.5965 0 12.1673 0Z" fill="black"></path><path d="M20.7749 3.88336C22.4759 3.88336 24.2212 4.98926 24.3343 7.21097C24.3386 7.29661 24.3088 7.38048 24.2513 7.44415C24.1939 7.50782 24.1135 7.54609 24.0279 7.55055C23.1304 7.59629 18.9739 7.62433 17.5224 7.55055C17.4367 7.5462 17.3562 7.50798 17.2987 7.44429C17.2412 7.38061 17.2113 7.29668 17.2156 7.21097C17.3287 4.98969 19.074 3.88336 20.7749 3.88336ZM20.7749 0C20.3458 0 19.9342 0.170474 19.6308 0.473921C19.3273 0.777367 19.1569 1.18893 19.1569 1.61807C19.1569 2.04721 19.3273 2.45877 19.6308 2.76221C19.9342 3.06566 20.3458 3.23613 20.7749 3.23613C21.2041 3.23613 21.6156 3.06566 21.9191 2.76221C22.2225 2.45877 22.393 2.04721 22.393 1.61807C22.393 1.18893 22.2225 0.777367 21.9191 0.473921C21.6156 0.170474 21.2041 0 20.7749 0Z" fill="black"></path><path d="M29.3825 3.88336C31.0835 3.88336 32.8288 4.98926 32.9419 7.21097C32.9462 7.29661 32.9164 7.38048 32.8589 7.44415C32.8015 7.50782 32.7211 7.54609 32.6355 7.55055C31.738 7.59629 27.5815 7.62433 26.13 7.55055C26.0443 7.5462 25.9638 7.50798 25.9063 7.44429C25.8488 7.38061 25.8189 7.29668 25.8232 7.21097C25.9363 4.98969 27.6816 3.88336 29.3825 3.88336ZM29.3825 0C28.9534 0 28.5418 0.170474 28.2384 0.473921C27.935 0.777367 27.7645 1.18893 27.7645 1.61807C27.7645 2.04721 27.935 2.45877 28.2384 2.76221C28.5418 3.06566 28.9534 3.23613 29.3825 3.23613C29.8117 3.23613 30.2232 3.06566 30.5267 2.76221C30.8301 2.45877 31.0006 2.04721 31.0006 1.61807C31.0006 1.18893 30.8301 0.777367 30.5267 0.473921C30.2232 0.170474 29.8117 0 29.3825 0Z" fill="black"></path><path d="M37.9901 3.88336C39.691 3.88336 41.4364 4.98926 41.5494 7.21097C41.5538 7.29661 41.5239 7.38048 41.4665 7.44415C41.4091 7.50782 41.3287 7.54609 41.2431 7.55055C40.3456 7.59629 36.1891 7.62433 34.7376 7.55055C34.6518 7.5462 34.5714 7.50798 34.5138 7.44429C34.4563 7.38061 34.4264 7.29668 34.4308 7.21097C34.5438 4.98969 36.2892 3.88336 37.9901 3.88336ZM37.9901 0C37.561 0 37.1494 0.170474 36.8459 0.473921C36.5425 0.777367 36.372 1.18893 36.372 1.61807C36.372 2.04721 36.5425 2.45877 36.8459 2.76221C37.1494 3.06566 37.561 3.23613 37.9901 3.23613C38.4192 3.23613 38.8308 3.06566 39.1342 2.76221C39.4377 2.45877 39.6082 2.04721 39.6082 1.61807C39.6082 1.18893 39.4377 0.777367 39.1342 0.473921C38.8308 0.170474 38.4192 0 37.9901 0Z" fill="black"></path><path d="M46.5977 3.88336C48.2986 3.88336 50.044 4.98926 50.157 7.21097C50.1614 7.29661 50.1315 7.38048 50.0741 7.44415C50.0167 7.50782 49.9363 7.54609 49.8507 7.55055C48.9532 7.59629 44.7967 7.62433 43.3452 7.55055C43.2595 7.5462 43.179 7.50798 43.1214 7.44429C43.0639 7.38061 43.034 7.29668 43.0384 7.21097C43.1514 4.98969 44.8968 3.88336 46.5977 3.88336ZM46.5977 0C46.1686 0 45.757 0.170474 45.4535 0.473921C45.1501 0.777367 44.9796 1.18893 44.9796 1.61807C44.9796 2.04721 45.1501 2.45877 45.4535 2.76221C45.757 3.06566 46.1686 3.23613 46.5977 3.23613C47.0268 3.23613 47.4384 3.06566 47.7418 2.76221C48.0453 2.45877 48.2158 2.04721 48.2158 1.61807C48.2158 1.18893 48.0453 0.777367 47.7418 0.473921C47.4384 0.170474 47.0268 0 46.5977 0Z" fill="black"></path><path d="M55.2053 3.88336C56.9062 3.88336 58.6516 4.98926 58.7646 7.21097C58.769 7.29661 58.7391 7.38048 58.6817 7.44415C58.6243 7.50782 58.5439 7.54609 58.4583 7.55055C57.5608 7.59629 53.4043 7.62433 51.9528 7.55055C51.8671 7.5462 51.7866 7.50798 51.7291 7.44429C51.6715 7.38061 51.6416 7.29668 51.646 7.21097C51.759 4.98969 53.5044 3.88336 55.2053 3.88336ZM55.2053 0C54.7762 0 54.3646 0.170474 54.0612 0.473921C53.7577 0.777367 53.5872 1.18893 53.5872 1.61807C53.5872 2.04721 53.7577 2.45877 54.0612 2.76221C54.3646 3.06566 54.7762 3.23613 55.2053 3.23613C55.6344 3.23613 56.046 3.06566 56.3494 2.76221C56.6529 2.45877 56.8234 2.04721 56.8234 1.61807C56.8234 1.18893 56.6529 0.777367 56.3494 0.473921C56.046 0.170474 55.6344 0 55.2053 0Z" fill="black"></path><path d="M63.8129 3.88336C65.5138 3.88336 67.2592 4.98926 67.3722 7.21097C67.3766 7.29661 67.3467 7.38048 67.2893 7.44415C67.2319 7.50782 67.1515 7.54609 67.0659 7.55055C66.1684 7.59629 62.0119 7.62433 60.5604 7.55055C60.4747 7.5462 60.3942 7.50798 60.3367 7.44429C60.2791 7.38061 60.2492 7.29668 60.2536 7.21097C60.3666 4.98969 62.112 3.88336 63.8129 3.88336ZM63.8129 0C63.3838 0 62.9722 0.170474 62.6688 0.473921C62.3653 0.777367 62.1948 1.18893 62.1948 1.61807C62.1948 2.04721 62.3653 2.45877 62.6688 2.76221C62.9722 3.06566 63.3838 3.23613 63.8129 3.23613C64.242 3.23613 64.6536 3.06566 64.9571 2.76221C65.2605 2.45877 65.431 2.04721 65.431 1.61807C65.431 1.18893 65.2605 0.777367 64.9571 0.473921C64.6536 0.170474 64.242 0 63.8129 0Z" fill="black"></path><path d="M72.4204 3.88336C74.1214 3.88336 75.8667 4.98926 75.9798 7.21097C75.9841 7.29661 75.9543 7.38048 75.8969 7.44415C75.8394 7.50782 75.759 7.54609 75.6734 7.55055C74.7759 7.59629 70.6194 7.62433 69.1679 7.55055C69.0822 7.5462 69.0017 7.50798 68.9442 7.44429C68.8867 7.38061 68.8568 7.29668 68.8611 7.21097C68.9742 4.98969 70.7195 3.88336 72.4204 3.88336ZM72.4204 0C71.9913 0 71.5797 0.170474 71.2763 0.473921C70.9729 0.777367 70.8024 1.18893 70.8024 1.61807C70.8024 2.04721 70.9729 2.45877 71.2763 2.76221C71.5797 3.06566 71.9913 3.23613 72.4204 3.23613C72.8496 3.23613 73.2611 3.06566 73.5646 2.76221C73.868 2.45877 74.0385 2.04721 74.0385 1.61807C74.0385 1.18893 73.868 0.777367 73.5646 0.473921C73.2611 0.170474 72.8496 0 72.4204 0Z" fill="black"></path><path d="M81.0281 3.88336C82.729 3.88336 84.4743 4.98926 84.5874 7.21097C84.5917 7.29661 84.5619 7.38048 84.5045 7.44415C84.447 7.50782 84.3667 7.54609 84.281 7.55055C83.3835 7.59629 79.227 7.62433 77.7755 7.55055C77.6898 7.5462 77.6093 7.50798 77.5518 7.44429C77.4943 7.38061 77.4644 7.29668 77.4687 7.21097C77.5818 4.98969 79.3271 3.88336 81.0281 3.88336ZM81.0281 0C80.5989 0 80.1874 0.170474 79.8839 0.473921C79.5805 0.777367 79.41 1.18893 79.41 1.61807C79.41 2.04721 79.5805 2.45877 79.8839 2.76221C80.1874 3.06566 80.5989 3.23613 81.0281 3.23613C81.4572 3.23613 81.8688 3.06566 82.1722 2.76221C82.4756 2.45877 82.6461 2.04721 82.6461 1.61807C82.6461 1.18893 82.4756 0.777367 82.1722 0.473921C81.8688 0.170474 81.4572 0 81.0281 0Z" fill="black"></path><path d="M89.6357 3.88336C91.3366 3.88336 93.0819 4.98926 93.195 7.21097C93.1993 7.29661 93.1695 7.38048 93.1121 7.44415C93.0546 7.50782 92.9743 7.54609 92.8886 7.55055C91.9911 7.59629 87.8346 7.62433 86.3831 7.55055C86.2974 7.5462 86.2169 7.50798 86.1594 7.44429C86.1019 7.38061 86.072 7.29668 86.0763 7.21097C86.1894 4.98969 87.9347 3.88336 89.6357 3.88336ZM89.6357 0C89.2065 0 88.795 0.170474 88.4915 0.473921C88.1881 0.777367 88.0176 1.18893 88.0176 1.61807C88.0176 2.04721 88.1881 2.45877 88.4915 2.76221C88.795 3.06566 89.2065 3.23613 89.6357 3.23613C90.0648 3.23613 90.4764 3.06566 90.7798 2.76221C91.0833 2.45877 91.2537 2.04721 91.2537 1.61807C91.2537 1.18893 91.0833 0.777367 90.7798 0.473921C90.4764 0.170474 90.0648 0 89.6357 0Z" fill="black"></path><path d="M98.2432 3.88336C99.9441 3.88336 101.689 4.98926 101.803 7.21097C101.807 7.29661 101.777 7.38048 101.72 7.44415C101.662 7.50782 101.582 7.54609 101.496 7.55055C100.599 7.59629 96.4422 7.62433 94.9907 7.55055C94.905 7.5462 94.8245 7.50798 94.767 7.44429C94.7094 7.38061 94.6795 7.29668 94.6839 7.21097C94.7969 4.98969 96.5423 3.88336 98.2432 3.88336ZM98.2432 0C97.8141 0 97.4025 0.170474 97.0991 0.473921C96.7956 0.777367 96.6251 1.18893 96.6251 1.61807C96.6251 2.04721 96.7956 2.45877 97.0991 2.76221C97.4025 3.06566 97.8141 3.23613 98.2432 3.23613C98.6723 3.23613 99.0839 3.06566 99.3874 2.76221C99.6908 2.45877 99.8613 2.04721 99.8613 1.61807C99.8613 1.18893 99.6908 0.777367 99.3874 0.473921C99.0839 0.170474 98.6723 0 98.2432 0Z" fill="black"></path><path d="M106.851 3.88336C108.552 3.88336 110.297 4.98926 110.41 7.21097C110.414 7.29661 110.385 7.38048 110.327 7.44415C110.27 7.50782 110.189 7.54609 110.104 7.55055C109.206 7.59629 105.05 7.62433 103.598 7.55055C103.513 7.5462 103.432 7.50798 103.375 7.44429C103.317 7.38061 103.287 7.29668 103.291 7.21097C103.405 4.98969 105.15 3.88336 106.851 3.88336ZM106.851 0C106.422 0 106.01 0.170474 105.707 0.473921C105.403 0.777367 105.233 1.18893 105.233 1.61807C105.233 2.04721 105.403 2.45877 105.707 2.76221C106.01 3.06566 106.422 3.23613 106.851 3.23613C107.28 3.23613 107.692 3.06566 107.995 2.76221C108.298 2.45877 108.469 2.04721 108.469 1.61807C108.469 1.18893 108.298 0.777367 107.995 0.473921C107.692 0.170474 107.28 0 106.851 0Z" fill="black"></path><path d="M115.458 3.88336C117.159 3.88336 118.905 4.98926 119.018 7.21097C119.022 7.29661 118.992 7.38048 118.935 7.44415C118.877 7.50782 118.797 7.54609 118.711 7.55055C117.814 7.59629 113.657 7.62433 112.206 7.55055C112.12 7.5462 112.04 7.50798 111.982 7.44429C111.925 7.38061 111.895 7.29668 111.899 7.21097C112.012 4.98969 113.758 3.88336 115.458 3.88336ZM115.458 0C115.029 0 114.618 0.170474 114.314 0.473921C114.011 0.777367 113.84 1.18893 113.84 1.61807C113.84 2.04721 114.011 2.45877 114.314 2.76221C114.618 3.06566 115.029 3.23613 115.458 3.23613C115.888 3.23613 116.299 3.06566 116.603 2.76221C116.906 2.45877 117.076 2.04721 117.076 1.61807C117.076 1.18893 116.906 0.777367 116.603 0.473921C116.299 0.170474 115.888 0 115.458 0Z" fill="black"></path><path d="M124.066 3.88336C125.767 3.88336 127.512 4.98926 127.625 7.21097C127.63 7.29661 127.6 7.38048 127.542 7.44415C127.485 7.50782 127.405 7.54609 127.319 7.55055C126.421 7.59629 122.265 7.62433 120.813 7.55055C120.728 7.5462 120.647 7.50798 120.59 7.44429C120.532 7.38061 120.502 7.29668 120.507 7.21097C120.62 4.98969 122.365 3.88336 124.066 3.88336ZM124.066 0C123.637 0 123.225 0.170474 122.922 0.473921C122.618 0.777367 122.448 1.18893 122.448 1.61807C122.448 2.04721 122.618 2.45877 122.922 2.76221C123.225 3.06566 123.637 3.23613 124.066 3.23613C124.495 3.23613 124.907 3.06566 125.21 2.76221C125.514 2.45877 125.684 2.04721 125.684 1.61807C125.684 1.18893 125.514 0.777367 125.21 0.473921C124.907 0.170474 124.495 0 124.066 0Z" fill="black"></path><path d="M132.674 3.88336C134.375 3.88336 136.12 4.98926 136.233 7.21097C136.237 7.29661 136.207 7.38048 136.15 7.44415C136.093 7.50782 136.012 7.54609 135.927 7.55055C135.029 7.59629 130.873 7.62433 129.421 7.55055C129.335 7.5462 129.255 7.50798 129.197 7.44429C129.14 7.38061 129.11 7.29668 129.114 7.21097C129.227 4.98969 130.973 3.88336 132.674 3.88336ZM132.674 0C132.244 0 131.833 0.170474 131.529 0.473921C131.226 0.777367 131.056 1.18893 131.056 1.61807C131.056 2.04721 131.226 2.45877 131.529 2.76221C131.833 3.06566 132.244 3.23613 132.674 3.23613C133.103 3.23613 133.514 3.06566 133.818 2.76221C134.121 2.45877 134.292 2.04721 134.292 1.61807C134.292 1.18893 134.121 0.777367 133.818 0.473921C133.514 0.170474 133.103 0 132.674 0Z" fill="black"></path><path d="M141.281 3.88336C142.982 3.88336 144.727 4.98926 144.84 7.21097C144.845 7.29661 144.815 7.38048 144.758 7.44415C144.7 7.50782 144.62 7.54609 144.534 7.55055C143.637 7.59629 139.48 7.62433 138.029 7.55055C137.943 7.5462 137.862 7.50798 137.805 7.44429C137.747 7.38061 137.718 7.29668 137.722 7.21097C137.835 4.98969 139.58 3.88336 141.281 3.88336ZM141.281 0C140.852 0 140.44 0.170474 140.137 0.473921C139.834 0.777367 139.663 1.18893 139.663 1.61807C139.663 2.04721 139.834 2.45877 140.137 2.76221C140.44 3.06566 140.852 3.23613 141.281 3.23613C141.71 3.23613 142.122 3.06566 142.425 2.76221C142.729 2.45877 142.899 2.04721 142.899 1.61807C142.899 1.18893 142.729 0.777367 142.425 0.473921C142.122 0.170474 141.71 0 141.281 0Z" fill="black"></path><path d="M149.889 3.88336C151.59 3.88336 153.335 4.98926 153.448 7.21097C153.452 7.29661 153.423 7.38048 153.365 7.44415C153.308 7.50782 153.227 7.54609 153.142 7.55055C152.244 7.59629 148.088 7.62433 146.636 7.55055C146.551 7.5462 146.47 7.50798 146.413 7.44429C146.355 7.38061 146.325 7.29668 146.329 7.21097C146.443 4.98969 148.188 3.88336 149.889 3.88336ZM149.889 0C149.46 0 149.048 0.170474 148.745 0.473921C148.441 0.777367 148.271 1.18893 148.271 1.61807C148.271 2.04721 148.441 2.45877 148.745 2.76221C149.048 3.06566 149.46 3.23613 149.889 3.23613C150.318 3.23613 150.729 3.06566 151.033 2.76221C151.336 2.45877 151.507 2.04721 151.507 1.61807C151.507 1.18893 151.336 0.777367 151.033 0.473921C150.729 0.170474 150.318 0 149.889 0Z" fill="black"></path><path d="M12.1673 14.4556C13.8682 14.4556 15.6136 15.5615 15.7267 17.7832C15.731 17.8688 15.7012 17.9527 15.6437 18.0164C15.5863 18.0801 15.5059 18.1183 15.4203 18.1228C14.5228 18.1685 10.3663 18.1966 8.91481 18.1228C8.82909 18.1184 8.74862 18.0802 8.69109 18.0165C8.63356 17.9528 8.60368 17.8689 8.60802 17.7832C8.72107 15.5619 10.4664 14.4556 12.1673 14.4556ZM12.1673 10.5722C11.7382 10.5722 11.3266 10.7427 11.0232 11.0462C10.7197 11.3496 10.5493 11.7612 10.5493 12.1903C10.5493 12.6194 10.7197 13.031 11.0232 13.3344C11.3266 13.6379 11.7382 13.8084 12.1673 13.8084C12.5965 13.8084 13.008 13.6379 13.3115 13.3344C13.6149 13.031 13.7854 12.6194 13.7854 12.1903C13.7854 11.7612 13.6149 11.3496 13.3115 11.0462C13.008 10.7427 12.5965 10.5722 12.1673 10.5722Z" fill="black"></path><path d="M20.7749 14.4556C22.4759 14.4556 24.2212 15.5615 24.3343 17.7832C24.3386 17.8688 24.3088 17.9527 24.2513 18.0164C24.1939 18.0801 24.1135 18.1183 24.0279 18.1228C23.1304 18.1685 18.9739 18.1966 17.5224 18.1228C17.4367 18.1184 17.3562 18.0802 17.2987 18.0165C17.2412 17.9528 17.2113 17.8689 17.2156 17.7832C17.3287 15.5619 19.074 14.4556 20.7749 14.4556ZM20.7749 10.5722C20.3458 10.5722 19.9342 10.7427 19.6308 11.0462C19.3273 11.3496 19.1569 11.7612 19.1569 12.1903C19.1569 12.6194 19.3273 13.031 19.6308 13.3344C19.9342 13.6379 20.3458 13.8084 20.7749 13.8084C21.2041 13.8084 21.6156 13.6379 21.9191 13.3344C22.2225 13.031 22.393 12.6194 22.393 12.1903C22.393 11.7612 22.2225 11.3496 21.9191 11.0462C21.6156 10.7427 21.2041 10.5722 20.7749 10.5722Z" fill="black"></path><path d="M29.3825 14.4556C31.0835 14.4556 32.8288 15.5615 32.9419 17.7832C32.9462 17.8688 32.9164 17.9527 32.8589 18.0164C32.8015 18.0801 32.7211 18.1183 32.6355 18.1228C31.738 18.1685 27.5815 18.1966 26.13 18.1228C26.0443 18.1184 25.9638 18.0802 25.9063 18.0165C25.8488 17.9528 25.8189 17.8689 25.8232 17.7832C25.9363 15.5619 27.6816 14.4556 29.3825 14.4556ZM29.3825 10.5722C28.9534 10.5722 28.5418 10.7427 28.2384 11.0462C27.935 11.3496 27.7645 11.7612 27.7645 12.1903C27.7645 12.6194 27.935 13.031 28.2384 13.3344C28.5418 13.6379 28.9534 13.8084 29.3825 13.8084C29.8117 13.8084 30.2232 13.6379 30.5267 13.3344C30.8301 13.031 31.0006 12.6194 31.0006 12.1903C31.0006 11.7612 30.8301 11.3496 30.5267 11.0462C30.2232 10.7427 29.8117 10.5722 29.3825 10.5722Z" fill="black"></path><path d="M37.9902 14.4556C39.6911 14.4556 41.4364 15.5615 41.5495 17.7832C41.5538 17.8688 41.524 17.9527 41.4666 18.0164C41.4091 18.0801 41.3287 18.1183 41.2431 18.1228C40.3456 18.1685 36.1891 18.1966 34.7376 18.1228C34.6519 18.1184 34.5714 18.0802 34.5139 18.0165C34.4564 17.9528 34.4265 17.8689 34.4308 17.7832C34.5439 15.5619 36.2892 14.4556 37.9902 14.4556ZM37.9902 10.5722C37.561 10.5722 37.1495 10.7427 36.846 11.0462C36.5426 11.3496 36.3721 11.7612 36.3721 12.1903C36.3721 12.6194 36.5426 13.031 36.846 13.3344C37.1495 13.6379 37.561 13.8084 37.9902 13.8084C38.4193 13.8084 38.8309 13.6379 39.1343 13.3344C39.4377 13.031 39.6082 12.6194 39.6082 12.1903C39.6082 11.7612 39.4377 11.3496 39.1343 11.0462C38.8309 10.7427 38.4193 10.5722 37.9902 10.5722Z" fill="black"></path><path d="M46.5977 14.4556C48.2986 14.4556 50.044 15.5615 50.157 17.7832C50.1614 17.8688 50.1315 17.9527 50.0741 18.0164C50.0167 18.0801 49.9363 18.1183 49.8507 18.1228C48.9532 18.1685 44.7967 18.1966 43.3452 18.1228C43.2595 18.1184 43.179 18.0802 43.1214 18.0165C43.0639 17.9528 43.034 17.8689 43.0384 17.7832C43.1514 15.5619 44.8968 14.4556 46.5977 14.4556ZM46.5977 10.5722C46.1686 10.5722 45.757 10.7427 45.4535 11.0462C45.1501 11.3496 44.9796 11.7612 44.9796 12.1903C44.9796 12.6194 45.1501 13.031 45.4535 13.3344C45.757 13.6379 46.1686 13.8084 46.5977 13.8084C47.0268 13.8084 47.4384 13.6379 47.7418 13.3344C48.0453 13.031 48.2158 12.6194 48.2158 12.1903C48.2158 11.7612 48.0453 11.3496 47.7418 11.0462C47.4384 10.7427 47.0268 10.5722 46.5977 10.5722Z" fill="black"></path><path d="M55.2053 14.4556C56.9062 14.4556 58.6516 15.5615 58.7646 17.7832C58.769 17.8688 58.7391 17.9527 58.6817 18.0164C58.6243 18.0801 58.5439 18.1183 58.4583 18.1228C57.5608 18.1685 53.4043 18.1966 51.9528 18.1228C51.8671 18.1184 51.7866 18.0802 51.7291 18.0165C51.6715 17.9528 51.6416 17.8689 51.646 17.7832C51.759 15.5619 53.5044 14.4556 55.2053 14.4556ZM55.2053 10.5722C54.7762 10.5722 54.3646 10.7427 54.0612 11.0462C53.7577 11.3496 53.5872 11.7612 53.5872 12.1903C53.5872 12.6194 53.7577 13.031 54.0612 13.3344C54.3646 13.6379 54.7762 13.8084 55.2053 13.8084C55.6344 13.8084 56.046 13.6379 56.3494 13.3344C56.6529 13.031 56.8234 12.6194 56.8234 12.1903C56.8234 11.7612 56.6529 11.3496 56.3494 11.0462C56.046 10.7427 55.6344 10.5722 55.2053 10.5722Z" fill="black"></path><path d="M63.8129 14.4556C65.5138 14.4556 67.2592 15.5615 67.3722 17.7832C67.3766 17.8688 67.3467 17.9527 67.2893 18.0164C67.2319 18.0801 67.1515 18.1183 67.0659 18.1228C66.1684 18.1685 62.0119 18.1966 60.5604 18.1228C60.4747 18.1184 60.3942 18.0802 60.3367 18.0165C60.2791 17.9528 60.2492 17.8689 60.2536 17.7832C60.3666 15.5619 62.112 14.4556 63.8129 14.4556ZM63.8129 10.5722C63.3838 10.5722 62.9722 10.7427 62.6688 11.0462C62.3653 11.3496 62.1948 11.7612 62.1948 12.1903C62.1948 12.6194 62.3653 13.031 62.6688 13.3344C62.9722 13.6379 63.3838 13.8084 63.8129 13.8084C64.242 13.8084 64.6536 13.6379 64.9571 13.3344C65.2605 13.031 65.431 12.6194 65.431 12.1903C65.431 11.7612 65.2605 11.3496 64.9571 11.0462C64.6536 10.7427 64.242 10.5722 63.8129 10.5722Z" fill="black"></path><path d="M72.4204 14.4556C74.1214 14.4556 75.8667 15.5615 75.9798 17.7832C75.9841 17.8688 75.9543 17.9527 75.8969 18.0164C75.8394 18.0801 75.759 18.1183 75.6734 18.1228C74.7759 18.1685 70.6194 18.1966 69.1679 18.1228C69.0822 18.1184 69.0017 18.0802 68.9442 18.0165C68.8867 17.9528 68.8568 17.8689 68.8611 17.7832C68.9742 15.5619 70.7195 14.4556 72.4204 14.4556ZM72.4204 10.5722C71.9913 10.5722 71.5797 10.7427 71.2763 11.0462C70.9729 11.3496 70.8024 11.7612 70.8024 12.1903C70.8024 12.6194 70.9729 13.031 71.2763 13.3344C71.5797 13.6379 71.9913 13.8084 72.4204 13.8084C72.8496 13.8084 73.2611 13.6379 73.5646 13.3344C73.868 13.031 74.0385 12.6194 74.0385 12.1903C74.0385 11.7612 73.868 11.3496 73.5646 11.0462C73.2611 10.7427 72.8496 10.5722 72.4204 10.5722Z" fill="black"></path><path d="M81.0281 14.4556C82.729 14.4556 84.4743 15.5615 84.5874 17.7832C84.5917 17.8688 84.5619 17.9527 84.5045 18.0164C84.447 18.0801 84.3667 18.1183 84.281 18.1228C83.3835 18.1685 79.227 18.1966 77.7755 18.1228C77.6898 18.1184 77.6093 18.0802 77.5518 18.0165C77.4943 17.9528 77.4644 17.8689 77.4687 17.7832C77.5818 15.5619 79.3271 14.4556 81.0281 14.4556ZM81.0281 10.5722C80.5989 10.5722 80.1874 10.7427 79.8839 11.0462C79.5805 11.3496 79.41 11.7612 79.41 12.1903C79.41 12.6194 79.5805 13.031 79.8839 13.3344C80.1874 13.6379 80.5989 13.8084 81.0281 13.8084C81.4572 13.8084 81.8688 13.6379 82.1722 13.3344C82.4756 13.031 82.6461 12.6194 82.6461 12.1903C82.6461 11.7612 82.4756 11.3496 82.1722 11.0462C81.8688 10.7427 81.4572 10.5722 81.0281 10.5722Z" fill="black"></path><path d="M89.6357 14.4556C91.3366 14.4556 93.0819 15.5615 93.195 17.7832C93.1993 17.8688 93.1695 17.9527 93.1121 18.0164C93.0546 18.0801 92.9743 18.1183 92.8886 18.1228C91.9911 18.1685 87.8346 18.1966 86.3831 18.1228C86.2974 18.1184 86.2169 18.0802 86.1594 18.0165C86.1019 17.9528 86.072 17.8689 86.0763 17.7832C86.1894 15.5619 87.9347 14.4556 89.6357 14.4556ZM89.6357 10.5722C89.2065 10.5722 88.795 10.7427 88.4915 11.0462C88.1881 11.3496 88.0176 11.7612 88.0176 12.1903C88.0176 12.6194 88.1881 13.031 88.4915 13.3344C88.795 13.6379 89.2065 13.8084 89.6357 13.8084C90.0648 13.8084 90.4764 13.6379 90.7798 13.3344C91.0833 13.031 91.2537 12.6194 91.2537 12.1903C91.2537 11.7612 91.0833 11.3496 90.7798 11.0462C90.4764 10.7427 90.0648 10.5722 89.6357 10.5722Z" fill="black"></path><path d="M98.2433 14.4556C99.9442 14.4556 101.69 15.5615 101.803 17.7832C101.807 17.8688 101.777 17.9527 101.72 18.0164C101.662 18.0801 101.582 18.1183 101.496 18.1228C100.599 18.1685 96.4422 18.1966 94.9907 18.1228C94.905 18.1184 94.8245 18.0802 94.767 18.0165C94.7095 17.9528 94.6796 17.8689 94.6839 17.7832C94.797 15.5619 96.5424 14.4556 98.2433 14.4556ZM98.2433 10.5722C97.8141 10.5722 97.4026 10.7427 97.0991 11.0462C96.7957 11.3496 96.6252 11.7612 96.6252 12.1903C96.6252 12.6194 96.7957 13.031 97.0991 13.3344C97.4026 13.6379 97.8141 13.8084 98.2433 13.8084C98.6724 13.8084 99.084 13.6379 99.3874 13.3344C99.6909 13.031 99.8613 12.6194 99.8613 12.1903C99.8613 11.7612 99.6909 11.3496 99.3874 11.0462C99.084 10.7427 98.6724 10.5722 98.2433 10.5722Z" fill="black"></path><path d="M106.851 14.4556C108.552 14.4556 110.297 15.5615 110.41 17.7832C110.414 17.8688 110.385 17.9527 110.327 18.0164C110.27 18.0801 110.189 18.1183 110.104 18.1228C109.206 18.1685 105.05 18.1966 103.598 18.1228C103.513 18.1184 103.432 18.0802 103.375 18.0165C103.317 17.9528 103.287 17.8689 103.291 17.7832C103.405 15.5619 105.15 14.4556 106.851 14.4556ZM106.851 10.5722C106.422 10.5722 106.01 10.7427 105.707 11.0462C105.403 11.3496 105.233 11.7612 105.233 12.1903C105.233 12.6194 105.403 13.031 105.707 13.3344C106.01 13.6379 106.422 13.8084 106.851 13.8084C107.28 13.8084 107.692 13.6379 107.995 13.3344C108.298 13.031 108.469 12.6194 108.469 12.1903C108.469 11.7612 108.298 11.3496 107.995 11.0462C107.692 10.7427 107.28 10.5722 106.851 10.5722Z" fill="black"></path><path d="M115.458 14.4556C117.159 14.4556 118.905 15.5615 119.018 17.7832C119.022 17.8688 118.992 17.9527 118.935 18.0164C118.877 18.0801 118.797 18.1183 118.711 18.1228C117.814 18.1685 113.657 18.1966 112.206 18.1228C112.12 18.1184 112.04 18.0802 111.982 18.0165C111.925 17.9528 111.895 17.8689 111.899 17.7832C112.012 15.5619 113.758 14.4556 115.458 14.4556ZM115.458 10.5722C115.029 10.5722 114.618 10.7427 114.314 11.0462C114.011 11.3496 113.84 11.7612 113.84 12.1903C113.84 12.6194 114.011 13.031 114.314 13.3344C114.618 13.6379 115.029 13.8084 115.458 13.8084C115.888 13.8084 116.299 13.6379 116.603 13.3344C116.906 13.031 117.076 12.6194 117.076 12.1903C117.076 11.7612 116.906 11.3496 116.603 11.0462C116.299 10.7427 115.888 10.5722 115.458 10.5722Z" fill="black"></path><path d="M124.066 14.4556C125.767 14.4556 127.512 15.5615 127.625 17.7832C127.63 17.8688 127.6 17.9527 127.542 18.0164C127.485 18.0801 127.405 18.1183 127.319 18.1228C126.421 18.1685 122.265 18.1966 120.813 18.1228C120.728 18.1184 120.647 18.0802 120.59 18.0165C120.532 17.9528 120.502 17.8689 120.507 17.7832C120.62 15.5619 122.365 14.4556 124.066 14.4556ZM124.066 10.5722C123.637 10.5722 123.225 10.7427 122.922 11.0462C122.618 11.3496 122.448 11.7612 122.448 12.1903C122.448 12.6194 122.618 13.031 122.922 13.3344C123.225 13.6379 123.637 13.8084 124.066 13.8084C124.495 13.8084 124.907 13.6379 125.21 13.3344C125.514 13.031 125.684 12.6194 125.684 12.1903C125.684 11.7612 125.514 11.3496 125.21 11.0462C124.907 10.7427 124.495 10.5722 124.066 10.5722Z" fill="black"></path><path d="M132.674 14.4556C134.375 14.4556 136.12 15.5615 136.233 17.7832C136.237 17.8688 136.207 17.9527 136.15 18.0164C136.093 18.0801 136.012 18.1183 135.927 18.1228C135.029 18.1685 130.873 18.1966 129.421 18.1228C129.335 18.1184 129.255 18.0802 129.197 18.0165C129.14 17.9528 129.11 17.8689 129.114 17.7832C129.227 15.5619 130.973 14.4556 132.674 14.4556ZM132.674 10.5722C132.244 10.5722 131.833 10.7427 131.529 11.0462C131.226 11.3496 131.056 11.7612 131.056 12.1903C131.056 12.6194 131.226 13.031 131.529 13.3344C131.833 13.6379 132.244 13.8084 132.674 13.8084C133.103 13.8084 133.514 13.6379 133.818 13.3344C134.121 13.031 134.292 12.6194 134.292 12.1903C134.292 11.7612 134.121 11.3496 133.818 11.0462C133.514 10.7427 133.103 10.5722 132.674 10.5722Z" fill="black"></path><path d="M141.281 14.4556C142.982 14.4556 144.727 15.5615 144.841 17.7832C144.845 17.8688 144.815 17.9527 144.758 18.0164C144.7 18.0801 144.62 18.1183 144.534 18.1228C143.637 18.1685 139.48 18.1966 138.029 18.1228C137.943 18.1184 137.863 18.0802 137.805 18.0165C137.747 17.9528 137.718 17.8689 137.722 17.7832C137.835 15.5619 139.58 14.4556 141.281 14.4556ZM141.281 10.5722C140.852 10.5722 140.441 10.7427 140.137 11.0462C139.834 11.3496 139.663 11.7612 139.663 12.1903C139.663 12.6194 139.834 13.031 140.137 13.3344C140.441 13.6379 140.852 13.8084 141.281 13.8084C141.71 13.8084 142.122 13.6379 142.425 13.3344C142.729 13.031 142.899 12.6194 142.899 12.1903C142.899 11.7612 142.729 11.3496 142.425 11.0462C142.122 10.7427 141.71 10.5722 141.281 10.5722Z" fill="black"></path><path d="M20.7749 25.0278C22.4759 25.0278 24.2212 26.1337 24.3343 28.3554C24.3386 28.4411 24.3088 28.5249 24.2513 28.5886C24.1939 28.6523 24.1135 28.6905 24.0279 28.695C23.1304 28.7407 18.9739 28.7688 17.5224 28.695C17.4367 28.6907 17.3562 28.6524 17.2987 28.5887C17.2412 28.5251 17.2113 28.4411 17.2156 28.3554C17.3287 26.1341 19.074 25.0278 20.7749 25.0278ZM20.7749 21.1445C20.3458 21.1445 19.9342 21.3149 19.6308 21.6184C19.3273 21.9218 19.1569 22.3334 19.1569 22.7625C19.1569 23.1917 19.3273 23.6032 19.6308 23.9067C19.9342 24.2101 20.3458 24.3806 20.7749 24.3806C21.2041 24.3806 21.6156 24.2101 21.9191 23.9067C22.2225 23.6032 22.393 23.1917 22.393 22.7625C22.393 22.3334 22.2225 21.9218 21.9191 21.6184C21.6156 21.3149 21.2041 21.1445 20.7749 21.1445Z" fill="black"></path><path d="M29.3825 25.0278C31.0835 25.0278 32.8288 26.1337 32.9419 28.3554C32.9462 28.4411 32.9164 28.5249 32.8589 28.5886C32.8015 28.6523 32.7211 28.6905 32.6355 28.695C31.738 28.7407 27.5815 28.7688 26.13 28.695C26.0443 28.6907 25.9638 28.6524 25.9063 28.5887C25.8488 28.5251 25.8189 28.4411 25.8232 28.3554C25.9363 26.1341 27.6816 25.0278 29.3825 25.0278ZM29.3825 21.1445C28.9534 21.1445 28.5418 21.3149 28.2384 21.6184C27.935 21.9218 27.7645 22.3334 27.7645 22.7625C27.7645 23.1917 27.935 23.6032 28.2384 23.9067C28.5418 24.2101 28.9534 24.3806 29.3825 24.3806C29.8117 24.3806 30.2232 24.2101 30.5267 23.9067C30.8301 23.6032 31.0006 23.1917 31.0006 22.7625C31.0006 22.3334 30.8301 21.9218 30.5267 21.6184C30.2232 21.3149 29.8117 21.1445 29.3825 21.1445Z" fill="black"></path><path d="M37.9902 25.0278C39.6911 25.0278 41.4364 26.1337 41.5495 28.3554C41.5538 28.4411 41.524 28.5249 41.4666 28.5886C41.4091 28.6523 41.3287 28.6905 41.2431 28.695C40.3456 28.7407 36.1891 28.7688 34.7376 28.695C34.6519 28.6907 34.5714 28.6524 34.5139 28.5887C34.4564 28.5251 34.4265 28.4411 34.4308 28.3554C34.5439 26.1341 36.2892 25.0278 37.9902 25.0278ZM37.9902 21.1445C37.561 21.1445 37.1495 21.3149 36.846 21.6184C36.5426 21.9218 36.3721 22.3334 36.3721 22.7625C36.3721 23.1917 36.5426 23.6032 36.846 23.9067C37.1495 24.2101 37.561 24.3806 37.9902 24.3806C38.4193 24.3806 38.8309 24.2101 39.1343 23.9067C39.4377 23.6032 39.6082 23.1917 39.6082 22.7625C39.6082 22.3334 39.4377 21.9218 39.1343 21.6184C38.8309 21.3149 38.4193 21.1445 37.9902 21.1445Z" fill="black"></path><path d="M46.5978 25.0278C48.2987 25.0278 50.044 26.1337 50.1571 28.3554C50.1614 28.4411 50.1316 28.5249 50.0742 28.5886C50.0167 28.6523 49.9364 28.6905 49.8507 28.695C48.9532 28.7407 44.7967 28.7688 43.3452 28.695C43.2595 28.6907 43.179 28.6524 43.1215 28.5887C43.064 28.5251 43.0341 28.4411 43.0384 28.3554C43.1515 26.1341 44.8968 25.0278 46.5978 25.0278ZM46.5978 21.1445C46.1686 21.1445 45.7571 21.3149 45.4536 21.6184C45.1502 21.9218 44.9797 22.3334 44.9797 22.7625C44.9797 23.1917 45.1502 23.6032 45.4536 23.9067C45.7571 24.2101 46.1686 24.3806 46.5978 24.3806C47.0269 24.3806 47.4385 24.2101 47.7419 23.9067C48.0453 23.6032 48.2158 23.1917 48.2158 22.7625C48.2158 22.3334 48.0453 21.9218 47.7419 21.6184C47.4385 21.3149 47.0269 21.1445 46.5978 21.1445Z" fill="black"></path><path d="M55.2053 25.0278C56.9062 25.0278 58.6516 26.1337 58.7646 28.3554C58.769 28.4411 58.7391 28.5249 58.6817 28.5886C58.6243 28.6523 58.5439 28.6905 58.4583 28.695C57.5608 28.7407 53.4043 28.7688 51.9528 28.695C51.8671 28.6907 51.7866 28.6524 51.7291 28.5887C51.6715 28.5251 51.6416 28.4411 51.646 28.3554C51.759 26.1341 53.5044 25.0278 55.2053 25.0278ZM55.2053 21.1445C54.7762 21.1445 54.3646 21.3149 54.0612 21.6184C53.7577 21.9218 53.5872 22.3334 53.5872 22.7625C53.5872 23.1917 53.7577 23.6032 54.0612 23.9067C54.3646 24.2101 54.7762 24.3806 55.2053 24.3806C55.6344 24.3806 56.046 24.2101 56.3494 23.9067C56.6529 23.6032 56.8234 23.1917 56.8234 22.7625C56.8234 22.3334 56.6529 21.9218 56.3494 21.6184C56.046 21.3149 55.6344 21.1445 55.2053 21.1445Z" fill="black"></path><path d="M63.8129 25.0278C65.5138 25.0278 67.2592 26.1337 67.3722 28.3554C67.3766 28.4411 67.3467 28.5249 67.2893 28.5886C67.2319 28.6523 67.1515 28.6905 67.0659 28.695C66.1684 28.7407 62.0119 28.7688 60.5604 28.695C60.4747 28.6907 60.3942 28.6524 60.3367 28.5887C60.2791 28.5251 60.2492 28.4411 60.2536 28.3554C60.3666 26.1341 62.112 25.0278 63.8129 25.0278ZM63.8129 21.1445C63.3838 21.1445 62.9722 21.3149 62.6688 21.6184C62.3653 21.9218 62.1948 22.3334 62.1948 22.7625C62.1948 23.1917 62.3653 23.6032 62.6688 23.9067C62.9722 24.2101 63.3838 24.3806 63.8129 24.3806C64.242 24.3806 64.6536 24.2101 64.9571 23.9067C65.2605 23.6032 65.431 23.1917 65.431 22.7625C65.431 22.3334 65.2605 21.9218 64.9571 21.6184C64.6536 21.3149 64.242 21.1445 63.8129 21.1445Z" fill="black"></path><path d="M72.4204 25.0278C74.1214 25.0278 75.8667 26.1337 75.9798 28.3554C75.9841 28.4411 75.9543 28.5249 75.8969 28.5886C75.8394 28.6523 75.759 28.6905 75.6734 28.695C74.7759 28.7407 70.6194 28.7688 69.1679 28.695C69.0822 28.6907 69.0017 28.6524 68.9442 28.5887C68.8867 28.5251 68.8568 28.4411 68.8611 28.3554C68.9742 26.1341 70.7195 25.0278 72.4204 25.0278ZM72.4204 21.1445C71.9913 21.1445 71.5797 21.3149 71.2763 21.6184C70.9729 21.9218 70.8024 22.3334 70.8024 22.7625C70.8024 23.1917 70.9729 23.6032 71.2763 23.9067C71.5797 24.2101 71.9913 24.3806 72.4204 24.3806C72.8496 24.3806 73.2611 24.2101 73.5646 23.9067C73.868 23.6032 74.0385 23.1917 74.0385 22.7625C74.0385 22.3334 73.868 21.9218 73.5646 21.6184C73.2611 21.3149 72.8496 21.1445 72.4204 21.1445Z" fill="black"></path><path d="M81.0281 25.0278C82.729 25.0278 84.4743 26.1337 84.5874 28.3554C84.5917 28.4411 84.5619 28.5249 84.5045 28.5886C84.447 28.6523 84.3667 28.6905 84.281 28.695C83.3835 28.7407 79.227 28.7688 77.7755 28.695C77.6898 28.6907 77.6093 28.6524 77.5518 28.5887C77.4943 28.5251 77.4644 28.4411 77.4687 28.3554C77.5818 26.1341 79.3271 25.0278 81.0281 25.0278ZM81.0281 21.1445C80.5989 21.1445 80.1874 21.3149 79.8839 21.6184C79.5805 21.9218 79.41 22.3334 79.41 22.7625C79.41 23.1917 79.5805 23.6032 79.8839 23.9067C80.1874 24.2101 80.5989 24.3806 81.0281 24.3806C81.4572 24.3806 81.8688 24.2101 82.1722 23.9067C82.4756 23.6032 82.6461 23.1917 82.6461 22.7625C82.6461 22.3334 82.4756 21.9218 82.1722 21.6184C81.8688 21.3149 81.4572 21.1445 81.0281 21.1445Z" fill="black"></path><path d="M89.6357 25.0278C91.3366 25.0278 93.0819 26.1337 93.195 28.3554C93.1993 28.4411 93.1695 28.5249 93.1121 28.5886C93.0546 28.6523 92.9743 28.6905 92.8886 28.695C91.9911 28.7407 87.8346 28.7688 86.3831 28.695C86.2974 28.6907 86.2169 28.6524 86.1594 28.5887C86.1019 28.5251 86.072 28.4411 86.0763 28.3554C86.1894 26.1341 87.9347 25.0278 89.6357 25.0278ZM89.6357 21.1445C89.2065 21.1445 88.795 21.3149 88.4915 21.6184C88.1881 21.9218 88.0176 22.3334 88.0176 22.7625C88.0176 23.1917 88.1881 23.6032 88.4915 23.9067C88.795 24.2101 89.2065 24.3806 89.6357 24.3806C90.0648 24.3806 90.4764 24.2101 90.7798 23.9067C91.0833 23.6032 91.2537 23.1917 91.2537 22.7625C91.2537 22.3334 91.0833 21.9218 90.7798 21.6184C90.4764 21.3149 90.0648 21.1445 89.6357 21.1445Z" fill="black"></path><path d="M98.2433 25.0278C99.9442 25.0278 101.69 26.1337 101.803 28.3554C101.807 28.4411 101.777 28.5249 101.72 28.5886C101.662 28.6523 101.582 28.6905 101.496 28.695C100.599 28.7407 96.4422 28.7688 94.9907 28.695C94.905 28.6907 94.8245 28.6524 94.767 28.5887C94.7095 28.5251 94.6796 28.4411 94.6839 28.3554C94.797 26.1341 96.5424 25.0278 98.2433 25.0278ZM98.2433 21.1445C97.8141 21.1445 97.4026 21.3149 97.0991 21.6184C96.7957 21.9218 96.6252 22.3334 96.6252 22.7625C96.6252 23.1917 96.7957 23.6032 97.0991 23.9067C97.4026 24.2101 97.8141 24.3806 98.2433 24.3806C98.6724 24.3806 99.084 24.2101 99.3874 23.9067C99.6909 23.6032 99.8613 23.1917 99.8613 22.7625C99.8613 22.3334 99.6909 21.9218 99.3874 21.6184C99.084 21.3149 98.6724 21.1445 98.2433 21.1445Z" fill="black"></path><path d="M106.851 25.0278C108.552 25.0278 110.297 26.1337 110.41 28.3554C110.415 28.4411 110.385 28.5249 110.327 28.5886C110.27 28.6523 110.189 28.6905 110.104 28.695C109.206 28.7407 105.05 28.7688 103.598 28.695C103.513 28.6907 103.432 28.6524 103.375 28.5887C103.317 28.5251 103.287 28.4411 103.292 28.3554C103.405 26.1341 105.15 25.0278 106.851 25.0278ZM106.851 21.1445C106.422 21.1445 106.01 21.3149 105.707 21.6184C105.403 21.9218 105.233 22.3334 105.233 22.7625C105.233 23.1917 105.403 23.6032 105.707 23.9067C106.01 24.2101 106.422 24.3806 106.851 24.3806C107.28 24.3806 107.692 24.2101 107.995 23.9067C108.298 23.6032 108.469 23.1917 108.469 22.7625C108.469 22.3334 108.298 21.9218 107.995 21.6184C107.692 21.3149 107.28 21.1445 106.851 21.1445Z" fill="black"></path><path d="M115.458 25.0278C117.159 25.0278 118.905 26.1337 119.018 28.3554C119.022 28.4411 118.992 28.5249 118.935 28.5886C118.877 28.6523 118.797 28.6905 118.711 28.695C117.814 28.7407 113.657 28.7688 112.206 28.695C112.12 28.6907 112.04 28.6524 111.982 28.5887C111.925 28.5251 111.895 28.4411 111.899 28.3554C112.012 26.1341 113.758 25.0278 115.458 25.0278ZM115.458 21.1445C115.029 21.1445 114.618 21.3149 114.314 21.6184C114.011 21.9218 113.84 22.3334 113.84 22.7625C113.84 23.1917 114.011 23.6032 114.314 23.9067C114.618 24.2101 115.029 24.3806 115.458 24.3806C115.888 24.3806 116.299 24.2101 116.603 23.9067C116.906 23.6032 117.076 23.1917 117.076 22.7625C117.076 22.3334 116.906 21.9218 116.603 21.6184C116.299 21.3149 115.888 21.1445 115.458 21.1445Z" fill="black"></path><path d="M124.066 25.0278C125.767 25.0278 127.512 26.1337 127.625 28.3554C127.63 28.4411 127.6 28.5249 127.542 28.5886C127.485 28.6523 127.405 28.6905 127.319 28.695C126.421 28.7407 122.265 28.7688 120.813 28.695C120.728 28.6907 120.647 28.6524 120.59 28.5887C120.532 28.5251 120.502 28.4411 120.507 28.3554C120.62 26.1341 122.365 25.0278 124.066 25.0278ZM124.066 21.1445C123.637 21.1445 123.225 21.3149 122.922 21.6184C122.618 21.9218 122.448 22.3334 122.448 22.7625C122.448 23.1917 122.618 23.6032 122.922 23.9067C123.225 24.2101 123.637 24.3806 124.066 24.3806C124.495 24.3806 124.907 24.2101 125.21 23.9067C125.514 23.6032 125.684 23.1917 125.684 22.7625C125.684 22.3334 125.514 21.9218 125.21 21.6184C124.907 21.3149 124.495 21.1445 124.066 21.1445Z" fill="black"></path><path d="M132.674 25.0278C134.375 25.0278 136.12 26.1337 136.233 28.3554C136.237 28.4411 136.207 28.5249 136.15 28.5886C136.093 28.6523 136.012 28.6905 135.927 28.695C135.029 28.7407 130.873 28.7688 129.421 28.695C129.335 28.6907 129.255 28.6524 129.197 28.5887C129.14 28.5251 129.11 28.4411 129.114 28.3554C129.227 26.1341 130.973 25.0278 132.674 25.0278ZM132.674 21.1445C132.244 21.1445 131.833 21.3149 131.529 21.6184C131.226 21.9218 131.056 22.3334 131.056 22.7625C131.056 23.1917 131.226 23.6032 131.529 23.9067C131.833 24.2101 132.244 24.3806 132.674 24.3806C133.103 24.3806 133.514 24.2101 133.818 23.9067C134.121 23.6032 134.292 23.1917 134.292 22.7625C134.292 22.3334 134.121 21.9218 133.818 21.6184C133.514 21.3149 133.103 21.1445 132.674 21.1445Z" fill="black"></path><path d="M29.3825 35.6C31.0835 35.6 32.8288 36.7059 32.9419 38.9277C32.9462 39.0133 32.9164 39.0972 32.8589 39.1608C32.8015 39.2245 32.7211 39.2628 32.6355 39.2672C31.738 39.313 27.5815 39.341 26.13 39.2672C26.0443 39.2629 25.9638 39.2247 25.9063 39.161C25.8488 39.0973 25.8189 39.0134 25.8232 38.9277C25.9363 36.7064 27.6816 35.6 29.3825 35.6ZM29.3825 31.7167C28.9534 31.7167 28.5418 31.8872 28.2384 32.1906C27.935 32.494 27.7645 32.9056 27.7645 33.3347C27.7645 33.7639 27.935 34.1754 28.2384 34.4789C28.5418 34.7823 28.9534 34.9528 29.3825 34.9528C29.8117 34.9528 30.2232 34.7823 30.5267 34.4789C30.8301 34.1754 31.0006 33.7639 31.0006 33.3347C31.0006 32.9056 30.8301 32.494 30.5267 32.1906C30.2232 31.8872 29.8117 31.7167 29.3825 31.7167Z" fill="black"></path><path d="M37.9902 35.6C39.6911 35.6 41.4364 36.7059 41.5495 38.9277C41.5538 39.0133 41.524 39.0972 41.4666 39.1608C41.4091 39.2245 41.3287 39.2628 41.2431 39.2672C40.3456 39.313 36.1891 39.341 34.7376 39.2672C34.6519 39.2629 34.5714 39.2247 34.5139 39.161C34.4564 39.0973 34.4265 39.0134 34.4308 38.9277C34.5439 36.7064 36.2892 35.6 37.9902 35.6ZM37.9902 31.7167C37.561 31.7167 37.1495 31.8872 36.846 32.1906C36.5426 32.494 36.3721 32.9056 36.3721 33.3347C36.3721 33.7639 36.5426 34.1754 36.846 34.4789C37.1495 34.7823 37.561 34.9528 37.9902 34.9528C38.4193 34.9528 38.8309 34.7823 39.1343 34.4789C39.4377 34.1754 39.6082 33.7639 39.6082 33.3347C39.6082 32.9056 39.4377 32.494 39.1343 32.1906C38.8309 31.8872 38.4193 31.7167 37.9902 31.7167Z" fill="black"></path><path d="M46.5978 35.6C48.2987 35.6 50.044 36.7059 50.1571 38.9277C50.1614 39.0133 50.1316 39.0972 50.0742 39.1608C50.0167 39.2245 49.9364 39.2628 49.8507 39.2672C48.9532 39.313 44.7967 39.341 43.3452 39.2672C43.2595 39.2629 43.179 39.2247 43.1215 39.161C43.064 39.0973 43.0341 39.0134 43.0384 38.9277C43.1515 36.7064 44.8968 35.6 46.5978 35.6ZM46.5978 31.7167C46.1686 31.7167 45.7571 31.8872 45.4536 32.1906C45.1502 32.494 44.9797 32.9056 44.9797 33.3347C44.9797 33.7639 45.1502 34.1754 45.4536 34.4789C45.7571 34.7823 46.1686 34.9528 46.5978 34.9528C47.0269 34.9528 47.4385 34.7823 47.7419 34.4789C48.0453 34.1754 48.2158 33.7639 48.2158 33.3347C48.2158 32.9056 48.0453 32.494 47.7419 32.1906C47.4385 31.8872 47.0269 31.7167 46.5978 31.7167Z" fill="black"></path><path d="M55.2053 35.6C56.9062 35.6 58.6516 36.7059 58.7646 38.9277C58.769 39.0133 58.7391 39.0972 58.6817 39.1608C58.6243 39.2245 58.5439 39.2628 58.4583 39.2672C57.5608 39.313 53.4043 39.341 51.9528 39.2672C51.8671 39.2629 51.7866 39.2247 51.7291 39.161C51.6715 39.0973 51.6416 39.0134 51.646 38.9277C51.759 36.7064 53.5044 35.6 55.2053 35.6ZM55.2053 31.7167C54.7762 31.7167 54.3646 31.8872 54.0612 32.1906C53.7577 32.494 53.5872 32.9056 53.5872 33.3347C53.5872 33.7639 53.7577 34.1754 54.0612 34.4789C54.3646 34.7823 54.7762 34.9528 55.2053 34.9528C55.6344 34.9528 56.046 34.7823 56.3494 34.4789C56.6529 34.1754 56.8234 33.7639 56.8234 33.3347C56.8234 32.9056 56.6529 32.494 56.3494 32.1906C56.046 31.8872 55.6344 31.7167 55.2053 31.7167Z" fill="black"></path><path d="M63.8129 35.6C65.5138 35.6 67.2592 36.7059 67.3722 38.9277C67.3766 39.0133 67.3467 39.0972 67.2893 39.1608C67.2319 39.2245 67.1515 39.2628 67.0659 39.2672C66.1684 39.313 62.0119 39.341 60.5604 39.2672C60.4747 39.2629 60.3942 39.2247 60.3367 39.161C60.2791 39.0973 60.2492 39.0134 60.2536 38.9277C60.3666 36.7064 62.112 35.6 63.8129 35.6ZM63.8129 31.7167C63.3838 31.7167 62.9722 31.8872 62.6688 32.1906C62.3653 32.494 62.1948 32.9056 62.1948 33.3347C62.1948 33.7639 62.3653 34.1754 62.6688 34.4789C62.9722 34.7823 63.3838 34.9528 63.8129 34.9528C64.242 34.9528 64.6536 34.7823 64.9571 34.4789C65.2605 34.1754 65.431 33.7639 65.431 33.3347C65.431 32.9056 65.2605 32.494 64.9571 32.1906C64.6536 31.8872 64.242 31.7167 63.8129 31.7167Z" fill="black"></path><path d="M72.4204 35.6C74.1214 35.6 75.8667 36.7059 75.9798 38.9277C75.9841 39.0133 75.9543 39.0972 75.8969 39.1608C75.8394 39.2245 75.759 39.2628 75.6734 39.2672C74.7759 39.313 70.6194 39.341 69.1679 39.2672C69.0822 39.2629 69.0017 39.2247 68.9442 39.161C68.8867 39.0973 68.8568 39.0134 68.8611 38.9277C68.9742 36.7064 70.7195 35.6 72.4204 35.6ZM72.4204 31.7167C71.9913 31.7167 71.5797 31.8872 71.2763 32.1906C70.9729 32.494 70.8024 32.9056 70.8024 33.3347C70.8024 33.7639 70.9729 34.1754 71.2763 34.4789C71.5797 34.7823 71.9913 34.9528 72.4204 34.9528C72.8496 34.9528 73.2611 34.7823 73.5646 34.4789C73.868 34.1754 74.0385 33.7639 74.0385 33.3347C74.0385 32.9056 73.868 32.494 73.5646 32.1906C73.2611 31.8872 72.8496 31.7167 72.4204 31.7167Z" fill="black"></path><path d="M81.0281 35.6C82.729 35.6 84.4743 36.7059 84.5874 38.9277C84.5917 39.0133 84.5619 39.0972 84.5045 39.1608C84.447 39.2245 84.3667 39.2628 84.281 39.2672C83.3835 39.313 79.227 39.341 77.7755 39.2672C77.6898 39.2629 77.6093 39.2247 77.5518 39.161C77.4943 39.0973 77.4644 39.0134 77.4687 38.9277C77.5818 36.7064 79.3271 35.6 81.0281 35.6ZM81.0281 31.7167C80.5989 31.7167 80.1874 31.8872 79.8839 32.1906C79.5805 32.494 79.41 32.9056 79.41 33.3347C79.41 33.7639 79.5805 34.1754 79.8839 34.4789C80.1874 34.7823 80.5989 34.9528 81.0281 34.9528C81.4572 34.9528 81.8688 34.7823 82.1722 34.4789C82.4756 34.1754 82.6461 33.7639 82.6461 33.3347C82.6461 32.9056 82.4756 32.494 82.1722 32.1906C81.8688 31.8872 81.4572 31.7167 81.0281 31.7167Z" fill="black"></path><path d="M89.6357 35.6C91.3366 35.6 93.0819 36.7059 93.195 38.9277C93.1993 39.0133 93.1695 39.0972 93.1121 39.1608C93.0546 39.2245 92.9743 39.2628 92.8886 39.2672C91.9911 39.313 87.8346 39.341 86.3831 39.2672C86.2974 39.2629 86.2169 39.2247 86.1594 39.161C86.1019 39.0973 86.072 39.0134 86.0763 38.9277C86.1894 36.7064 87.9347 35.6 89.6357 35.6ZM89.6357 31.7167C89.2065 31.7167 88.795 31.8872 88.4915 32.1906C88.1881 32.494 88.0176 32.9056 88.0176 33.3347C88.0176 33.7639 88.1881 34.1754 88.4915 34.4789C88.795 34.7823 89.2065 34.9528 89.6357 34.9528C90.0648 34.9528 90.4764 34.7823 90.7798 34.4789C91.0833 34.1754 91.2537 33.7639 91.2537 33.3347C91.2537 32.9056 91.0833 32.494 90.7798 32.1906C90.4764 31.8872 90.0648 31.7167 89.6357 31.7167Z" fill="black"></path><path d="M98.2433 35.6C99.9442 35.6 101.69 36.7059 101.803 38.9277C101.807 39.0133 101.777 39.0972 101.72 39.1608C101.662 39.2245 101.582 39.2628 101.496 39.2672C100.599 39.313 96.4422 39.341 94.9907 39.2672C94.905 39.2629 94.8245 39.2247 94.767 39.161C94.7095 39.0973 94.6796 39.0134 94.6839 38.9277C94.797 36.7064 96.5424 35.6 98.2433 35.6ZM98.2433 31.7167C97.8141 31.7167 97.4026 31.8872 97.0991 32.1906C96.7957 32.494 96.6252 32.9056 96.6252 33.3347C96.6252 33.7639 96.7957 34.1754 97.0991 34.4789C97.4026 34.7823 97.8141 34.9528 98.2433 34.9528C98.6724 34.9528 99.084 34.7823 99.3874 34.4789C99.6909 34.1754 99.8613 33.7639 99.8613 33.3347C99.8613 32.9056 99.6909 32.494 99.3874 32.1906C99.084 31.8872 98.6724 31.7167 98.2433 31.7167Z" fill="black"></path><path d="M106.851 35.6C108.552 35.6 110.297 36.7059 110.41 38.9277C110.415 39.0133 110.385 39.0972 110.327 39.1608C110.27 39.2245 110.189 39.2628 110.104 39.2672C109.206 39.313 105.05 39.341 103.598 39.2672C103.513 39.2629 103.432 39.2247 103.375 39.161C103.317 39.0973 103.287 39.0134 103.292 38.9277C103.405 36.7064 105.15 35.6 106.851 35.6ZM106.851 31.7167C106.422 31.7167 106.01 31.8872 105.707 32.1906C105.403 32.494 105.233 32.9056 105.233 33.3347C105.233 33.7639 105.403 34.1754 105.707 34.4789C106.01 34.7823 106.422 34.9528 106.851 34.9528C107.28 34.9528 107.692 34.7823 107.995 34.4789C108.298 34.1754 108.469 33.7639 108.469 33.3347C108.469 32.9056 108.298 32.494 107.995 32.1906C107.692 31.8872 107.28 31.7167 106.851 31.7167Z" fill="black"></path><path d="M115.458 35.6C117.159 35.6 118.905 36.7059 119.018 38.9277C119.022 39.0133 118.992 39.0972 118.935 39.1608C118.877 39.2245 118.797 39.2628 118.711 39.2672C117.814 39.313 113.657 39.341 112.206 39.2672C112.12 39.2629 112.04 39.2247 111.982 39.161C111.925 39.0973 111.895 39.0134 111.899 38.9277C112.012 36.7064 113.758 35.6 115.458 35.6ZM115.458 31.7167C115.029 31.7167 114.618 31.8872 114.314 32.1906C114.011 32.494 113.84 32.9056 113.84 33.3347C113.84 33.7639 114.011 34.1754 114.314 34.4789C114.618 34.7823 115.029 34.9528 115.458 34.9528C115.888 34.9528 116.299 34.7823 116.603 34.4789C116.906 34.1754 117.077 33.7639 117.077 33.3347C117.077 32.9056 116.906 32.494 116.603 32.1906C116.299 31.8872 115.888 31.7167 115.458 31.7167Z" fill="black"></path><path d="M124.066 35.6C125.767 35.6 127.512 36.7059 127.625 38.9277C127.63 39.0133 127.6 39.0972 127.542 39.1608C127.485 39.2245 127.405 39.2628 127.319 39.2672C126.421 39.313 122.265 39.341 120.813 39.2672C120.728 39.2629 120.647 39.2247 120.59 39.161C120.532 39.0973 120.502 39.0134 120.507 38.9277C120.62 36.7064 122.365 35.6 124.066 35.6ZM124.066 31.7167C123.637 31.7167 123.225 31.8872 122.922 32.1906C122.618 32.494 122.448 32.9056 122.448 33.3347C122.448 33.7639 122.618 34.1754 122.922 34.4789C123.225 34.7823 123.637 34.9528 124.066 34.9528C124.495 34.9528 124.907 34.7823 125.21 34.4789C125.514 34.1754 125.684 33.7639 125.684 33.3347C125.684 32.9056 125.514 32.494 125.21 32.1906C124.907 31.8872 124.495 31.7167 124.066 31.7167Z" fill="black"></path><path d="M42.2939 46.1723C43.9948 46.1723 45.7401 47.2782 45.8532 49.4999C45.8575 49.5855 45.8277 49.6694 45.7703 49.7331C45.7128 49.7967 45.6325 49.835 45.5468 49.8395C44.6493 49.8852 40.4928 49.9132 39.0413 49.8395C38.9556 49.8351 38.8751 49.7969 38.8176 49.7332C38.7601 49.6695 38.7302 49.5856 38.7345 49.4999C38.8476 47.2786 40.593 46.1723 42.2939 46.1723ZM42.2939 42.2889C41.8647 42.2889 41.4532 42.4594 41.1497 42.7628C40.8463 43.0663 40.6758 43.4778 40.6758 43.907C40.6758 44.3361 40.8463 44.7477 41.1497 45.0511C41.4532 45.3546 41.8647 45.525 42.2939 45.525C42.723 45.525 43.1346 45.3546 43.438 45.0511C43.7415 44.7477 43.9119 44.3361 43.9119 43.907C43.9119 43.4778 43.7415 43.0663 43.438 42.7628C43.1346 42.4594 42.723 42.2889 42.2939 42.2889Z" fill="black"></path><path d="M50.9015 46.1723C52.6024 46.1723 54.3477 47.2782 54.4608 49.4999C54.4651 49.5855 54.4353 49.6694 54.3779 49.7331C54.3204 49.7967 54.2401 49.835 54.1544 49.8395C53.2569 49.8852 49.1005 49.9132 47.6489 49.8395C47.5632 49.8351 47.4828 49.7969 47.4252 49.7332C47.3677 49.6695 47.3378 49.5856 47.3422 49.4999C47.4552 47.2786 49.2006 46.1723 50.9015 46.1723ZM50.9015 42.2889C50.4723 42.2889 50.0608 42.4594 49.7573 42.7628C49.4539 43.0663 49.2834 43.4778 49.2834 43.907C49.2834 44.3361 49.4539 44.7477 49.7573 45.0511C50.0608 45.3546 50.4723 45.525 50.9015 45.525C51.3306 45.525 51.7422 45.3546 52.0456 45.0511C52.3491 44.7477 52.5195 44.3361 52.5195 43.907C52.5195 43.4778 52.3491 43.0663 52.0456 42.7628C51.7422 42.4594 51.3306 42.2889 50.9015 42.2889Z" fill="black"></path><path d="M59.5091 46.1723C61.21 46.1723 62.9553 47.2782 63.0684 49.4999C63.0727 49.5855 63.0429 49.6694 62.9855 49.7331C62.928 49.7967 62.8477 49.835 62.762 49.8395C61.8645 49.8852 57.7081 49.9132 56.2565 49.8395C56.1708 49.8351 56.0904 49.7969 56.0328 49.7332C55.9753 49.6695 55.9454 49.5856 55.9498 49.4999C56.0628 47.2786 57.8082 46.1723 59.5091 46.1723ZM59.5091 42.2889C59.0799 42.2889 58.6684 42.4594 58.3649 42.7628C58.0615 43.0663 57.891 43.4778 57.891 43.907C57.891 44.3361 58.0615 44.7477 58.3649 45.0511C58.6684 45.3546 59.0799 45.525 59.5091 45.525C59.9382 45.525 60.3498 45.3546 60.6532 45.0511C60.9567 44.7477 61.1271 44.3361 61.1271 43.907C61.1271 43.4778 60.9567 43.0663 60.6532 42.7628C60.3498 42.4594 59.9382 42.2889 59.5091 42.2889Z" fill="black"></path><path d="M68.1167 46.1723C69.8176 46.1723 71.5629 47.2782 71.676 49.4999C71.6803 49.5855 71.6505 49.6694 71.5931 49.7331C71.5356 49.7967 71.4553 49.835 71.3696 49.8395C70.4722 49.8852 66.3157 49.9132 64.8641 49.8395C64.7784 49.8351 64.698 49.7969 64.6404 49.7332C64.5829 49.6695 64.553 49.5856 64.5574 49.4999C64.6704 47.2786 66.4158 46.1723 68.1167 46.1723ZM68.1167 42.2889C67.6875 42.2889 67.276 42.4594 66.9725 42.7628C66.6691 43.0663 66.4986 43.4778 66.4986 43.907C66.4986 44.3361 66.6691 44.7477 66.9725 45.0511C67.276 45.3546 67.6875 45.525 68.1167 45.525C68.5458 45.525 68.9574 45.3546 69.2608 45.0511C69.5643 44.7477 69.7347 44.3361 69.7347 43.907C69.7347 43.4778 69.5643 43.0663 69.2608 42.7628C68.9574 42.4594 68.5458 42.2889 68.1167 42.2889Z" fill="black"></path><path d="M76.7242 46.1723C78.4251 46.1723 80.1705 47.2782 80.2835 49.4999C80.2879 49.5855 80.2581 49.6694 80.2006 49.7331C80.1432 49.7967 80.0628 49.835 79.9772 49.8395C79.0797 49.8852 74.9232 49.9132 73.4717 49.8395C73.386 49.8351 73.3055 49.7969 73.248 49.7332C73.1904 49.6695 73.1606 49.5856 73.1649 49.4999C73.278 47.2786 75.0233 46.1723 76.7242 46.1723ZM76.7242 42.2889C76.2951 42.2889 75.8835 42.4594 75.5801 42.7628C75.2766 43.0663 75.1062 43.4778 75.1062 43.907C75.1062 44.3361 75.2766 44.7477 75.5801 45.0511C75.8835 45.3546 76.2951 45.525 76.7242 45.525C77.1534 45.525 77.5649 45.3546 77.8684 45.0511C78.1718 44.7477 78.3423 44.3361 78.3423 43.907C78.3423 43.4778 78.1718 43.0663 77.8684 42.7628C77.5649 42.4594 77.1534 42.2889 76.7242 42.2889Z" fill="black"></path><path d="M85.3318 46.1723C87.0327 46.1723 88.7781 47.2782 88.8911 49.4999C88.8955 49.5855 88.8657 49.6694 88.8082 49.7331C88.7508 49.7967 88.6704 49.835 88.5848 49.8395C87.6873 49.8852 83.5308 49.9132 82.0793 49.8395C81.9936 49.8351 81.9131 49.7969 81.8556 49.7332C81.798 49.6695 81.7682 49.5856 81.7725 49.4999C81.8856 47.2786 83.6309 46.1723 85.3318 46.1723ZM85.3318 42.2889C84.9027 42.2889 84.4911 42.4594 84.1877 42.7628C83.8842 43.0663 83.7138 43.4778 83.7138 43.907C83.7138 44.3361 83.8842 44.7477 84.1877 45.0511C84.4911 45.3546 84.9027 45.525 85.3318 45.525C85.761 45.525 86.1725 45.3546 86.476 45.0511C86.7794 44.7477 86.9499 44.3361 86.9499 43.907C86.9499 43.4778 86.7794 43.0663 86.476 42.7628C86.1725 42.4594 85.761 42.2889 85.3318 42.2889Z" fill="black"></path><path d="M93.9394 46.1723C95.6403 46.1723 97.3857 47.2782 97.4987 49.4999C97.5031 49.5855 97.4733 49.6694 97.4158 49.7331C97.3584 49.7967 97.278 49.835 97.1924 49.8395C96.2949 49.8852 92.1384 49.9132 90.6869 49.8395C90.6012 49.8351 90.5207 49.7969 90.4632 49.7332C90.4057 49.6695 90.3758 49.5856 90.3801 49.4999C90.4932 47.2786 92.2385 46.1723 93.9394 46.1723ZM93.9394 42.2889C93.5103 42.2889 93.0987 42.4594 92.7953 42.7628C92.4918 43.0663 92.3214 43.4778 92.3214 43.907C92.3214 44.3361 92.4918 44.7477 92.7953 45.0511C93.0987 45.3546 93.5103 45.525 93.9394 45.525C94.3686 45.525 94.7801 45.3546 95.0836 45.0511C95.387 44.7477 95.5575 44.3361 95.5575 43.907C95.5575 43.4778 95.387 43.0663 95.0836 42.7628C94.7801 42.4594 94.3686 42.2889 93.9394 42.2889Z" fill="black"></path><path d="M102.547 46.1723C104.248 46.1723 105.993 47.2782 106.106 49.4999C106.111 49.5855 106.081 49.6694 106.023 49.7331C105.966 49.7967 105.886 49.835 105.8 49.8395C104.903 49.8852 100.746 49.9132 99.2945 49.8395C99.2088 49.8351 99.1283 49.7969 99.0708 49.7332C99.0133 49.6695 98.9834 49.5856 98.9877 49.4999C99.1008 47.2786 100.846 46.1723 102.547 46.1723ZM102.547 42.2889C102.118 42.2889 101.706 42.4594 101.403 42.7628C101.099 43.0663 100.929 43.4778 100.929 43.907C100.929 44.3361 101.099 44.7477 101.403 45.0511C101.706 45.3546 102.118 45.525 102.547 45.525C102.976 45.525 103.388 45.3546 103.691 45.0511C103.995 44.7477 104.165 44.3361 104.165 43.907C104.165 43.4778 103.995 43.0663 103.691 42.7628C103.388 42.4594 102.976 42.2889 102.547 42.2889Z" fill="black"></path><path d="M111.155 46.1723C112.856 46.1723 114.601 47.2782 114.714 49.4999C114.718 49.5855 114.688 49.6694 114.631 49.7331C114.574 49.7967 114.493 49.835 114.408 49.8395C113.51 49.8852 109.354 49.9132 107.902 49.8395C107.816 49.8351 107.736 49.7969 107.678 49.7332C107.621 49.6695 107.591 49.5856 107.595 49.4999C107.708 47.2786 109.454 46.1723 111.155 46.1723ZM111.155 42.2889C110.726 42.2889 110.314 42.4594 110.01 42.7628C109.707 43.0663 109.537 43.4778 109.537 43.907C109.537 44.3361 109.707 44.7477 110.01 45.0511C110.314 45.3546 110.726 45.525 111.155 45.525C111.584 45.525 111.995 45.3546 112.299 45.0511C112.602 44.7477 112.773 44.3361 112.773 43.907C112.773 43.4778 112.602 43.0663 112.299 42.7628C111.995 42.4594 111.584 42.2889 111.155 42.2889Z" fill="black"></path><path d="M50.9015 56.7445C52.6024 56.7445 54.3477 57.8504 54.4608 60.0721C54.4651 60.1577 54.4353 60.2416 54.3779 60.3053C54.3204 60.369 54.2401 60.4072 54.1544 60.4117C53.2569 60.4574 49.1005 60.4855 47.6489 60.4117C47.5632 60.4073 47.4828 60.3691 47.4252 60.3054C47.3677 60.2417 47.3378 60.1578 47.3422 60.0721C47.4552 57.8508 49.2006 56.7445 50.9015 56.7445ZM50.9015 52.8611C50.4723 52.8611 50.0608 53.0316 49.7573 53.3351C49.4539 53.6385 49.2834 54.0501 49.2834 54.4792C49.2834 54.9083 49.4539 55.3199 49.7573 55.6234C50.0608 55.9268 50.4723 56.0973 50.9015 56.0973C51.3306 56.0973 51.7422 55.9268 52.0456 55.6234C52.3491 55.3199 52.5195 54.9083 52.5195 54.4792C52.5195 54.0501 52.3491 53.6385 52.0456 53.3351C51.7422 53.0316 51.3306 52.8611 50.9015 52.8611Z" fill="black"></path><path d="M59.5091 56.7445C61.21 56.7445 62.9553 57.8504 63.0684 60.0721C63.0727 60.1577 63.0429 60.2416 62.9855 60.3053C62.928 60.369 62.8477 60.4072 62.762 60.4117C61.8645 60.4574 57.7081 60.4855 56.2565 60.4117C56.1708 60.4073 56.0904 60.3691 56.0328 60.3054C55.9753 60.2417 55.9454 60.1578 55.9498 60.0721C56.0628 57.8508 57.8082 56.7445 59.5091 56.7445ZM59.5091 52.8611C59.0799 52.8611 58.6684 53.0316 58.3649 53.3351C58.0615 53.6385 57.891 54.0501 57.891 54.4792C57.891 54.9083 58.0615 55.3199 58.3649 55.6234C58.6684 55.9268 59.0799 56.0973 59.5091 56.0973C59.9382 56.0973 60.3498 55.9268 60.6532 55.6234C60.9567 55.3199 61.1271 54.9083 61.1271 54.4792C61.1271 54.0501 60.9567 53.6385 60.6532 53.3351C60.3498 53.0316 59.9382 52.8611 59.5091 52.8611Z" fill="black"></path><path d="M68.1167 56.7445C69.8176 56.7445 71.5629 57.8504 71.676 60.0721C71.6803 60.1577 71.6505 60.2416 71.5931 60.3053C71.5356 60.369 71.4553 60.4072 71.3696 60.4117C70.4722 60.4574 66.3157 60.4855 64.8641 60.4117C64.7784 60.4073 64.698 60.3691 64.6404 60.3054C64.5829 60.2417 64.553 60.1578 64.5574 60.0721C64.6704 57.8508 66.4158 56.7445 68.1167 56.7445ZM68.1167 52.8611C67.6875 52.8611 67.276 53.0316 66.9725 53.3351C66.6691 53.6385 66.4986 54.0501 66.4986 54.4792C66.4986 54.9083 66.6691 55.3199 66.9725 55.6234C67.276 55.9268 67.6875 56.0973 68.1167 56.0973C68.5458 56.0973 68.9574 55.9268 69.2608 55.6234C69.5643 55.3199 69.7347 54.9083 69.7347 54.4792C69.7347 54.0501 69.5643 53.6385 69.2608 53.3351C68.9574 53.0316 68.5458 52.8611 68.1167 52.8611Z" fill="black"></path><path d="M76.7243 56.7445C78.4252 56.7445 80.1706 57.8504 80.2836 60.0721C80.2879 60.1577 80.2581 60.2416 80.2007 60.3053C80.1432 60.369 80.0629 60.4072 79.9772 60.4117C79.0798 60.4574 74.9233 60.4855 73.4718 60.4117C73.386 60.4073 73.3056 60.3691 73.248 60.3054C73.1905 60.2417 73.1606 60.1578 73.165 60.0721C73.278 57.8508 75.0234 56.7445 76.7243 56.7445ZM76.7243 52.8611C76.2951 52.8611 75.8836 53.0316 75.5801 53.3351C75.2767 53.6385 75.1062 54.0501 75.1062 54.4792C75.1062 54.9083 75.2767 55.3199 75.5801 55.6234C75.8836 55.9268 76.2951 56.0973 76.7243 56.0973C77.1534 56.0973 77.565 55.9268 77.8684 55.6234C78.1719 55.3199 78.3424 54.9083 78.3424 54.4792C78.3424 54.0501 78.1719 53.6385 77.8684 53.3351C77.565 53.0316 77.1534 52.8611 76.7243 52.8611Z" fill="black"></path><path d="M85.3318 56.7445C87.0327 56.7445 88.7781 57.8504 88.8911 60.0721C88.8955 60.1577 88.8657 60.2416 88.8082 60.3053C88.7508 60.369 88.6704 60.4072 88.5848 60.4117C87.6873 60.4574 83.5308 60.4855 82.0793 60.4117C81.9936 60.4073 81.9131 60.3691 81.8556 60.3054C81.798 60.2417 81.7682 60.1578 81.7725 60.0721C81.8856 57.8508 83.6309 56.7445 85.3318 56.7445ZM85.3318 52.8611C84.9027 52.8611 84.4911 53.0316 84.1877 53.3351C83.8842 53.6385 83.7138 54.0501 83.7138 54.4792C83.7138 54.9083 83.8842 55.3199 84.1877 55.6234C84.4911 55.9268 84.9027 56.0973 85.3318 56.0973C85.761 56.0973 86.1725 55.9268 86.476 55.6234C86.7794 55.3199 86.9499 54.9083 86.9499 54.4792C86.9499 54.0501 86.7794 53.6385 86.476 53.3351C86.1725 53.0316 85.761 52.8611 85.3318 52.8611Z" fill="black"></path><path d="M93.9394 56.7445C95.6403 56.7445 97.3857 57.8504 97.4987 60.0721C97.5031 60.1577 97.4733 60.2416 97.4158 60.3053C97.3584 60.369 97.278 60.4072 97.1924 60.4117C96.2949 60.4574 92.1384 60.4855 90.6869 60.4117C90.6012 60.4073 90.5207 60.3691 90.4632 60.3054C90.4057 60.2417 90.3758 60.1578 90.3801 60.0721C90.4932 57.8508 92.2385 56.7445 93.9394 56.7445ZM93.9394 52.8611C93.5103 52.8611 93.0987 53.0316 92.7953 53.3351C92.4918 53.6385 92.3214 54.0501 92.3214 54.4792C92.3214 54.9083 92.4918 55.3199 92.7953 55.6234C93.0987 55.9268 93.5103 56.0973 93.9394 56.0973C94.3686 56.0973 94.7801 55.9268 95.0836 55.6234C95.387 55.3199 95.5575 54.9083 95.5575 54.4792C95.5575 54.0501 95.387 53.6385 95.0836 53.3351C94.7801 53.0316 94.3686 52.8611 93.9394 52.8611Z" fill="black"></path><path d="M102.547 56.7445C104.248 56.7445 105.993 57.8504 106.106 60.0721C106.111 60.1577 106.081 60.2416 106.023 60.3053C105.966 60.369 105.886 60.4072 105.8 60.4117C104.903 60.4574 100.746 60.4855 99.2945 60.4117C99.2088 60.4073 99.1283 60.3691 99.0708 60.3054C99.0133 60.2417 98.9834 60.1578 98.9877 60.0721C99.1008 57.8508 100.846 56.7445 102.547 56.7445ZM102.547 52.8611C102.118 52.8611 101.706 53.0316 101.403 53.3351C101.099 53.6385 100.929 54.0501 100.929 54.4792C100.929 54.9083 101.099 55.3199 101.403 55.6234C101.706 55.9268 102.118 56.0973 102.547 56.0973C102.976 56.0973 103.388 55.9268 103.691 55.6234C103.995 55.3199 104.165 54.9083 104.165 54.4792C104.165 54.0501 103.995 53.6385 103.691 53.3351C103.388 53.0316 102.976 52.8611 102.547 52.8611Z" fill="black"></path><path d="M59.5091 67.3167C61.21 67.3167 62.9553 68.4226 63.0684 70.6443C63.0727 70.73 63.0429 70.8138 62.9855 70.8775C62.928 70.9412 62.8477 70.9795 62.762 70.9839C61.8645 71.0297 57.7081 71.0577 56.2565 70.9839C56.1708 70.9796 56.0904 70.9413 56.0328 70.8777C55.9753 70.814 55.9454 70.73 55.9498 70.6443C56.0628 68.4231 57.8082 67.3167 59.5091 67.3167ZM59.5091 63.4334C59.0799 63.4334 58.6684 63.6038 58.3649 63.9073C58.0615 64.2107 57.891 64.6223 57.891 65.0514C57.891 65.4806 58.0615 65.8921 58.3649 66.1956C58.6684 66.499 59.0799 66.6695 59.5091 66.6695C59.9382 66.6695 60.3498 66.499 60.6532 66.1956C60.9567 65.8921 61.1271 65.4806 61.1271 65.0514C61.1271 64.6223 60.9567 64.2107 60.6532 63.9073C60.3498 63.6038 59.9382 63.4334 59.5091 63.4334Z" fill="black"></path><path d="M68.1167 67.3167C69.8176 67.3167 71.5629 68.4226 71.676 70.6443C71.6803 70.73 71.6505 70.8138 71.5931 70.8775C71.5356 70.9412 71.4553 70.9795 71.3696 70.9839C70.4722 71.0297 66.3157 71.0577 64.8641 70.9839C64.7784 70.9796 64.698 70.9413 64.6404 70.8777C64.5829 70.814 64.553 70.73 64.5574 70.6443C64.6704 68.4231 66.4158 67.3167 68.1167 67.3167ZM68.1167 63.4334C67.6875 63.4334 67.276 63.6038 66.9725 63.9073C66.6691 64.2107 66.4986 64.6223 66.4986 65.0514C66.4986 65.4806 66.6691 65.8921 66.9725 66.1956C67.276 66.499 67.6875 66.6695 68.1167 66.6695C68.5458 66.6695 68.9574 66.499 69.2608 66.1956C69.5643 65.8921 69.7347 65.4806 69.7347 65.0514C69.7347 64.6223 69.5643 64.2107 69.2608 63.9073C68.9574 63.6038 68.5458 63.4334 68.1167 63.4334Z" fill="black"></path><path d="M76.7243 67.3167C78.4252 67.3167 80.1706 68.4226 80.2836 70.6443C80.2879 70.73 80.2581 70.8138 80.2007 70.8775C80.1432 70.9412 80.0629 70.9795 79.9772 70.9839C79.0798 71.0297 74.9233 71.0577 73.4718 70.9839C73.386 70.9796 73.3056 70.9413 73.248 70.8777C73.1905 70.814 73.1606 70.73 73.165 70.6443C73.278 68.4231 75.0234 67.3167 76.7243 67.3167ZM76.7243 63.4334C76.2951 63.4334 75.8836 63.6038 75.5801 63.9073C75.2767 64.2107 75.1062 64.6223 75.1062 65.0514C75.1062 65.4806 75.2767 65.8921 75.5801 66.1956C75.8836 66.499 76.2951 66.6695 76.7243 66.6695C77.1534 66.6695 77.565 66.499 77.8684 66.1956C78.1719 65.8921 78.3424 65.4806 78.3424 65.0514C78.3424 64.6223 78.1719 64.2107 77.8684 63.9073C77.565 63.6038 77.1534 63.4334 76.7243 63.4334Z" fill="black"></path><path d="M85.3319 67.3167C87.0328 67.3167 88.7782 68.4226 88.8912 70.6443C88.8956 70.73 88.8657 70.8138 88.8083 70.8775C88.7508 70.9412 88.6705 70.9795 88.5849 70.9839C87.6874 71.0297 83.5309 71.0577 82.0794 70.9839C81.9936 70.9796 81.9132 70.9413 81.8556 70.8777C81.7981 70.814 81.7682 70.73 81.7726 70.6443C81.8856 68.4231 83.631 67.3167 85.3319 67.3167ZM85.3319 63.4334C84.9027 63.4334 84.4912 63.6038 84.1877 63.9073C83.8843 64.2107 83.7138 64.6223 83.7138 65.0514C83.7138 65.4806 83.8843 65.8921 84.1877 66.1956C84.4912 66.499 84.9027 66.6695 85.3319 66.6695C85.761 66.6695 86.1726 66.499 86.476 66.1956C86.7795 65.8921 86.95 65.4806 86.95 65.0514C86.95 64.6223 86.7795 64.2107 86.476 63.9073C86.1726 63.6038 85.761 63.4334 85.3319 63.4334Z" fill="black"></path><path d="M93.9394 67.3167C95.6403 67.3167 97.3857 68.4226 97.4987 70.6443C97.5031 70.73 97.4733 70.8138 97.4158 70.8775C97.3584 70.9412 97.278 70.9795 97.1924 70.9839C96.2949 71.0297 92.1384 71.0577 90.6869 70.9839C90.6012 70.9796 90.5207 70.9413 90.4632 70.8777C90.4057 70.814 90.3758 70.73 90.3801 70.6443C90.4932 68.4231 92.2385 67.3167 93.9394 67.3167ZM93.9394 63.4334C93.5103 63.4334 93.0987 63.6038 92.7953 63.9073C92.4918 64.2107 92.3214 64.6223 92.3214 65.0514C92.3214 65.4806 92.4918 65.8921 92.7953 66.1956C93.0987 66.499 93.5103 66.6695 93.9394 66.6695C94.3686 66.6695 94.7801 66.499 95.0836 66.1956C95.387 65.8921 95.5575 65.4806 95.5575 65.0514C95.5575 64.6223 95.387 64.2107 95.0836 63.9073C94.7801 63.6038 94.3686 63.4334 93.9394 63.4334Z" fill="black"></path></svg> 