<?xml version="1.0" encoding="UTF-8"?> <svg xmlns="http://www.w3.org/2000/svg" width="93" height="23" viewBox="0 0 93 23" fill="none"><path d="M0.607651 22.2236L0.117007 22.1274L3.78489e-06 22.7236H0.607651V22.2236ZM4.87035 0.5V0H4.45892L4.3797 0.403725L4.87035 0.5ZM10.9641 0.5L11.455 0.404999L11.3766 0H10.9641V0.5ZM15.1682 22.2236V22.7236H15.7742L15.6591 22.1286L15.1682 22.2236ZM11.0227 22.2236L10.5313 22.3158L10.6077 22.7236H11.0227V22.2236ZM10.2756 18.2393L10.7671 18.1471L10.6906 17.7393H10.2756V18.2393ZM5.38304 18.2393V17.7393H4.96507L4.89096 18.1506L5.38304 18.2393ZM4.66527 22.2236V22.7236H5.08324L5.15735 22.3123L4.66527 22.2236ZM5.98363 14.8115L5.4915 14.7232L5.38587 15.3115H5.98363V14.8115ZM9.73363 14.8115V15.3115H10.3262L10.2265 14.7274L9.73363 14.8115ZM8.04906 4.93848L8.54193 4.85438L8.47097 4.43848H8.04906V4.93848ZM7.75609 4.93848V4.43848H7.33786L7.26396 4.85013L7.75609 4.93848ZM0.607651 22.2236L1.09829 22.3199L5.36099 0.596275L4.87035 0.5L4.3797 0.403725L0.117007 22.1274L0.607651 22.2236ZM4.87035 0.5V1H10.9641V0.5V0H4.87035V0.5ZM10.9641 0.5L10.4732 0.595001L14.6773 22.3186L15.1682 22.2236L15.6591 22.1286L11.455 0.404999L10.9641 0.5ZM15.1682 22.2236V21.7236H11.0227V22.2236V22.7236H15.1682V22.2236ZM11.0227 22.2236L11.5141 22.1315L10.7671 18.1471L10.2756 18.2393L9.78418 18.3314L10.5313 22.3158L11.0227 22.2236ZM10.2756 18.2393V17.7393H5.38304V18.2393V18.7393H10.2756V18.2393ZM5.38304 18.2393L4.89096 18.1506L4.17319 22.135L4.66527 22.2236L5.15735 22.3123L5.87512 18.3279L5.38304 18.2393ZM4.66527 22.2236V21.7236H0.607651V22.2236V22.7236H4.66527V22.2236ZM5.98363 14.8115V15.3115H9.73363V14.8115V14.3115H5.98363V14.8115ZM9.73363 14.8115L10.2265 14.7274L8.54193 4.85438L8.04906 4.93848L7.55618 5.02257L9.24075 14.8956L9.73363 14.8115ZM8.04906 4.93848V4.43848H7.75609V4.93848V5.43848H8.04906V4.93848ZM7.75609 4.93848L7.26396 4.85013L5.4915 14.7232L5.98363 14.8115L6.47576 14.8999L8.24822 5.02683L7.75609 4.93848ZM17.2629 22.2236H16.7629V22.7236H17.2629V22.2236ZM17.2629 0.5V0H16.7629V0.5H17.2629ZM21.4377 0.5H21.9377V0H21.4377V0.5ZM21.4377 22.2236V22.7236H21.9377V22.2236H21.4377ZM17.2629 22.2236H17.7629V0.5H17.2629H16.7629V22.2236H17.2629ZM17.2629 0.5V1H21.4377V0.5V0H17.2629V0.5ZM21.4377 0.5H20.9377V22.2236H21.4377H21.9377V0.5H21.4377ZM21.4377 22.2236V21.7236H17.2629V22.2236V22.7236H21.4377V22.2236ZM25.3196 21.623L24.966 21.9766L24.9703 21.9808L25.3196 21.623ZM36.2619 1.11523L35.9041 1.4646L35.9127 1.47302L36.2619 1.11523ZM36.8772 7.10645L37.0191 7.58588L37.3772 7.47988V7.10645H36.8772ZM32.8196 8.30762H32.3196V8.97708L32.9615 8.78705L32.8196 8.30762ZM32.8196 3.86914H33.3196V3.36914H32.8196V3.86914ZM28.7766 3.86914V3.36914H28.2766V3.86914H28.7766ZM28.7766 18.8691H28.2766V19.3691H28.7766V18.8691ZM32.8196 18.8691V19.3691H33.3196V18.8691H32.8196ZM32.8196 15.6904L32.6776 15.211L32.3196 15.317V15.6904H32.8196ZM36.8772 14.4893H37.3772V13.8198L36.7353 14.0098L36.8772 14.4893ZM36.2619 21.623L35.9127 21.2652L35.9084 21.2695L36.2619 21.623ZM26.8577 22.2236V21.7236C26.3624 21.7236 25.9783 21.5674 25.6688 21.2653L25.3196 21.623L24.9703 21.9808C25.4811 22.4795 26.1224 22.7236 26.8577 22.7236V22.2236ZM25.3196 21.623L25.6731 21.2695C25.3751 20.9715 25.219 20.5949 25.219 20.0996H24.719H24.219C24.219 20.8348 24.4633 21.4739 24.966 21.9766L25.3196 21.623ZM24.719 20.0996H25.219V2.63867H24.719H24.219V20.0996H24.719ZM24.719 2.63867H25.219C25.219 2.14339 25.3751 1.76683 25.6731 1.46879L25.3196 1.11523L24.966 0.761681C24.4633 1.26442 24.219 1.90348 24.219 2.63867H24.719ZM25.3196 1.11523L25.6731 1.46879C25.9834 1.15853 26.3661 1 26.8577 1V0.5V0C26.1187 0 25.4761 0.251627 24.966 0.761681L25.3196 1.11523ZM26.8577 0.5V1H34.7385V0.5V0H26.8577V0.5ZM34.7385 0.5V1C35.23 1 35.6053 1.15831 35.9042 1.4645L36.2619 1.11523L36.6197 0.765966C36.1179 0.251844 35.4775 0 34.7385 0V0.5ZM36.2619 1.11523L35.9127 1.47302C36.2189 1.77192 36.3772 2.14716 36.3772 2.63867H36.8772H37.3772C37.3772 1.89971 37.1253 1.25933 36.6112 0.757448L36.2619 1.11523ZM36.8772 2.63867H36.3772V7.10645H36.8772H37.3772V2.63867H36.8772ZM36.8772 7.10645L36.7353 6.62701L32.6776 7.82818L32.8196 8.30762L32.9615 8.78705L37.0191 7.58588L36.8772 7.10645ZM32.8196 8.30762H33.3196V3.86914H32.8196H32.3196V8.30762H32.8196ZM32.8196 3.86914V3.36914H28.7766V3.86914V4.36914H32.8196V3.86914ZM28.7766 3.86914H28.2766V18.8691H28.7766H29.2766V3.86914H28.7766ZM28.7766 18.8691V19.3691H32.8196V18.8691V18.3691H28.7766V18.8691ZM32.8196 18.8691H33.3196V15.6904H32.8196H32.3196V18.8691H32.8196ZM32.8196 15.6904L32.9615 16.1699L37.0191 14.9687L36.8772 14.4893L36.7353 14.0098L32.6776 15.211L32.8196 15.6904ZM36.8772 14.4893H36.3772V20.0996H36.8772H37.3772V14.4893H36.8772ZM36.8772 20.0996H36.3772C36.3772 20.5911 36.2189 20.9664 35.9127 21.2653L36.2619 21.623L36.6112 21.9808C37.1253 21.479 37.3772 20.8386 37.3772 20.0996H36.8772ZM36.2619 21.623L35.9084 21.2695C35.6104 21.5675 35.2338 21.7236 34.7385 21.7236V22.2236V22.7236C35.4737 22.7236 36.1128 22.4793 36.6155 21.9766L36.2619 21.623ZM34.7385 22.2236V21.7236H26.8577V22.2236V22.7236H34.7385V22.2236ZM39.9973 16.2764L39.8565 15.7966L39.4973 15.902V16.2764H39.9973ZM44.0403 15.0898H44.5403V14.422L43.8995 14.6101L44.0403 15.0898ZM44.0403 18.8691H43.5403V19.3691H44.0403V18.8691ZM47.966 18.8691V19.3691H48.466V18.8691H47.966ZM47.966 12.7168H48.466V12.2168H47.966V12.7168ZM40.466 12.1162L40.1082 12.4656L40.1168 12.474L40.466 12.1162ZM51.3205 1.11523L50.9627 1.4646L50.9713 1.47302L51.3205 1.11523ZM51.9358 6.19824L52.0777 6.67768L52.4358 6.57168V6.19824H51.9358ZM47.8782 7.39941H47.3782V8.06888L48.0201 7.87885L47.8782 7.39941ZM47.8782 3.86914H48.3782V3.36914H47.8782V3.86914ZM43.9231 3.86914V3.36914H43.4231V3.86914H43.9231ZM43.9231 9.28906H43.4231V9.78906H43.9231V9.28906ZM51.4084 9.9043L51.0505 10.2537L51.0592 10.2621L51.4084 9.9043ZM51.4084 21.623L51.0591 21.2652L51.0549 21.2695L51.4084 21.623ZM42.1213 22.2236V21.7236C41.626 21.7236 41.2495 21.5675 40.9514 21.2695L40.5979 21.623L40.2443 21.9766C40.7471 22.4793 41.3861 22.7236 42.1213 22.7236V22.2236ZM40.5979 21.623L40.9514 21.2695C40.6534 20.9715 40.4973 20.5949 40.4973 20.0996H39.9973H39.4973C39.4973 20.8348 39.7416 21.4739 40.2443 21.9766L40.5979 21.623ZM39.9973 20.0996H40.4973V16.2764H39.9973H39.4973V20.0996H39.9973ZM39.9973 16.2764L40.1381 16.7561L44.1811 15.5696L44.0403 15.0898L43.8995 14.6101L39.8565 15.7966L39.9973 16.2764ZM44.0403 15.0898H43.5403V18.8691H44.0403H44.5403V15.0898H44.0403ZM44.0403 18.8691V19.3691H47.966V18.8691V18.3691H44.0403V18.8691ZM47.966 18.8691H48.466V12.7168H47.966H47.466V18.8691H47.966ZM47.966 12.7168V12.2168H42.0041V12.7168V13.2168H47.966V12.7168ZM42.0041 12.7168V12.2168C41.5089 12.2168 41.1248 12.0605 40.8153 11.7584L40.466 12.1162L40.1168 12.474C40.6276 12.9727 41.2689 13.2168 42.0041 13.2168V12.7168ZM40.466 12.1162L40.8238 11.7669C40.5217 11.4575 40.3655 11.0734 40.3655 10.5781H39.8655H39.3655C39.3655 11.3133 39.6096 11.9546 40.1083 12.4655L40.466 12.1162ZM39.8655 10.5781H40.3655V2.63867H39.8655H39.3655V10.5781H39.8655ZM39.8655 2.63867H40.3655C40.3655 2.14339 40.5216 1.76683 40.8196 1.46879L40.466 1.11523L40.1125 0.761681C39.6098 1.26442 39.3655 1.90348 39.3655 2.63867H39.8655ZM40.466 1.11523L40.8196 1.46879C41.1299 1.15853 41.5126 1 42.0041 1V0.5V0C41.2652 0 40.6226 0.251627 40.1125 0.761681L40.466 1.11523ZM42.0041 0.5V1H49.7971V0.5V0H42.0041V0.5ZM49.7971 0.5V1C50.2886 1 50.6639 1.15831 50.9628 1.4645L51.3205 1.11523L51.6783 0.765966C51.1764 0.251844 50.5361 0 49.7971 0V0.5ZM51.3205 1.11523L50.9713 1.47302C51.2775 1.77192 51.4358 2.14716 51.4358 2.63867H51.9358H52.4358C52.4358 1.89971 52.1839 1.25933 51.6698 0.757448L51.3205 1.11523ZM51.9358 2.63867H51.4358V6.19824H51.9358H52.4358V2.63867H51.9358ZM51.9358 6.19824L51.7938 5.71881L47.7362 6.91998L47.8782 7.39941L48.0201 7.87885L52.0777 6.67768L51.9358 6.19824ZM47.8782 7.39941H48.3782V3.86914H47.8782H47.3782V7.39941H47.8782ZM47.8782 3.86914V3.36914H43.9231V3.86914V4.36914H47.8782V3.86914ZM43.9231 3.86914H43.4231V9.28906H43.9231H44.4231V3.86914H43.9231ZM43.9231 9.28906V9.78906H49.885V9.28906V8.78906H43.9231V9.28906ZM49.885 9.28906V9.78906C50.3765 9.78906 50.7517 9.94737 51.0506 10.2536L51.4084 9.9043L51.7662 9.55503C51.2643 9.04091 50.624 8.78906 49.885 8.78906V9.28906ZM51.4084 9.9043L51.0592 10.2621C51.3654 10.561 51.5237 10.9362 51.5237 11.4277H52.0237H52.5237C52.5237 10.6888 52.2718 10.0484 51.7577 9.54651L51.4084 9.9043ZM52.0237 11.4277H51.5237V20.0996H52.0237H52.5237V11.4277H52.0237ZM52.0237 20.0996H51.5237C51.5237 20.5911 51.3654 20.9664 51.0592 21.2653L51.4084 21.623L51.7577 21.9808C52.2718 21.479 52.5237 20.8386 52.5237 20.0996H52.0237ZM51.4084 21.623L51.0549 21.2695C50.7568 21.5675 50.3803 21.7236 49.885 21.7236V22.2236V22.7236C50.6202 22.7236 51.2592 22.4793 51.762 21.9766L51.4084 21.623ZM49.885 22.2236V21.7236H42.1213V22.2236V22.7236H49.885V22.2236ZM55.0119 13.5225H54.5119V14.0225H55.0119V13.5225ZM55.0119 9.65527V9.15527H54.5119V9.65527H55.0119ZM62.1018 9.65527H62.6018V9.15527H62.1018V9.65527ZM62.1018 13.5225V14.0225H62.6018V13.5225H62.1018ZM55.0119 13.5225H55.5119V9.65527H55.0119H54.5119V13.5225H55.0119ZM55.0119 9.65527V10.1553H62.1018V9.65527V9.15527H55.0119V9.65527ZM62.1018 9.65527H61.6018V13.5225H62.1018H62.6018V9.65527H62.1018ZM62.1018 13.5225V13.0225H55.0119V13.5225V14.0225H62.1018V13.5225ZM65.72 21.623L65.3664 21.9766L65.3707 21.9808L65.72 21.623ZM65.1194 16.5254L64.9774 16.046L64.6194 16.152V16.5254H65.1194ZM69.177 15.3242H69.677V14.6548L69.0351 14.8448L69.177 15.3242ZM69.177 18.8691H68.677V19.3691H69.177V18.8691ZM73.1028 18.8691V19.3691H73.6028V18.8691H73.1028ZM73.1028 13.4346H73.6028V12.9346H73.1028V13.4346ZM65.6907 12.834L65.3371 13.1876L65.3414 13.1918L65.6907 12.834ZM76.633 1.11523L76.2751 1.4646L76.2838 1.47302L76.633 1.11523ZM76.633 21.623L76.2837 21.2652L76.2795 21.2695L76.633 21.623ZM69.1184 10.0068H68.6184V10.5068H69.1184V10.0068ZM73.1028 10.0068V10.5068H73.6028V10.0068H73.1028ZM73.1028 3.92773H73.6028V3.42773H73.1028V3.92773ZM69.1184 3.92773V3.42773H68.6184V3.92773H69.1184ZM67.258 22.2236V21.7236C66.7628 21.7236 66.3787 21.5674 66.0692 21.2653L65.72 21.623L65.3707 21.9808C65.8815 22.4795 66.5228 22.7236 67.258 22.7236V22.2236ZM65.72 21.623L66.0735 21.2695C65.7755 20.9715 65.6194 20.5949 65.6194 20.0996H65.1194H64.6194C64.6194 20.8348 64.8637 21.4739 65.3664 21.9766L65.72 21.623ZM65.1194 20.0996H65.6194V16.5254H65.1194H64.6194V20.0996H65.1194ZM65.1194 16.5254L65.2613 17.0048L69.3189 15.8037L69.177 15.3242L69.0351 14.8448L64.9774 16.046L65.1194 16.5254ZM69.177 15.3242H68.677V18.8691H69.177H69.677V15.3242H69.177ZM69.177 18.8691V19.3691H73.1028V18.8691V18.3691H69.177V18.8691ZM73.1028 18.8691H73.6028V13.4346H73.1028H72.6028V18.8691H73.1028ZM73.1028 13.4346V12.9346H67.2287V13.4346V13.9346H73.1028V13.4346ZM67.2287 13.4346V12.9346C66.7335 12.9346 66.3494 12.7783 66.0399 12.4762L65.6907 12.834L65.3414 13.1918C65.8522 13.6905 66.4935 13.9346 67.2287 13.9346V13.4346ZM65.6907 12.834L66.0442 12.4804C65.7462 12.1824 65.5901 11.8058 65.5901 11.3105H65.0901H64.5901C64.5901 12.0457 64.8344 12.6848 65.3371 13.1875L65.6907 12.834ZM65.0901 11.3105H65.5901V2.63867H65.0901H64.5901V11.3105H65.0901ZM65.0901 2.63867H65.5901C65.5901 2.14339 65.7462 1.76683 66.0442 1.46879L65.6907 1.11523L65.3371 0.761681C64.8344 1.26442 64.5901 1.90348 64.5901 2.63867H65.0901ZM65.6907 1.11523L66.0442 1.46879C66.3545 1.15853 66.7372 1 67.2287 1V0.5V0C66.4898 0 65.8472 0.251627 65.3371 0.761681L65.6907 1.11523ZM67.2287 0.5V1H75.1096V0.5V0H67.2287V0.5ZM75.1096 0.5V1C75.6011 1 75.9763 1.15831 76.2753 1.4645L76.633 1.11523L76.9908 0.765966C76.489 0.251844 75.8486 0 75.1096 0V0.5ZM76.633 1.11523L76.2838 1.47302C76.59 1.77192 76.7483 2.14716 76.7483 2.63867H77.2483H77.7483C77.7483 1.89971 77.4964 1.25933 76.9823 0.757448L76.633 1.11523ZM77.2483 2.63867H76.7483V20.0996H77.2483H77.7483V2.63867H77.2483ZM77.2483 20.0996H76.7483C76.7483 20.5911 76.59 20.9664 76.2838 21.2653L76.633 21.623L76.9823 21.9808C77.4964 21.479 77.7483 20.8386 77.7483 20.0996H77.2483ZM76.633 21.623L76.2795 21.2695C75.9814 21.5675 75.6049 21.7236 75.1096 21.7236V22.2236V22.7236C75.8448 22.7236 76.4839 22.4793 76.9866 21.9766L76.633 21.623ZM75.1096 22.2236V21.7236H67.258V22.2236V22.7236H75.1096V22.2236ZM69.1184 10.0068V10.5068H73.1028V10.0068V9.50684H69.1184V10.0068ZM73.1028 10.0068H73.6028V3.92773H73.1028H72.6028V10.0068H73.1028ZM73.1028 3.92773V3.42773H69.1184V3.92773V4.42773H73.1028V3.92773ZM69.1184 3.92773H68.6184V10.0068H69.1184H69.6184V3.92773H69.1184ZM80.8371 21.623L80.4836 21.9766L80.4879 21.9808L80.8371 21.623ZM80.2366 16.2764L80.0962 15.7965L79.7366 15.9016V16.2764H80.2366ZM84.2942 15.0898H84.7942V14.4227L84.1538 14.6099L84.2942 15.0898ZM84.2942 18.8691H83.7942V19.3691H84.2942V18.8691ZM88.2785 18.8691V19.3691H88.7785V18.8691H88.2785ZM88.2785 12.7168H88.7785V12.2168H88.2785V12.7168ZM84.4407 12.7168H83.9407V13.2168H84.4407V12.7168ZM84.4407 9.28906V8.78906H83.9407V9.28906H84.4407ZM88.2785 9.28906V9.78906H88.7785V9.28906H88.2785ZM88.2785 3.86914H88.7785V3.36914H88.2785V3.86914ZM84.2942 3.86914V3.36914H83.7942V3.86914H84.2942ZM84.2942 6.50586L84.4361 6.98529L84.7942 6.87929V6.50586H84.2942ZM80.2366 7.70703H79.7366V8.3765L80.3785 8.18647L80.2366 7.70703ZM91.7209 1.11523L91.363 1.4646L91.3717 1.47302L91.7209 1.11523ZM91.8821 9.55273L92.3137 9.80518L92.3157 9.80167L91.8821 9.55273ZM90.7395 10.7979L90.4581 10.3846L89.6426 10.9398L90.5726 11.2692L90.7395 10.7979ZM91.8821 11.7207L91.4632 11.9939L91.4674 12.0001L91.8821 11.7207ZM91.7209 21.623L91.3716 21.2652L91.3674 21.2695L91.7209 21.623ZM82.3752 22.2236V21.7236C81.88 21.7236 81.4959 21.5674 81.1864 21.2653L80.8371 21.623L80.4879 21.9808C80.9987 22.4795 81.64 22.7236 82.3752 22.7236V22.2236ZM80.8371 21.623L81.1907 21.2695C80.8927 20.9715 80.7366 20.5949 80.7366 20.0996H80.2366H79.7366C79.7366 20.8348 79.9809 21.4739 80.4836 21.9766L80.8371 21.623ZM80.2366 20.0996H80.7366V16.2764H80.2366H79.7366V20.0996H80.2366ZM80.2366 16.2764L80.3769 16.7563L84.4345 15.5697L84.2942 15.0898L84.1538 14.6099L80.0962 15.7965L80.2366 16.2764ZM84.2942 15.0898H83.7942V18.8691H84.2942H84.7942V15.0898H84.2942ZM84.2942 18.8691V19.3691H88.2785V18.8691V18.3691H84.2942V18.8691ZM88.2785 18.8691H88.7785V12.7168H88.2785H87.7785V18.8691H88.2785ZM88.2785 12.7168V12.2168H84.4407V12.7168V13.2168H88.2785V12.7168ZM84.4407 12.7168H84.9407V9.28906H84.4407H83.9407V12.7168H84.4407ZM84.4407 9.28906V9.78906H88.2785V9.28906V8.78906H84.4407V9.28906ZM88.2785 9.28906H88.7785V3.86914H88.2785H87.7785V9.28906H88.2785ZM88.2785 3.86914V3.36914H84.2942V3.86914V4.36914H88.2785V3.86914ZM84.2942 3.86914H83.7942V6.50586H84.2942H84.7942V3.86914H84.2942ZM84.2942 6.50586L84.1522 6.02643L80.0946 7.2276L80.2366 7.70703L80.3785 8.18647L84.4361 6.98529L84.2942 6.50586ZM80.2366 7.70703H80.7366V2.63867H80.2366H79.7366V7.70703H80.2366ZM80.2366 2.63867H80.7366C80.7366 2.14339 80.8927 1.76683 81.1907 1.46879L80.8371 1.11523L80.4836 0.761681C79.9809 1.26442 79.7366 1.90348 79.7366 2.63867H80.2366ZM80.8371 1.11523L81.1907 1.46879C81.501 1.15853 81.8837 1 82.3752 1V0.5V0C81.6363 0 80.9936 0.251627 80.4836 0.761681L80.8371 1.11523ZM82.3752 0.5V1H90.1975V0.5V0H82.3752V0.5ZM90.1975 0.5V1C90.689 1 91.0642 1.15831 91.3631 1.4645L91.7209 1.11523L92.0787 0.765966C91.5768 0.251844 90.9365 0 90.1975 0V0.5ZM91.7209 1.11523L91.3717 1.47302C91.6779 1.77192 91.8362 2.14716 91.8362 2.63867H92.3362H92.8362C92.8362 1.89971 92.5843 1.25933 92.0702 0.757448L91.7209 1.11523ZM92.3362 2.63867H91.8362V8.08789H92.3362H92.8362V2.63867H92.3362ZM92.3362 8.08789H91.8362C91.8362 8.42422 91.7225 8.82646 91.4484 9.3038L91.8821 9.55273L92.3157 9.80167C92.6471 9.22432 92.8362 8.65 92.8362 8.08789H92.3362ZM91.8821 9.55273L91.4505 9.30029C91.1822 9.75897 90.8509 10.1171 90.4581 10.3846L90.7395 10.7979L91.0209 11.2112C91.5461 10.8536 91.9765 10.3817 92.3137 9.80518L91.8821 9.55273ZM90.7395 10.7979L90.5726 11.2692C90.9296 11.3956 91.2252 11.6289 91.4633 11.9938L91.8821 11.7207L92.3009 11.4476C91.953 10.9141 91.4869 10.5321 90.9064 10.3265L90.7395 10.7979ZM91.8821 11.7207L91.4674 12.0001C91.715 12.3675 91.8362 12.7636 91.8362 13.2002H92.3362H92.8362C92.8362 12.5626 92.6546 11.9723 92.2967 11.4413L91.8821 11.7207ZM92.3362 13.2002H91.8362V20.0996H92.3362H92.8362V13.2002H92.3362ZM92.3362 20.0996H91.8362C91.8362 20.5911 91.6779 20.9664 91.3717 21.2653L91.7209 21.623L92.0702 21.9808C92.5843 21.479 92.8362 20.8386 92.8362 20.0996H92.3362ZM91.7209 21.623L91.3674 21.2695C91.0693 21.5675 90.6928 21.7236 90.1975 21.7236V22.2236V22.7236C90.9327 22.7236 91.5717 22.4793 92.0745 21.9766L91.7209 21.623ZM90.1975 22.2236V21.7236H82.3752V22.2236V22.7236H90.1975V22.2236Z" fill="black"></path></svg> 