<svg preserveAspectRatio="none" width="100%" height="100%" overflow="visible" style="display: block;" viewBox="0 0 219.809 219.809" fill="none" xmlns="http://www.w3.org/2000/svg">
<g id="Subtract" filter="url(#filter0_n_0_224)">
<path d="M116.88 21.5039C119.984 21.7454 123.042 22.1473 126.048 22.7002L133.029 2.32031L143.67 5.1709L139.526 26.3018C142.448 27.3369 145.299 28.5211 148.07 29.8447L160.087 11.9707L169.626 17.4785L160.146 36.832C162.689 38.5833 165.135 40.4637 167.476 42.4639L183.724 28.2959L191.513 36.085L177.343 52.3311C179.343 54.672 181.224 57.1179 182.976 59.6602L202.33 50.1826L207.838 59.7227L189.963 71.7373C191.287 74.5092 192.471 77.3605 193.506 80.2822L214.638 76.1396L217.489 86.7793L197.107 93.7598C197.66 96.7652 198.062 99.8234 198.304 102.927L219.809 104.396V115.412L198.304 116.88C198.062 119.984 197.66 123.043 197.107 126.049L217.489 133.03L214.638 143.67L193.506 139.526C192.471 142.448 191.287 145.299 189.963 148.071L207.838 160.087L202.33 169.627L182.976 160.148C181.224 162.69 179.344 165.136 177.344 167.477L191.513 183.724L183.724 191.513L167.477 177.344C165.136 179.344 162.69 181.225 160.147 182.977L169.626 202.33L160.086 207.838L148.07 189.963C145.299 191.287 142.448 192.471 139.526 193.506L143.67 214.638L133.029 217.489L126.048 197.107C123.042 197.66 119.984 198.062 116.88 198.304L115.412 219.809H104.396L102.927 198.304C99.8234 198.062 96.7652 197.66 93.7598 197.107L86.7793 217.489L76.1387 214.639L80.2803 193.506C77.3584 192.47 74.5073 191.286 71.7354 189.962L59.7217 207.838L50.1826 202.33L59.6592 182.976C57.1171 181.224 54.6718 179.343 52.3311 177.343L36.085 191.513L28.2959 183.724L42.4639 167.476C40.464 165.135 38.584 162.689 36.833 160.147L17.4785 169.627L11.9707 160.087L29.8447 148.071C28.5209 145.299 27.337 142.448 26.3018 139.526L5.1709 143.67L2.31934 133.03L22.7002 126.048C22.1473 123.042 21.7454 119.984 21.5039 116.88L0 115.412V104.396L21.5039 102.927C21.7455 99.8235 22.1473 96.7652 22.7002 93.7598L2.31934 86.7793L5.1709 76.1396L26.3018 80.2812C27.337 77.3597 28.522 74.509 29.8457 71.7373L11.9707 59.7227L17.4785 50.1826L36.832 59.6602C38.5834 57.1179 40.4645 54.672 42.4648 52.3311L28.2959 36.085L36.085 28.2959L52.3311 42.4648C54.672 40.4645 57.1179 38.5834 59.6602 36.832L50.1826 17.4785L59.7217 11.9707L71.7363 29.8457C74.508 28.5219 77.3587 27.337 80.2803 26.3018L76.1387 5.1709L86.7793 2.31934L93.7598 22.7002C96.7652 22.1473 99.8235 21.7455 102.927 21.5039L104.396 0.000976562L115.412 0L116.88 21.5039ZM109.904 59.9043C82.2901 59.9043 59.9043 82.2901 59.9043 109.904C59.9043 137.519 82.2901 159.904 109.904 159.904C137.519 159.904 159.904 137.519 159.904 109.904C159.904 82.2901 137.519 59.9043 109.904 59.9043Z" fill="#5AB8FF"/>
</g>
<defs>
<filter id="filter0_n_0_224" x="0" y="0" width="219.809" height="219.809" filterUnits="userSpaceOnUse" color-interpolation-filters="sRGB">
<feFlood flood-opacity="0" result="BackgroundImageFix"/>
<feBlend mode="normal" in="SourceGraphic" in2="BackgroundImageFix" result="shape"/>
<feTurbulence type="fractalNoise" baseFrequency="2 2" stitchTiles="stitch" numOctaves="3" result="noise" seed="8542" />
<feColorMatrix in="noise" type="luminanceToAlpha" result="alphaNoise" />
<feComponentTransfer in="alphaNoise" result="coloredNoise1">
<feFuncA type="discrete" tableValues="1 1 1 1 1 1 1 1 1 1 1 1 1 1 1 1 1 1 1 1 1 1 1 1 1 1 1 1 1 1 1 1 1 1 1 1 1 1 1 1 1 1 1 1 1 1 1 1 1 1 1 0 0 0 0 0 0 0 0 0 0 0 0 0 0 0 0 0 0 0 0 0 0 0 0 0 0 0 0 0 0 0 0 0 0 0 0 0 0 0 0 0 0 0 0 0 0 0 0 0 "/>
</feComponentTransfer>
<feComposite operator="in" in2="shape" in="coloredNoise1" result="noise1Clipped" />
<feComponentTransfer in="alphaNoise" result="coloredNoise2">
<feFuncA type="discrete" tableValues="0 0 0 0 0 0 0 0 0 0 0 0 0 0 0 0 0 0 0 0 0 0 0 0 0 0 0 0 0 0 0 0 0 0 0 0 0 0 0 0 0 0 0 0 0 0 0 0 0 1 1 1 1 1 1 1 1 1 1 1 1 1 1 1 1 1 1 1 1 1 1 1 1 1 1 1 1 1 1 1 1 1 1 1 1 1 1 1 1 1 1 1 1 1 1 1 1 1 1 1 "/>
</feComponentTransfer>
<feComposite operator="in" in2="shape" in="coloredNoise2" result="noise2Clipped" />
<feFlood flood-color="#00FFEA" result="color1Flood" />
<feComposite operator="in" in2="noise1Clipped" in="color1Flood" result="color1" />
<feFlood flood-color="#9057FF" result="color2Flood" />
<feComposite operator="in" in2="noise2Clipped" in="color2Flood" result="color2" />
<feMerge result="effect1_noise_0_224">
<feMergeNode in="shape" />
<feMergeNode in="color1" />
<feMergeNode in="color2" />
</feMerge>
</filter>
</defs>
</svg>
