<svg preserveAspectRatio="none" width="100%" height="100%" overflow="visible" style="display: block;" viewBox="0 0 240 239.999" fill="none" xmlns="http://www.w3.org/2000/svg">
<g id="Subtract" filter="url(#filter0_n_0_97)">
<path d="M118.111 1.34157C118.598 -0.0559146 120.25 -0.361646 121.246 0.424582C121.445 0.581764 121.619 0.782715 121.751 1.02712C121.777 1.07593 121.802 1.12718 121.825 1.17946C121.848 1.23155 121.869 1.28604 121.889 1.34157L123.241 5.22439L126.184 13.6697C126.614 13.6943 127.043 13.722 127.472 13.7517L133.31 2.07497C134.158 0.380942 136.667 0.704661 137.057 2.55837L139.736 15.3181C140.345 15.4321 140.952 15.5503 141.557 15.6746L148.887 4.89529C149.952 3.32909 152.396 3.9847 152.535 5.8738L153.492 18.866C153.907 19.0033 154.321 19.1427 154.733 19.2849L163.378 9.53786C164.635 8.1208 166.974 9.08301 166.871 10.9744L166.157 23.9861C166.716 24.2551 167.271 24.53 167.824 24.8084L177.694 16.2937C179.129 15.057 181.319 16.3218 180.965 18.1824L178.522 30.9968C178.883 31.2347 179.244 31.4745 179.601 31.7166L190.49 24.5281C192.071 23.4851 194.082 25.02 193.492 26.8201L189.427 39.2283C189.891 39.6281 190.354 40.0315 190.811 40.4392L202.569 34.7595C204.275 33.9356 206.064 35.7247 205.24 37.4304L199.559 49.1873C199.844 49.5082 200.129 49.8307 200.411 50.1551L212.798 46.0261C214.595 45.4276 216.139 47.4301 215.104 49.0164L207.971 59.9422C208.318 60.4506 208.664 60.9616 209.003 61.4763L221.817 59.0349C223.678 58.6806 224.943 60.872 223.706 62.3064L215.19 72.1746C215.386 72.563 215.58 72.9533 215.77 73.3445L228.781 72.5642C230.672 72.4509 231.646 74.7862 230.235 76.0506L220.533 84.7429C220.738 85.3282 220.937 85.9168 221.133 86.5066L234.127 87.4636C236.016 87.603 236.671 90.0477 235.104 91.1131L224.325 98.4412C224.413 98.8664 224.497 99.2934 224.579 99.7205L237.351 102.335C239.207 102.715 239.544 105.222 237.854 106.078L226.21 111.975C226.255 112.587 226.294 113.2 226.329 113.814L238.659 118.111C240.447 118.735 240.448 121.265 238.659 121.888L226.328 126.184C226.303 126.614 226.278 127.043 226.248 127.47L237.925 133.309C239.619 134.157 239.295 136.666 237.441 137.055L224.681 139.735C224.567 140.344 224.449 140.952 224.325 141.556L235.104 148.886C236.671 149.951 236.016 152.396 234.127 152.535L221.133 153.491C220.995 153.906 220.856 154.321 220.714 154.733L230.462 163.377C231.879 164.634 230.917 166.973 229.025 166.87L216.014 166.156C215.745 166.715 215.469 167.27 215.19 167.823L223.706 177.693C224.943 179.128 223.678 181.318 221.817 180.964L209.003 178.522C208.765 178.883 208.524 179.243 208.282 179.6L215.471 190.488C216.514 192.069 214.98 194.08 213.18 193.491L200.77 189.426C200.37 189.891 199.966 190.352 199.559 190.81L205.24 202.568C206.064 204.274 204.275 206.063 202.569 205.239L190.811 199.558C190.491 199.844 190.169 200.127 189.845 200.409L193.974 212.796C194.572 214.593 192.57 216.139 190.983 215.103L180.057 207.97C179.548 208.317 179.038 208.663 178.523 209.002L180.965 221.816C181.319 223.677 179.129 224.942 177.694 223.705L167.824 215.189C167.436 215.385 167.045 215.578 166.654 215.769L167.435 228.78C167.548 230.671 165.214 231.644 163.95 230.234L155.257 220.532C154.671 220.737 154.082 220.936 153.492 221.132L152.536 234.126C152.396 236.015 149.952 236.67 148.887 235.103L141.558 224.324C141.132 224.411 140.705 224.496 140.278 224.578L137.665 237.35C137.285 239.206 134.777 239.543 133.921 237.853L128.022 226.209C127.411 226.254 126.798 226.292 126.184 226.327L121.889 238.657C121.83 238.824 121.755 238.977 121.667 239.113C121.548 239.295 121.405 239.449 121.246 239.575C120.927 239.826 120.541 239.966 120.148 239.994C119.951 240.008 119.753 239.994 119.559 239.952C118.933 239.816 118.365 239.384 118.111 238.658L113.814 226.328C113.385 226.303 112.956 226.277 112.528 226.247L106.69 237.924C105.843 239.618 103.334 239.294 102.944 237.44L100.264 224.679C99.6548 224.565 99.0474 224.447 98.4423 224.323L91.1132 235.103C90.0479 236.669 87.6045 236.015 87.4648 234.126L86.5067 221.132C86.092 220.994 85.678 220.855 85.2655 220.713L76.623 230.461C75.366 231.878 73.0255 230.916 73.1288 229.024L73.8417 216.012C73.2831 215.743 72.7278 215.468 72.1747 215.189L62.3066 223.704C60.8722 224.941 58.6812 223.677 59.0351 221.816L61.4765 209.002C61.1143 208.763 60.7535 208.522 60.3944 208.279L49.5087 215.467C47.9277 216.51 45.9164 214.976 46.5058 213.176L50.5702 200.767C50.105 200.367 49.6427 199.963 49.1845 199.554L37.4286 205.235C35.7229 206.059 33.9341 204.27 34.7577 202.564L40.4374 190.807C40.1527 190.488 39.8697 190.166 39.5888 189.843L27.203 193.972C25.4057 194.571 23.8609 192.569 24.8964 190.982L32.0292 180.056C31.6814 179.548 31.3361 179.037 30.997 178.522L18.1835 180.964C16.3224 181.318 15.0575 179.128 16.2948 177.693L24.8085 167.824C24.613 167.436 24.4203 167.045 24.2294 166.654L11.2196 167.435C9.32853 167.549 8.35397 165.213 9.76456 163.949L19.4667 155.255C19.2615 154.669 19.0614 154.081 18.8661 153.491L5.87394 152.535C3.98442 152.396 3.32967 149.951 4.8964 148.886L15.6747 141.556C15.5872 141.131 15.5022 140.704 15.4198 140.276L2.64933 137.664C0.793168 137.284 0.456216 134.776 2.1464 133.92L13.79 128.022C13.7445 127.411 13.705 126.798 13.6698 126.184L1.34171 121.888C-0.447279 121.265 -0.447193 118.735 1.34171 118.111L13.6698 113.814C13.6944 113.384 13.7222 112.955 13.7519 112.526L2.07608 106.689C0.381691 105.842 0.704709 103.333 2.55851 102.943L15.3183 100.262C15.4323 99.6538 15.5504 99.0461 15.6747 98.4412L4.8964 91.1131C3.32978 90.0477 3.98445 87.6028 5.87394 87.4636L18.8661 86.5066C19.0035 86.0916 19.1437 85.6772 19.286 85.2644L9.53897 76.6218C8.1216 75.3648 9.08375 73.0249 10.9755 73.1287L23.9862 73.8416C24.2552 73.2832 24.5302 72.7275 24.8085 72.1746L16.2948 62.3064C15.0574 60.8719 16.3224 58.6804 18.1835 59.0349L30.997 61.4763C31.2348 61.1154 31.4746 60.7551 31.7167 60.3972L24.5292 49.5105C23.4856 47.9295 25.0208 45.9179 26.8212 46.5076L39.2284 50.572C39.6284 50.1071 40.0325 49.6452 40.4403 49.1873L34.7607 37.4314C33.9368 35.7256 35.7257 33.9365 37.4316 34.7605L49.1874 40.4402C49.5082 40.1545 49.831 39.8705 50.1552 39.5886L46.0263 27.2029C45.4275 25.4057 47.4311 23.8598 49.0175 24.8953L59.9423 32.0281C60.4506 31.6804 60.9618 31.3359 61.4765 30.9968L59.036 18.1834C58.6818 16.3225 60.8721 15.0573 62.3066 16.2947L72.1747 24.8084C72.5633 24.6128 72.9534 24.4193 73.3446 24.2283L72.5644 11.2185C72.4514 9.3278 74.7864 8.35379 76.0507 9.76443L84.7431 19.4656C85.3284 19.2603 85.9168 19.0613 86.5067 18.866L87.4648 5.8738C87.6042 3.98464 90.0479 3.32987 91.1132 4.89626L98.4423 15.6756C98.8678 15.5881 99.2942 15.5021 99.7216 15.4197L102.336 2.64821C102.716 0.792732 105.223 0.455948 106.079 2.14529L111.976 13.7898C112.588 13.7443 113.2 13.7049 113.814 13.6697L118.111 1.34157ZM37.0888 132.819C42.7241 169.568 72.2071 198.46 109.243 203.201V171.53C89.4997 167.43 73.8093 152.27 68.9413 132.819H37.0888ZM171.059 132.819C166.191 152.27 150.5 167.43 130.757 171.53V203.201C167.793 198.46 197.277 169.568 202.912 132.819H171.059ZM120 95.7967C106.633 95.7967 95.7968 106.633 95.7968 120C95.7968 133.367 106.633 144.203 120 144.203C133.367 144.203 144.203 133.367 144.203 120C144.203 106.633 133.367 95.7967 120 95.7967ZM109.243 36.7976C70.8321 41.7146 40.5452 72.6104 36.5605 111.305H68.0829C71.6419 89.8954 88.1242 72.8544 109.243 68.4685V36.7976ZM130.757 68.4685C151.876 72.8544 168.358 89.8954 171.917 111.305H203.439C199.455 72.6105 169.168 41.7146 130.757 36.7976V68.4685Z" fill="#5AB8FF"/>
</g>
<defs>
<filter id="filter0_n_0_97" x="0" y="0" width="240" height="239.999" filterUnits="userSpaceOnUse" color-interpolation-filters="sRGB">
<feFlood flood-opacity="0" result="BackgroundImageFix"/>
<feBlend mode="normal" in="SourceGraphic" in2="BackgroundImageFix" result="shape"/>
<feTurbulence type="fractalNoise" baseFrequency="2 2" stitchTiles="stitch" numOctaves="3" result="noise" seed="8542" />
<feColorMatrix in="noise" type="luminanceToAlpha" result="alphaNoise" />
<feComponentTransfer in="alphaNoise" result="coloredNoise1">
<feFuncA type="discrete" tableValues="1 1 1 1 1 1 1 1 1 1 1 1 1 1 1 1 1 1 1 1 1 1 1 1 1 1 1 1 1 1 1 1 1 1 1 1 1 1 1 1 1 1 1 1 1 1 1 1 1 1 1 0 0 0 0 0 0 0 0 0 0 0 0 0 0 0 0 0 0 0 0 0 0 0 0 0 0 0 0 0 0 0 0 0 0 0 0 0 0 0 0 0 0 0 0 0 0 0 0 0 "/>
</feComponentTransfer>
<feComposite operator="in" in2="shape" in="coloredNoise1" result="noise1Clipped" />
<feComponentTransfer in="alphaNoise" result="coloredNoise2">
<feFuncA type="discrete" tableValues="0 0 0 0 0 0 0 0 0 0 0 0 0 0 0 0 0 0 0 0 0 0 0 0 0 0 0 0 0 0 0 0 0 0 0 0 0 0 0 0 0 0 0 0 0 0 0 0 0 1 1 1 1 1 1 1 1 1 1 1 1 1 1 1 1 1 1 1 1 1 1 1 1 1 1 1 1 1 1 1 1 1 1 1 1 1 1 1 1 1 1 1 1 1 1 1 1 1 1 1 "/>
</feComponentTransfer>
<feComposite operator="in" in2="shape" in="coloredNoise2" result="noise2Clipped" />
<feFlood flood-color="#00FFEA" result="color1Flood" />
<feComposite operator="in" in2="noise1Clipped" in="color1Flood" result="color1" />
<feFlood flood-color="#9057FF" result="color2Flood" />
<feComposite operator="in" in2="noise2Clipped" in="color2Flood" result="color2" />
<feMerge result="effect1_noise_0_97">
<feMergeNode in="shape" />
<feMergeNode in="color1" />
<feMergeNode in="color2" />
</feMerge>
</filter>
</defs>
</svg>
