<svg preserveAspectRatio="none" width="100%" height="100%" overflow="visible" style="display: block;" viewBox="0 0 240 239.999" fill="none" xmlns="http://www.w3.org/2000/svg">
<g id="Subtract" filter="url(#filter0_n_0_335)">
<path d="M118.111 1.34182C118.735 -0.447289 121.265 -0.44726 121.889 1.34182L126.184 13.6699C126.614 13.6946 127.043 13.7223 127.472 13.752L133.31 2.07522C134.158 0.380727 136.667 0.704468 137.057 2.55862L139.736 15.3184C140.345 15.4324 140.952 15.5505 141.557 15.6748L148.887 4.89554C149.952 3.32903 152.395 3.98397 152.535 5.87307L153.492 18.8662C153.907 19.0035 154.321 19.1429 154.733 19.2852L163.378 9.53811C164.635 8.12064 166.975 9.08289 166.871 10.9746L166.157 23.9864C166.716 24.2554 167.271 24.5302 167.824 24.8086L177.694 16.294C179.129 15.0569 181.319 16.3218 180.965 18.1826L178.523 30.9961C178.884 31.234 179.244 31.4747 179.601 31.7168L190.49 24.5283C192.071 23.4851 194.082 25.0201 193.492 26.8203L189.427 39.2285C189.892 39.6285 190.354 40.0317 190.811 40.4395L202.569 34.7598C204.275 33.9356 206.064 35.7248 205.24 37.4307L199.559 49.1875C199.845 49.508 200.128 49.8304 200.41 50.1543L212.797 46.0264C214.594 45.4273 216.14 47.4302 215.104 49.0166L207.971 59.9424C208.318 60.4507 208.664 60.961 209.003 61.4756L221.817 59.0352C223.678 58.6808 224.944 60.8722 223.706 62.3067L215.19 72.1748C215.386 72.5634 215.579 72.9534 215.77 73.3448L228.781 72.5645C230.672 72.4511 231.646 74.7865 230.235 76.0508L220.533 84.7432C220.738 85.3286 220.937 85.9168 221.133 86.5069L234.127 87.4639C236.016 87.6033 236.671 90.048 235.104 91.1133L224.325 98.4414C224.413 98.8669 224.497 99.2935 224.579 99.7207L237.351 102.335C239.208 102.715 239.544 105.222 237.854 106.078L226.21 111.976C226.255 112.587 226.294 113.2 226.329 113.814L238.658 118.111L238.821 118.175C240.446 118.891 240.391 121.284 238.658 121.888L226.328 126.184C226.303 126.613 226.278 127.042 226.248 127.471L237.925 133.31C239.619 134.157 239.295 136.666 237.441 137.056L224.681 139.735C224.566 140.344 224.449 140.952 224.325 141.557L235.104 148.886C236.671 149.951 236.016 152.395 234.127 152.534L221.133 153.491C220.995 153.906 220.856 154.321 220.714 154.733L230.462 163.377C231.879 164.634 230.917 166.974 229.025 166.87L216.014 166.156C215.745 166.715 215.469 167.27 215.19 167.823L223.706 177.693C224.943 179.128 223.678 181.318 221.817 180.964L209.003 178.522C208.765 178.884 208.524 179.243 208.282 179.601L215.471 190.488C216.514 192.069 214.98 194.081 213.18 193.491L200.77 189.426C200.37 189.891 199.967 190.353 199.559 190.811L205.24 202.568C206.064 204.274 204.275 206.063 202.569 205.239L190.811 199.559C190.491 199.844 190.169 200.128 189.845 200.409L193.974 212.796C194.573 214.593 192.57 216.139 190.983 215.104L180.057 207.97C179.548 208.317 179.038 208.663 178.523 209.002L180.965 221.816C181.319 223.677 179.129 224.942 177.694 223.705L167.824 215.189C167.436 215.385 167.046 215.579 166.654 215.77L167.435 228.779C167.549 230.67 165.214 231.645 163.95 230.234L155.257 220.532C154.671 220.738 154.082 220.936 153.492 221.132L152.535 234.126C152.395 236.015 149.952 236.67 148.887 235.104L141.557 224.323C141.131 224.411 140.705 224.496 140.278 224.578L137.665 237.351C137.285 239.207 134.777 239.543 133.921 237.854L128.022 226.209C127.411 226.255 126.798 226.292 126.184 226.327L121.889 238.657C121.596 239.496 120.886 239.942 120.148 239.994C120.05 240.001 119.951 240.001 119.852 239.994C119.115 239.942 118.403 239.496 118.111 238.657L113.814 226.328C113.385 226.304 112.956 226.277 112.528 226.247L106.69 237.924C105.843 239.618 103.334 239.294 102.944 237.44L100.264 224.68C99.6548 224.566 99.0474 224.448 98.4423 224.323L91.1132 235.104C90.0478 236.67 87.6044 236.015 87.4647 234.126L86.5067 221.132C86.0919 220.995 85.678 220.855 85.2655 220.713L76.6229 230.461C75.366 231.878 73.0254 230.916 73.1288 229.024L73.8417 216.013C73.283 215.744 72.7279 215.468 72.1747 215.189L62.3065 223.704C60.872 224.942 58.6805 223.677 59.0351 221.815L61.4765 209.002C61.1139 208.763 60.7529 208.522 60.3935 208.278L49.5077 215.467C47.9267 216.51 45.9163 214.976 46.5058 213.176L50.5702 200.768C50.105 200.367 49.6426 199.964 49.1845 199.556L37.4286 205.235C35.7228 206.059 33.9339 204.27 34.7577 202.564L40.4374 190.808C40.1527 190.488 39.8696 190.167 39.5888 189.844L27.203 193.973C25.4057 194.572 23.8607 192.569 24.8964 190.982L32.0292 180.057C31.6813 179.548 31.3362 179.037 30.997 178.522L18.1835 180.964C16.3224 181.318 15.0574 179.128 16.2948 177.693L24.8085 167.824C24.6127 167.435 24.4195 167.045 24.2284 166.653L11.2196 167.435C9.32853 167.548 8.3539 165.214 9.76455 163.949L19.4667 155.255C19.2613 154.669 19.0615 154.081 18.8661 153.49L5.87392 152.534C3.98444 152.395 3.32967 149.951 4.89638 148.886L15.6747 141.557C15.5872 141.131 15.5022 140.704 15.4198 140.276L2.64931 137.664C0.793171 137.284 0.456231 134.776 2.14638 133.92L13.7899 128.022C13.7444 127.411 13.705 126.798 13.6698 126.184L1.3417 121.888C-0.39143 121.284 -0.445518 118.891 1.17959 118.175L1.3417 118.111L13.6698 113.814C13.6944 113.385 13.7222 112.956 13.7519 112.527L2.07509 106.689C0.380986 105.842 0.704783 103.333 2.55849 102.943L15.3183 100.263C15.4323 99.6538 15.5513 99.0466 15.6757 98.4414L4.89638 91.1123C3.32969 90.047 3.98445 87.6031 5.87392 87.4639L18.8661 86.5069C19.0035 86.0917 19.1436 85.6776 19.286 85.2647L9.53896 76.6221C8.12149 75.3652 9.08303 73.0256 10.9745 73.1289L23.9862 73.8418C24.2552 73.2833 24.5301 72.7279 24.8085 72.1748L16.2948 62.3067C15.0571 60.8722 16.3223 58.6806 18.1835 59.0352L30.997 61.4756C31.2347 61.1147 31.4747 60.7553 31.7167 60.3975L24.5292 49.5108C23.4852 47.9297 25.0207 45.918 26.8212 46.5078L39.2284 50.5723C39.6285 50.1073 40.0324 49.6455 40.4403 49.1875L34.7606 37.4317C33.9364 35.7257 35.7256 33.9366 37.4315 34.7608L49.1874 40.4405C49.5082 40.1547 49.8309 39.8708 50.1552 39.5889L46.0263 27.2032C45.4271 25.4057 47.431 23.8598 49.0175 24.8955L59.9423 32.0283C60.4508 31.6805 60.9616 31.3353 61.4765 30.9961L59.0351 18.1836C58.6804 16.3225 60.872 15.0573 62.3065 16.2949L72.1747 24.8086C72.5633 24.613 72.9533 24.4195 73.3446 24.2285L72.5644 11.2188C72.451 9.3277 74.7864 8.35367 76.0507 9.76468L84.7431 19.4658C85.3284 19.2606 85.9167 19.0615 86.5067 18.8662L87.4647 5.87405C87.6039 3.98452 90.0479 3.32972 91.1132 4.89651L98.4413 15.6748C98.8671 15.5873 99.294 15.5024 99.7216 15.4199L102.336 2.64846C102.716 0.792529 105.223 0.455714 106.079 2.14554L111.976 13.7901C112.588 13.7445 113.2 13.7051 113.814 13.6699L118.111 1.34182ZM94.9999 163.301C90.217 160.539 84.1012 162.178 81.3397 166.961C78.5783 171.744 80.217 177.86 84.9999 180.621C89.7827 183.382 95.8987 181.744 98.6601 176.961C101.421 172.178 99.7825 166.062 94.9999 163.301ZM158.66 166.961C155.899 162.178 149.783 160.539 145 163.301C140.217 166.062 138.578 172.178 141.34 176.961C144.101 181.744 150.217 183.382 155 180.621C159.783 177.86 161.421 171.744 158.66 166.961ZM120 90C103.431 90.0001 89.9999 103.432 89.9999 120C90.0001 136.568 103.432 150 120 150C136.568 150 150 136.568 150 120C150 103.432 136.568 90.0001 120 90ZM59.9999 109.999C54.4771 109.999 50 114.476 49.9999 119.999C49.9999 125.522 54.4771 129.999 59.9999 129.999C65.5226 129.999 69.9999 125.522 69.9999 119.999C69.9998 114.476 65.5225 109.999 59.9999 109.999ZM180 109.999C174.477 109.999 170 114.476 170 119.999C170 125.522 174.477 129.999 180 129.999C185.523 129.999 190 125.522 190 119.999C190 114.476 185.523 109.999 180 109.999ZM98.6601 63.0381C95.8987 58.2553 89.7828 56.6159 84.9999 59.377C80.217 62.1384 78.5783 68.2552 81.3397 73.0381C84.1013 77.8206 90.2172 79.4596 94.9999 76.6983C99.7826 73.9369 101.421 67.8209 98.6601 63.0381ZM155 59.377C150.217 56.6156 144.101 58.2552 141.34 63.0381C138.578 67.821 140.217 73.9369 145 76.6983C149.783 79.4593 155.899 77.8207 158.66 73.0381C161.421 68.2552 159.783 62.1384 155 59.377Z" fill="#5AB8FF"/>
</g>
<defs>
<filter id="filter0_n_0_335" x="0" y="0" width="240" height="239.999" filterUnits="userSpaceOnUse" color-interpolation-filters="sRGB">
<feFlood flood-opacity="0" result="BackgroundImageFix"/>
<feBlend mode="normal" in="SourceGraphic" in2="BackgroundImageFix" result="shape"/>
<feTurbulence type="fractalNoise" baseFrequency="2 2" stitchTiles="stitch" numOctaves="3" result="noise" seed="8542" />
<feColorMatrix in="noise" type="luminanceToAlpha" result="alphaNoise" />
<feComponentTransfer in="alphaNoise" result="coloredNoise1">
<feFuncA type="discrete" tableValues="1 1 1 1 1 1 1 1 1 1 1 1 1 1 1 1 1 1 1 1 1 1 1 1 1 1 1 1 1 1 1 1 1 1 1 1 1 1 1 1 1 1 1 1 1 1 1 1 1 1 1 0 0 0 0 0 0 0 0 0 0 0 0 0 0 0 0 0 0 0 0 0 0 0 0 0 0 0 0 0 0 0 0 0 0 0 0 0 0 0 0 0 0 0 0 0 0 0 0 0 "/>
</feComponentTransfer>
<feComposite operator="in" in2="shape" in="coloredNoise1" result="noise1Clipped" />
<feComponentTransfer in="alphaNoise" result="coloredNoise2">
<feFuncA type="discrete" tableValues="0 0 0 0 0 0 0 0 0 0 0 0 0 0 0 0 0 0 0 0 0 0 0 0 0 0 0 0 0 0 0 0 0 0 0 0 0 0 0 0 0 0 0 0 0 0 0 0 0 1 1 1 1 1 1 1 1 1 1 1 1 1 1 1 1 1 1 1 1 1 1 1 1 1 1 1 1 1 1 1 1 1 1 1 1 1 1 1 1 1 1 1 1 1 1 1 1 1 1 1 "/>
</feComponentTransfer>
<feComposite operator="in" in2="shape" in="coloredNoise2" result="noise2Clipped" />
<feFlood flood-color="#00FFEA" result="color1Flood" />
<feComposite operator="in" in2="noise1Clipped" in="color1Flood" result="color1" />
<feFlood flood-color="#9057FF" result="color2Flood" />
<feComposite operator="in" in2="noise2Clipped" in="color2Flood" result="color2" />
<feMerge result="effect1_noise_0_335">
<feMergeNode in="shape" />
<feMergeNode in="color1" />
<feMergeNode in="color2" />
</feMerge>
</filter>
</defs>
</svg>
