<svg preserveAspectRatio="none" width="100%" height="100%" overflow="visible" style="display: block;" viewBox="0 0 191.456 203.743" fill="none" xmlns="http://www.w3.org/2000/svg">
<g id="Subtract">
<path d="M138.366 181.146C129.663 185.837 120.099 189.139 109.972 190.749L110.737 203.743H80.7188L81.3574 190.729C71.2764 189.111 61.7555 185.818 53.0879 181.146L67.7539 155.743C76.125 160.099 85.6385 162.561 95.7275 162.562C105.816 162.562 115.329 160.099 123.7 155.743L138.366 181.146ZM35.1074 104.792C36.0751 125.216 47.1378 142.996 63.417 153.254L48.7539 178.652C40.0426 173.312 32.3097 166.531 25.8877 158.64L15.0088 165.806L0 139.81L11.5781 133.861C8.12528 124.784 6.10081 115.002 5.77539 104.792H35.1074ZM185.68 104.792C185.354 115.002 183.329 124.783 179.876 133.86L191.456 139.81L176.946 164.94L166.116 157.958C159.588 166.14 151.662 173.157 142.701 178.651L128.038 153.254C144.318 142.996 155.381 125.216 156.349 104.792H185.68ZM95.7275 46.1807C126.484 46.1807 151.418 71.1143 151.418 101.871C151.418 132.628 126.485 157.562 95.7275 157.562C64.9707 157.561 40.0371 132.628 40.0371 101.871C40.0374 71.1144 64.9709 46.1809 95.7275 46.1807ZM95.7285 86.8721C87.4442 86.8721 80.7285 93.5878 80.7285 101.872C80.7288 110.156 87.4444 116.872 95.7285 116.872C104.012 116.872 110.728 110.156 110.729 101.872C110.729 93.588 104.013 86.8723 95.7285 86.8721ZM63.0615 50.7129C46.7545 61.1471 35.7678 79.1651 35.0732 99.792H5.75098C5.99043 89.233 8.04845 79.1227 11.624 69.7627L0 63.9346L15.0088 37.9375L25.9688 45.0029C32.2863 37.2627 39.8669 30.5943 48.3955 25.3105L63.0615 50.7129ZM143.06 25.3105C151.588 30.5943 159.168 37.2629 165.485 45.0029L176.446 37.9375L190.956 63.0684L179.514 68.9453C183.285 78.5332 185.458 88.9248 185.704 99.792H156.383C155.688 79.1643 144.701 61.146 128.393 50.7119L143.06 25.3105ZM109.105 12.8604C119.699 14.4389 129.689 17.864 138.738 22.7969L124.073 48.1934C115.613 43.7164 105.966 41.1807 95.7275 41.1807C85.4887 41.1807 75.8417 43.716 67.3809 48.1934L52.7168 22.7959C61.4834 18.0175 71.1326 14.6544 81.3574 13.0137L80.7188 0H109.737L109.105 12.8604Z" fill="var(--fill-0, #9747FF)" fill-opacity="0.65"/>
</g>
<defs>
<filter id="filter0_n_0_377" x="0" y="0" width="191.456" height="203.743" filterUnits="userSpaceOnUse" color-interpolation-filters="sRGB">
<feFlood flood-opacity="0" result="BackgroundImageFix"/>
<feBlend mode="normal" in="SourceGraphic" in2="BackgroundImageFix" result="shape"/>
<feTurbulence type="fractalNoise" baseFrequency="2 2" stitchTiles="stitch" numOctaves="3" result="noise" seed="8542" />
<feColorMatrix in="noise" type="luminanceToAlpha" result="alphaNoise" />
<feComponentTransfer in="alphaNoise" result="coloredNoise1">
<feFuncA type="discrete" tableValues="1 1 1 1 1 1 1 1 1 1 1 1 1 1 1 1 1 1 1 1 1 1 1 1 1 1 1 1 1 1 1 1 1 1 1 1 1 1 1 1 1 1 1 1 1 1 1 1 1 1 1 0 0 0 0 0 0 0 0 0 0 0 0 0 0 0 0 0 0 0 0 0 0 0 0 0 0 0 0 0 0 0 0 0 0 0 0 0 0 0 0 0 0 0 0 0 0 0 0 0 "/>
</feComponentTransfer>
<feComposite operator="in" in2="shape" in="coloredNoise1" result="noise1Clipped" />
<feComponentTransfer in="alphaNoise" result="coloredNoise2">
<feFuncA type="discrete" tableValues="0 0 0 0 0 0 0 0 0 0 0 0 0 0 0 0 0 0 0 0 0 0 0 0 0 0 0 0 0 0 0 0 0 0 0 0 0 0 0 0 0 0 0 0 0 0 0 0 0 1 1 1 1 1 1 1 1 1 1 1 1 1 1 1 1 1 1 1 1 1 1 1 1 1 1 1 1 1 1 1 1 1 1 1 1 1 1 1 1 1 1 1 1 1 1 1 1 1 1 1 "/>
</feComponentTransfer>
<feComposite operator="in" in2="shape" in="coloredNoise2" result="noise2Clipped" />
<feFlood flood-color="#00FFEA" result="color1Flood" />
<feComposite operator="in" in2="noise1Clipped" in="color1Flood" result="color1" />
<feFlood flood-color="#9057FF" result="color2Flood" />
<feComposite operator="in" in2="noise2Clipped" in="color2Flood" result="color2" />
<feMerge result="effect1_noise_0_377">
<feMergeNode in="shape" />
<feMergeNode in="color1" />
<feMergeNode in="color2" />
</feMerge>
</filter>
</defs>
</svg>
