<svg preserveAspectRatio="none" width="100%" height="100%" overflow="visible" style="display: block;" viewBox="0 0 240 239.999" fill="none" xmlns="http://www.w3.org/2000/svg">
<g id="Subtract">
<path d="M118.111 1.3416C118.599 -0.055972 120.25 -0.361634 121.246 0.424611C121.405 0.550206 121.548 0.704287 121.666 0.885548C121.696 0.930917 121.725 0.978296 121.751 1.02715C121.804 1.12475 121.85 1.23011 121.889 1.3416L126.185 13.6697C126.614 13.6943 127.044 13.7221 127.472 13.7518L133.311 2.07598C134.158 0.381506 136.667 0.704565 137.057 2.5584L139.736 15.3191C140.345 15.4331 140.952 15.5513 141.557 15.6756L148.887 4.89629C149.952 3.3296 152.396 3.98433 152.535 5.87383L153.492 18.866C153.907 19.0033 154.321 19.1437 154.733 19.2859L163.378 9.53887C164.635 8.12159 166.974 9.08298 166.871 10.9744L166.157 23.9861C166.716 24.2552 167.272 24.5309 167.825 24.8094L177.694 16.2947C179.129 15.0575 181.32 16.3224 180.965 18.1834L178.523 30.9969C178.884 31.2348 179.244 31.4754 179.602 31.7176L190.49 24.5291C192.071 23.4859 194.082 25.02 193.492 26.8201L189.427 39.2283C189.892 39.6281 190.353 40.0326 190.811 40.4402L202.569 34.7596C204.275 33.9359 206.064 35.7247 205.24 37.4305L199.559 49.1883C199.844 49.5088 200.129 49.8311 200.41 50.1551L212.797 46.0262C214.594 45.4276 216.14 47.4311 215.105 49.0174L207.971 59.9422C208.319 60.4506 208.664 60.9617 209.003 61.4764L221.817 59.035C223.678 58.6812 224.943 60.8721 223.706 62.3064L215.191 72.1746C215.386 72.5631 215.58 72.9534 215.771 73.3445L228.781 72.5643C230.672 72.4515 231.646 74.7864 230.235 76.0506L220.533 84.743C220.739 85.3282 220.938 85.9168 221.133 86.5066L234.127 87.4646C236.016 87.6045 236.671 90.0478 235.105 91.1131L224.324 98.4422C224.412 98.8672 224.497 99.2936 224.579 99.7205L237.352 102.335C239.207 102.715 239.544 105.223 237.855 106.079L226.21 111.976C226.256 112.587 226.294 113.2 226.329 113.814L238.658 118.111C240.447 118.735 240.447 121.265 238.658 121.888L226.328 126.184C226.304 126.614 226.278 127.043 226.248 127.471L237.925 133.309C239.619 134.157 239.295 136.666 237.441 137.055L224.681 139.735C224.567 140.344 224.449 140.951 224.324 141.556L235.105 148.887C236.67 149.952 236.016 152.395 234.127 152.535L221.133 153.492C220.996 153.907 220.856 154.321 220.714 154.733L230.462 163.378C231.878 164.635 230.916 166.974 229.025 166.871L216.014 166.157C215.745 166.716 215.469 167.271 215.191 167.824L223.706 177.693C224.943 179.127 223.678 181.318 221.817 180.965L209.003 178.522C208.765 178.884 208.525 179.243 208.282 179.601L215.471 190.489C216.514 192.07 214.98 194.08 213.18 193.491L200.771 189.426C200.371 189.89 199.967 190.353 199.56 190.81L205.24 202.568C206.064 204.274 204.275 206.062 202.569 205.239L190.812 199.558C190.491 199.844 190.168 200.128 189.844 200.41L193.974 212.797C194.572 214.594 192.57 216.138 190.983 215.103L180.057 207.97C179.548 208.317 179.037 208.663 178.523 209.002L180.965 221.816C181.319 223.677 179.129 224.942 177.694 223.705L167.825 215.189C167.436 215.385 167.046 215.579 166.654 215.77L167.436 228.78C167.549 230.671 165.215 231.644 163.95 230.234L155.257 220.532C154.671 220.738 154.082 220.937 153.491 221.133L152.535 234.126C152.396 236.015 149.952 236.669 148.887 235.103L141.557 224.323C141.132 224.41 140.705 224.496 140.278 224.578L137.665 237.35C137.285 239.206 134.777 239.543 133.921 237.853L128.023 226.209C127.412 226.254 126.798 226.293 126.185 226.328L121.889 238.658C121.265 240.447 118.735 240.447 118.111 238.658L113.815 226.329C113.385 226.304 112.956 226.277 112.527 226.247L106.691 237.924C105.843 239.618 103.334 239.294 102.944 237.44L100.264 224.679C99.6551 224.565 99.0474 224.447 98.4425 224.323L91.1134 235.103C90.0481 236.67 87.6045 236.015 87.4649 234.126L86.5069 221.133C86.0922 220.995 85.6781 220.855 85.2657 220.713L76.6231 230.461C75.3662 231.878 73.0255 230.916 73.129 229.024L73.8419 216.013C73.2835 215.744 72.7278 215.469 72.1749 215.19L62.3067 223.705C60.8723 224.942 58.681 223.677 59.0352 221.816L61.4766 209.002C61.1144 208.763 60.7528 208.522 60.3936 208.279L49.5079 215.468C47.9269 216.511 45.9163 214.976 46.5059 213.176L50.5704 200.767C50.1052 200.367 49.6418 199.964 49.1837 199.555L37.4288 205.235C35.7229 206.059 33.9337 204.27 34.7579 202.564L40.4376 190.807C40.1531 190.488 39.8697 190.166 39.5889 189.844L27.2032 193.973C25.4059 194.572 23.8609 192.569 24.8966 190.982L32.0284 180.056C31.6808 179.548 31.3362 179.037 30.9971 178.522L18.1837 180.965C16.3225 181.319 15.0573 179.128 16.295 177.693L24.8087 167.824C24.6131 167.436 24.4195 167.045 24.2286 166.654L11.2198 167.435C9.32856 167.549 8.35368 165.213 9.76473 163.949L19.4669 155.255C19.2616 154.669 19.0616 154.081 18.8663 153.491L5.8741 152.535C3.98456 152.396 3.32976 149.952 4.89656 148.887L15.6759 141.556C15.5883 141.131 15.5024 140.704 15.42 140.276L2.64949 137.664C0.793293 137.284 0.456329 134.777 2.14656 133.921L13.7901 128.022C13.7446 127.411 13.7052 126.798 13.67 126.184L1.34188 121.888C0.950958 121.752 0.644974 121.524 0.424883 121.246C0.36203 121.166 0.305822 121.082 0.256914 120.995C-0.232426 120.123 -0.0227103 118.926 0.885821 118.334C0.976751 118.275 1.07484 118.221 1.17977 118.175C1.23189 118.152 1.28629 118.131 1.34188 118.111L13.67 113.814C13.6946 113.385 13.7223 112.955 13.752 112.527L2.07527 106.689C0.381289 105.842 0.704888 103.333 2.55867 102.943L15.3184 100.263C15.4325 99.654 15.5515 99.047 15.6759 98.4422L4.89656 91.1131C3.32976 90.0478 3.98456 87.6038 5.8741 87.4646L18.8663 86.5076C19.0038 86.0921 19.1437 85.6777 19.2862 85.2645L9.53914 76.6219C8.12165 75.365 9.08319 73.0254 10.9747 73.1287L23.9864 73.8416C24.2554 73.2831 24.5303 72.7277 24.8087 72.1746L16.295 62.3064C15.0573 60.8719 16.3225 58.6804 18.1837 59.035L30.9971 61.4764C31.2351 61.1153 31.4747 60.7553 31.7169 60.3973L24.5294 49.5105C23.4858 47.9295 25.021 45.9188 26.8214 46.5086L39.2286 50.573C39.6288 50.1079 40.0324 49.6455 40.4405 49.1873L34.7608 37.4314C33.9367 35.7255 35.7258 33.9364 37.4317 34.7605L49.1876 40.4402C49.5082 40.1547 49.8313 39.8714 50.1554 39.5896L46.0264 27.2029C45.4276 25.4057 47.4313 23.8606 49.0177 24.8963L59.9425 32.0291C60.4509 31.6813 60.9619 31.336 61.4766 30.9969L59.0352 18.1834C58.6807 16.3223 60.8722 15.0572 62.3067 16.2947L72.1749 24.8084C72.5634 24.6128 72.9536 24.4193 73.3448 24.2283L72.5645 11.2195C72.451 9.32835 74.7865 8.3536 76.0509 9.76445L84.7442 19.4666C85.3293 19.2614 85.9172 19.0612 86.5069 18.866L87.4649 5.87383C87.6041 3.98436 90.048 3.32961 91.1134 4.89629L98.4425 15.6756C98.8678 15.5882 99.2946 15.503 99.7218 15.4207L102.336 2.64922C102.716 0.793027 105.223 0.456063 106.079 2.14629L111.977 13.7898C112.588 13.7443 113.201 13.7049 113.815 13.6697L118.111 1.3416ZM56.877 173.763C69.0039 187.988 85.8537 198.061 105 201.559V162.435C99.7339 160.574 94.9182 157.761 90.7589 154.202L56.877 173.763ZM149.24 154.202C145.081 157.761 140.266 160.574 135 162.435V201.559C154.146 198.061 170.994 187.987 183.121 173.763L149.24 154.202ZM41.8585 92.2049C38.7676 100.894 37.085 110.25 37.085 120C37.0851 129.749 38.7678 139.105 41.8585 147.794L75.752 128.224C75.2595 125.558 75.0001 122.809 75.0001 120C75.0001 117.19 75.2593 114.44 75.752 111.773L41.8585 92.2049ZM164.246 111.772C164.739 114.44 165 117.19 165 120C165 122.809 164.74 125.558 164.247 128.224L198.14 147.793C201.23 139.104 202.915 129.749 202.915 120C202.915 110.251 201.23 100.895 198.14 92.2059L164.246 111.772ZM120 105C111.716 105 105 111.716 105 120C105 128.284 111.716 135 120 135C128.284 135 135 128.284 135 120C135 111.716 128.284 105 120 105ZM105 38.4393C85.8538 41.9378 69.0039 52.0112 56.877 66.2352L90.7589 85.7967C94.9182 82.2374 99.734 79.4247 105 77.5633V38.4393ZM135 77.5633C140.266 79.4246 145.081 82.2369 149.24 85.7957L183.121 66.2352C170.994 52.0118 154.146 41.9379 135 38.4393V77.5633Z" fill="var(--fill-0, white)" fill-opacity="0.4"/>
</g>
<defs>
<filter id="filter0_n_0_184" x="0" y="0" width="240" height="239.999" filterUnits="userSpaceOnUse" color-interpolation-filters="sRGB">
<feFlood flood-opacity="0" result="BackgroundImageFix"/>
<feBlend mode="normal" in="SourceGraphic" in2="BackgroundImageFix" result="shape"/>
<feTurbulence type="fractalNoise" baseFrequency="2 2" stitchTiles="stitch" numOctaves="3" result="noise" seed="8542" />
<feColorMatrix in="noise" type="luminanceToAlpha" result="alphaNoise" />
<feComponentTransfer in="alphaNoise" result="coloredNoise1">
<feFuncA type="discrete" tableValues="1 1 1 1 1 1 1 1 1 1 1 1 1 1 1 1 1 1 1 1 1 1 1 1 1 1 1 1 1 1 1 1 1 1 1 1 1 1 1 1 1 1 1 1 1 1 1 1 1 1 1 0 0 0 0 0 0 0 0 0 0 0 0 0 0 0 0 0 0 0 0 0 0 0 0 0 0 0 0 0 0 0 0 0 0 0 0 0 0 0 0 0 0 0 0 0 0 0 0 0 "/>
</feComponentTransfer>
<feComposite operator="in" in2="shape" in="coloredNoise1" result="noise1Clipped" />
<feComponentTransfer in="alphaNoise" result="coloredNoise2">
<feFuncA type="discrete" tableValues="0 0 0 0 0 0 0 0 0 0 0 0 0 0 0 0 0 0 0 0 0 0 0 0 0 0 0 0 0 0 0 0 0 0 0 0 0 0 0 0 0 0 0 0 0 0 0 0 0 1 1 1 1 1 1 1 1 1 1 1 1 1 1 1 1 1 1 1 1 1 1 1 1 1 1 1 1 1 1 1 1 1 1 1 1 1 1 1 1 1 1 1 1 1 1 1 1 1 1 1 "/>
</feComponentTransfer>
<feComposite operator="in" in2="shape" in="coloredNoise2" result="noise2Clipped" />
<feFlood flood-color="#00FFEA" result="color1Flood" />
<feComposite operator="in" in2="noise1Clipped" in="color1Flood" result="color1" />
<feFlood flood-color="#9057FF" result="color2Flood" />
<feComposite operator="in" in2="noise2Clipped" in="color2Flood" result="color2" />
<feMerge result="effect1_noise_0_184">
<feMergeNode in="shape" />
<feMergeNode in="color1" />
<feMergeNode in="color2" />
</feMerge>
</filter>
</defs>
</svg>
