<svg preserveAspectRatio="none" width="100%" height="100%" overflow="visible" style="display: block;" viewBox="0 0 240 239.999" fill="none" xmlns="http://www.w3.org/2000/svg">
<g id="Subtract" filter="url(#filter0_n_0_303)">
<path d="M118.111 1.34167C118.599 -0.0559135 120.25 -0.361711 121.246 0.424674C121.445 0.581913 121.619 0.782654 121.751 1.02721C121.777 1.07615 121.802 1.12712 121.825 1.17956C121.848 1.23178 121.869 1.28598 121.889 1.34167L123.241 5.22448L126.185 13.6698C126.614 13.6944 127.043 13.7221 127.472 13.7518L133.311 2.07506C134.158 0.380999 136.667 0.704637 137.057 2.55846L139.736 15.3182C140.345 15.4322 140.952 15.5504 141.557 15.6747L148.887 4.89538C149.952 3.32919 152.396 3.98472 152.535 5.87389L153.492 18.8661C153.907 19.0034 154.321 19.1428 154.733 19.285L163.378 9.53796C164.635 8.12094 166.974 9.08306 166.871 10.9745L166.157 23.9862C166.716 24.2552 167.271 24.5301 167.824 24.8085L177.694 16.2938C179.129 15.0572 181.319 16.3219 180.965 18.1825L178.522 30.9969C178.884 31.2349 179.243 31.4745 179.602 31.7167L190.49 24.5282C192.071 23.4853 194.082 25.0201 193.492 26.8202L189.427 39.2284C189.892 39.6283 190.354 40.0315 190.811 40.4393L202.569 34.7596C204.275 33.9358 206.064 35.7248 205.24 37.4305L199.559 49.1874C199.844 49.5084 200.129 49.8307 200.411 50.1551L212.798 46.0262C214.595 45.4279 216.139 47.4303 215.104 49.0165L207.971 59.9423C208.319 60.4508 208.664 60.9616 209.003 61.4764L221.817 59.035C223.678 58.6808 224.943 60.8721 223.706 62.3065L215.19 72.1747C215.386 72.5633 215.579 72.9533 215.77 73.3446L228.781 72.5643C230.672 72.4511 231.646 74.7863 230.235 76.0507L220.533 84.743C220.738 85.3284 220.937 85.9167 221.133 86.5067L234.127 87.4637C236.016 87.6032 236.671 90.0478 235.104 91.1132L224.325 98.4413C224.413 98.8667 224.497 99.2934 224.579 99.7206L237.352 102.335C239.207 102.715 239.544 105.222 237.854 106.078L226.21 111.975C226.255 112.587 226.294 113.2 226.329 113.814L238.659 118.111C240.447 118.735 240.448 121.265 238.659 121.889L226.328 126.184C226.304 126.614 226.278 127.043 226.248 127.471L237.925 133.309C239.619 134.157 239.295 136.666 237.441 137.056L224.681 139.735C224.567 140.344 224.45 140.952 224.325 141.557L235.104 148.886C236.671 149.951 236.016 152.396 234.127 152.535L221.133 153.491C220.995 153.906 220.856 154.321 220.714 154.733L230.462 163.377C231.879 164.634 230.917 166.974 229.025 166.87L216.014 166.156C215.745 166.715 215.469 167.27 215.19 167.823L223.706 177.693C224.943 179.128 223.678 181.318 221.817 180.964L209.003 178.522C208.765 178.883 208.524 179.243 208.282 179.6L215.471 190.488C216.515 192.069 214.98 194.08 213.18 193.491L200.77 189.426C200.37 189.891 199.966 190.352 199.559 190.81L205.24 202.568C206.064 204.274 204.275 206.063 202.569 205.239L190.811 199.558C190.491 199.844 190.169 200.127 189.845 200.409L193.974 212.796C194.573 214.593 192.57 216.139 190.983 215.103L180.057 207.97C179.548 208.317 179.038 208.663 178.523 209.002L180.965 221.816C181.319 223.677 179.129 224.942 177.694 223.705L167.824 215.189C167.436 215.385 167.046 215.578 166.654 215.769L167.436 228.78C167.549 230.671 165.214 231.645 163.95 230.234L155.257 220.532C154.671 220.737 154.082 220.936 153.492 221.132L152.536 234.126C152.397 236.015 149.952 236.67 148.887 235.103L141.558 224.324C141.132 224.412 140.705 224.496 140.278 224.578L137.665 237.35C137.285 239.207 134.777 239.543 133.921 237.853L128.022 226.209C127.411 226.254 126.798 226.292 126.185 226.327L121.889 238.657C121.83 238.824 121.756 238.977 121.667 239.113C121.549 239.295 121.406 239.449 121.246 239.575C120.927 239.827 120.541 239.966 120.148 239.994C119.952 240.008 119.753 239.994 119.56 239.952C118.933 239.816 118.365 239.385 118.111 238.658L113.814 226.328C113.385 226.303 112.956 226.277 112.528 226.247L106.69 237.924C105.843 239.618 103.334 239.294 102.944 237.44L100.264 224.68C99.6548 224.565 99.0475 224.447 98.4423 224.323L91.1132 235.103C90.0479 236.67 87.6043 236.015 87.4648 234.126L86.5068 221.132C86.092 220.994 85.6781 220.855 85.2656 220.713L76.623 230.461C75.366 231.878 73.0253 230.916 73.1289 229.024L73.8418 216.013C73.2831 215.743 72.728 215.468 72.1748 215.189L62.3066 223.704C60.8722 224.942 58.681 223.677 59.0351 221.816L61.4765 209.002C61.1143 208.763 60.7536 208.522 60.3945 208.279L49.5088 215.467C47.9277 216.511 45.9162 214.976 46.5058 213.176L50.5703 200.767C50.1049 200.367 49.6429 199.963 49.1845 199.555L37.4287 205.235C35.7229 206.059 33.9339 204.27 34.7578 202.564L40.4375 190.807C40.1526 190.488 39.8699 190.166 39.5888 189.843L27.2031 193.973C25.4057 194.572 23.8607 192.569 24.8964 190.982L32.0293 180.057C31.6814 179.548 31.3363 179.037 30.997 178.522L18.1836 180.964C16.3224 181.318 15.0574 179.128 16.2949 177.693L24.8086 167.824C24.613 167.436 24.4204 167.045 24.2295 166.654L11.2197 167.435C9.32855 167.549 8.35389 165.213 9.76461 163.949L19.4668 155.255C19.2615 154.669 19.0615 154.081 18.8662 153.491L5.87399 152.535C3.98445 152.396 3.32965 149.951 4.89645 148.886L15.6748 141.557C15.5873 141.131 15.5023 140.704 15.4199 140.276L2.64938 137.664C0.793179 137.284 0.456214 134.776 2.14645 133.92L13.79 128.022C13.7445 127.411 13.705 126.798 13.6699 126.184L1.34176 121.889C-0.447313 121.265 -0.447194 118.735 1.34176 118.111L13.6699 113.814C13.6945 113.384 13.7222 112.955 13.7519 112.526L2.07614 106.689C0.381611 105.842 0.704706 103.333 2.55856 102.943L15.3183 100.263C15.4324 99.6538 15.5504 99.0463 15.6748 98.4413L4.89645 91.1132C3.32965 90.0479 3.98445 87.6029 5.87399 87.4637L18.8662 86.5067C19.0036 86.0916 19.1437 85.6774 19.2861 85.2645L9.53903 76.6219C8.12142 75.3649 9.08373 73.025 10.9756 73.1288L23.9863 73.8417C24.2553 73.2832 24.5302 72.7277 24.8086 72.1747L16.2949 62.3065C15.0572 60.872 16.3224 58.6804 18.1836 59.035L30.997 61.4764C31.2349 61.1154 31.4746 60.7553 31.7168 60.3973L24.5293 49.5106C23.4854 47.9295 25.0208 45.9178 26.8213 46.5077L39.2285 50.5721C39.6285 50.1072 40.0325 49.6453 40.4404 49.1874L34.7607 37.4315C33.9366 35.7256 35.7257 33.9364 37.4316 34.7606L49.1875 40.4403C49.5082 40.1546 49.831 39.8706 50.1552 39.5887L46.0263 27.203C45.4273 25.4057 47.4311 23.8597 49.0175 24.8954L59.9423 32.0282C60.4507 31.6805 60.9619 31.336 61.4765 30.9969L59.0361 18.1835C58.6817 16.3224 60.8721 15.0572 62.3066 16.2948L72.1748 24.8085C72.5633 24.6129 72.9534 24.4193 73.3447 24.2284L72.5644 11.2186C72.4514 9.32775 74.7865 8.35363 76.0507 9.76452L84.7431 19.4657C85.3285 19.2604 85.9169 19.0614 86.5068 18.8661L87.4648 5.87389C87.6042 3.98461 90.048 3.32973 91.1132 4.89635L98.4423 15.6757C98.8678 15.5882 99.2943 15.5022 99.7216 15.4198L102.336 2.64831C102.716 0.79272 105.223 0.455844 106.079 2.14538L111.977 13.7899C112.588 13.7444 113.2 13.7049 113.814 13.6698L118.111 1.34167ZM120 59.9999C86.863 59.9999 60 86.8629 60 120C60 153.137 86.8629 180 120 180C153.137 180 180 153.137 180 120C180 86.8629 153.137 59.9999 120 59.9999Z" fill="#5AB8FF"/>
</g>
<defs>
<filter id="filter0_n_0_303" x="0" y="0" width="240" height="239.999" filterUnits="userSpaceOnUse" color-interpolation-filters="sRGB">
<feFlood flood-opacity="0" result="BackgroundImageFix"/>
<feBlend mode="normal" in="SourceGraphic" in2="BackgroundImageFix" result="shape"/>
<feTurbulence type="fractalNoise" baseFrequency="2 2" stitchTiles="stitch" numOctaves="3" result="noise" seed="8542" />
<feColorMatrix in="noise" type="luminanceToAlpha" result="alphaNoise" />
<feComponentTransfer in="alphaNoise" result="coloredNoise1">
<feFuncA type="discrete" tableValues="1 1 1 1 1 1 1 1 1 1 1 1 1 1 1 1 1 1 1 1 1 1 1 1 1 1 1 1 1 1 1 1 1 1 1 1 1 1 1 1 1 1 1 1 1 1 1 1 1 1 1 0 0 0 0 0 0 0 0 0 0 0 0 0 0 0 0 0 0 0 0 0 0 0 0 0 0 0 0 0 0 0 0 0 0 0 0 0 0 0 0 0 0 0 0 0 0 0 0 0 "/>
</feComponentTransfer>
<feComposite operator="in" in2="shape" in="coloredNoise1" result="noise1Clipped" />
<feComponentTransfer in="alphaNoise" result="coloredNoise2">
<feFuncA type="discrete" tableValues="0 0 0 0 0 0 0 0 0 0 0 0 0 0 0 0 0 0 0 0 0 0 0 0 0 0 0 0 0 0 0 0 0 0 0 0 0 0 0 0 0 0 0 0 0 0 0 0 0 1 1 1 1 1 1 1 1 1 1 1 1 1 1 1 1 1 1 1 1 1 1 1 1 1 1 1 1 1 1 1 1 1 1 1 1 1 1 1 1 1 1 1 1 1 1 1 1 1 1 1 "/>
</feComponentTransfer>
<feComposite operator="in" in2="shape" in="coloredNoise2" result="noise2Clipped" />
<feFlood flood-color="#00FFEA" result="color1Flood" />
<feComposite operator="in" in2="noise1Clipped" in="color1Flood" result="color1" />
<feFlood flood-color="#9057FF" result="color2Flood" />
<feComposite operator="in" in2="noise2Clipped" in="color2Flood" result="color2" />
<feMerge result="effect1_noise_0_303">
<feMergeNode in="shape" />
<feMergeNode in="color1" />
<feMergeNode in="color2" />
</feMerge>
</filter>
</defs>
</svg>
