<svg width="240" height="240" viewBox="0 0 240 240" fill="none" xmlns="http://www.w3.org/2000/svg">
<path d="M133.127 14.79C142.982 16.0072 152.419 18.5758 161.245 22.3066L169.888 10.2393L190.111 21.915L183.971 35.4541C191.734 41.3372 198.661 48.2652 204.544 56.0283L218.084 49.8887L229.761 70.1123L217.692 78.7539C221.423 87.5799 223.992 97.0165 225.209 106.872L240 108.324V131.676L225.208 133.127C223.991 142.982 221.423 152.419 217.692 161.245L229.761 169.888L218.084 190.112L204.543 183.972C198.66 191.734 191.734 198.662 183.971 204.545L190.111 218.085L169.888 229.761L161.245 217.692C152.419 221.423 142.982 223.991 133.127 225.208L131.676 240H108.323L106.871 225.209C97.0156 223.992 87.579 221.423 78.7529 217.692L70.1113 229.761L49.8877 218.085L56.0273 204.545C48.2645 198.662 41.3371 191.735 35.4541 183.972L21.9141 190.112L10.2383 169.889L22.3066 161.246C18.5756 152.42 16.0072 142.983 14.79 133.127L0 131.676V108.324L14.79 106.872C16.0073 97.0163 18.5755 87.5792 22.3066 78.7529L10.2383 70.1113L21.9141 49.8877L35.4541 56.0273C41.3371 48.2645 48.2645 41.3371 56.0273 35.4541L49.8877 21.915L70.1113 10.2393L78.7529 22.3066C87.5789 18.5757 97.0156 16.0073 106.871 14.79L108.323 0H131.676L133.127 14.79ZM120 36.0596C73.6412 36.0596 36.0596 73.6412 36.0596 120C36.0596 166.359 73.6412 203.94 120 203.94C166.359 203.94 203.939 166.359 203.939 120C203.939 73.6414 166.359 36.0598 120 36.0596Z" fill="#9747FF"/>
</svg>
